<mxfile modified="2024-02-12T08:14:59.655Z" host="Electron" agent="Mozilla/5.0 (Macintosh; Intel Mac OS X 10_15_7) AppleWebKit/537.36 (KHTML, like Gecko) draw.io/23.0.2 Chrome/120.0.6099.109 Electron/28.1.0 Safari/537.36" etag="fsZE9LwB6crFcSTEaoNK" version="23.0.2" type="device" pages="5">
  <diagram id="9QGye9qF3GlcTXH40-j3" name="engine-host-internals">
    <mxGraphModel dx="1242" dy="1989" grid="1" gridSize="10" guides="1" tooltips="1" connect="1" arrows="1" fold="1" page="1" pageScale="1" pageWidth="827" pageHeight="1169" math="0" shadow="0">
      <root>
        <mxCell id="1A0xML21-OaG5q6vJsk9-0" />
        <mxCell id="1A0xML21-OaG5q6vJsk9-1" parent="1A0xML21-OaG5q6vJsk9-0" />
        <mxCell id="C474DuP7eIwvaRZx95Ov-111" value="" style="rounded=0;whiteSpace=wrap;html=1;verticalAlign=top;fillColor=#dae8fc;strokeColor=#6c8ebf;" parent="1A0xML21-OaG5q6vJsk9-1" vertex="1">
          <mxGeometry x="235" y="-335" width="36" height="20" as="geometry" />
        </mxCell>
        <mxCell id="C474DuP7eIwvaRZx95Ov-34" value="Engine Host OMAG Server" style="rounded=0;whiteSpace=wrap;html=1;verticalAlign=bottom;fillColor=#fff2cc;strokeColor=#d6b656;" parent="1A0xML21-OaG5q6vJsk9-1" vertex="1">
          <mxGeometry x="1102.1" y="110" width="210" height="327" as="geometry" />
        </mxCell>
        <mxCell id="C474DuP7eIwvaRZx95Ov-35" value="Metadata&lt;br&gt;Access Server" style="rounded=0;whiteSpace=wrap;html=1;verticalAlign=bottom;fillColor=#fff2cc;strokeColor=#d6b656;" parent="1A0xML21-OaG5q6vJsk9-1" vertex="1">
          <mxGeometry x="1451.1" y="130" width="170" height="217" as="geometry" />
        </mxCell>
        <mxCell id="C474DuP7eIwvaRZx95Ov-36" style="edgeStyle=orthogonalEdgeStyle;rounded=0;orthogonalLoop=1;jettySize=auto;html=1;entryX=1;entryY=0.25;entryDx=0;entryDy=0;exitX=0;exitY=0.75;exitDx=0;exitDy=0;" parent="1A0xML21-OaG5q6vJsk9-1" source="CtbzTgIFIKswPZPyJOrO-15" target="C474DuP7eIwvaRZx95Ov-34" edge="1">
          <mxGeometry relative="1" as="geometry" />
        </mxCell>
        <mxCell id="C474DuP7eIwvaRZx95Ov-38" value="Discovery&lt;br&gt;Engine OMAS" style="rounded=0;whiteSpace=wrap;html=1;fillColor=#d5e8d4;strokeColor=#82b366;" parent="1A0xML21-OaG5q6vJsk9-1" vertex="1">
          <mxGeometry x="1451.1" y="228" width="120" height="60" as="geometry" />
        </mxCell>
        <mxCell id="C474DuP7eIwvaRZx95Ov-39" value="3" style="ellipse;whiteSpace=wrap;html=1;aspect=fixed;align=center;fontStyle=1;fillColor=#e3c800;strokeColor=#CC0000;fontColor=#000000;" parent="1A0xML21-OaG5q6vJsk9-1" vertex="1">
          <mxGeometry x="1402.1" y="266.5" width="30" height="30" as="geometry" />
        </mxCell>
        <mxCell id="C474DuP7eIwvaRZx95Ov-40" value="2" style="ellipse;whiteSpace=wrap;html=1;aspect=fixed;align=center;fontStyle=1;fillColor=#e3c800;strokeColor=#CC0000;fontColor=#000000;" parent="1A0xML21-OaG5q6vJsk9-1" vertex="1">
          <mxGeometry x="1402.1" y="195" width="30" height="30" as="geometry" />
        </mxCell>
        <mxCell id="C474DuP7eIwvaRZx95Ov-41" value="3" style="ellipse;whiteSpace=wrap;html=1;aspect=fixed;align=center;fontStyle=1;fillColor=#e3c800;strokeColor=#CC0000;fontColor=#000000;" parent="1A0xML21-OaG5q6vJsk9-1" vertex="1">
          <mxGeometry x="1340" y="570" width="30" height="30" as="geometry" />
        </mxCell>
        <mxCell id="C474DuP7eIwvaRZx95Ov-42" value="Asset Analysis OMES" style="rounded=0;whiteSpace=wrap;html=1;shadow=1;align=center;verticalAlign=bottom;" parent="1A0xML21-OaG5q6vJsk9-1" vertex="1">
          <mxGeometry x="1114.1" y="146" width="190" height="259" as="geometry" />
        </mxCell>
        <mxCell id="C474DuP7eIwvaRZx95Ov-43" value="Discovery Engine" style="rounded=0;whiteSpace=wrap;html=1;align=center;fillColor=#dae8fc;strokeColor=#6c8ebf;verticalAlign=top;" parent="1A0xML21-OaG5q6vJsk9-1" vertex="1">
          <mxGeometry x="1124.1" y="161" width="170" height="129" as="geometry" />
        </mxCell>
        <mxCell id="C474DuP7eIwvaRZx95Ov-44" value="Discovery Engine" style="rounded=0;whiteSpace=wrap;html=1;align=center;fillColor=#dae8fc;strokeColor=#6c8ebf;verticalAlign=top;" parent="1A0xML21-OaG5q6vJsk9-1" vertex="1">
          <mxGeometry x="1124.1" y="300" width="170" height="80" as="geometry" />
        </mxCell>
        <mxCell id="CtbzTgIFIKswPZPyJOrO-23" style="edgeStyle=orthogonalEdgeStyle;rounded=0;orthogonalLoop=1;jettySize=auto;html=1;exitX=0;exitY=0.5;exitDx=0;exitDy=0;entryX=1;entryY=0.5;entryDx=0;entryDy=0;entryPerimeter=0;fillColor=default;" parent="1A0xML21-OaG5q6vJsk9-1" source="C474DuP7eIwvaRZx95Ov-45" target="CtbzTgIFIKswPZPyJOrO-22" edge="1">
          <mxGeometry relative="1" as="geometry" />
        </mxCell>
        <mxCell id="C474DuP7eIwvaRZx95Ov-45" value="Discovery&lt;br&gt;&lt;div style=&quot;&quot;&gt;&lt;span&gt;Service&lt;/span&gt;&lt;/div&gt;" style="rounded=0;whiteSpace=wrap;html=1;align=center;" parent="1A0xML21-OaG5q6vJsk9-1" vertex="1">
          <mxGeometry x="1140" y="190" width="90" height="40" as="geometry" />
        </mxCell>
        <mxCell id="C474DuP7eIwvaRZx95Ov-46" value="Discovery&lt;br&gt;&lt;div style=&quot;&quot;&gt;&lt;span&gt;Service&lt;/span&gt;&lt;/div&gt;" style="rounded=0;whiteSpace=wrap;html=1;align=center;" parent="1A0xML21-OaG5q6vJsk9-1" vertex="1">
          <mxGeometry x="1194.1" y="242" width="90" height="40" as="geometry" />
        </mxCell>
        <mxCell id="CtbzTgIFIKswPZPyJOrO-26" style="edgeStyle=orthogonalEdgeStyle;rounded=0;orthogonalLoop=1;jettySize=auto;html=1;exitX=0;exitY=0.5;exitDx=0;exitDy=0;fillColor=default;opacity=70;" parent="1A0xML21-OaG5q6vJsk9-1" source="C474DuP7eIwvaRZx95Ov-47" target="CtbzTgIFIKswPZPyJOrO-25" edge="1">
          <mxGeometry relative="1" as="geometry" />
        </mxCell>
        <mxCell id="C474DuP7eIwvaRZx95Ov-47" value="Discovery&lt;br&gt;&lt;div style=&quot;&quot;&gt;&lt;span&gt;Service&lt;/span&gt;&lt;/div&gt;" style="rounded=0;whiteSpace=wrap;html=1;align=center;" parent="1A0xML21-OaG5q6vJsk9-1" vertex="1">
          <mxGeometry x="1164.1" y="324" width="90" height="40" as="geometry" />
        </mxCell>
        <mxCell id="C474DuP7eIwvaRZx95Ov-98" value="Engine Host OMAG Server" style="rounded=0;whiteSpace=wrap;html=1;verticalAlign=top;fillColor=#fff2cc;strokeColor=#d6b656;" parent="1A0xML21-OaG5q6vJsk9-1" vertex="1">
          <mxGeometry x="180" y="-487" width="385" height="477" as="geometry" />
        </mxCell>
        <mxCell id="C474DuP7eIwvaRZx95Ov-99" value="Engine Host Services" style="rounded=0;whiteSpace=wrap;html=1;verticalAlign=top;" parent="1A0xML21-OaG5q6vJsk9-1" vertex="1">
          <mxGeometry x="190" y="-449.5" width="370" height="134.5" as="geometry" />
        </mxCell>
        <mxCell id="C474DuP7eIwvaRZx95Ov-100" value="Metadata Access Server" style="rounded=0;whiteSpace=wrap;html=1;verticalAlign=top;" parent="1A0xML21-OaG5q6vJsk9-1" vertex="1">
          <mxGeometry x="721" y="-490" width="170" height="415" as="geometry" />
        </mxCell>
        <mxCell id="C474DuP7eIwvaRZx95Ov-140" style="edgeStyle=orthogonalEdgeStyle;rounded=0;orthogonalLoop=1;jettySize=auto;html=1;" parent="1A0xML21-OaG5q6vJsk9-1" target="C474DuP7eIwvaRZx95Ov-108" edge="1">
          <mxGeometry relative="1" as="geometry">
            <mxPoint x="500" y="-406" as="sourcePoint" />
          </mxGeometry>
        </mxCell>
        <mxCell id="C474DuP7eIwvaRZx95Ov-141" style="edgeStyle=orthogonalEdgeStyle;rounded=0;orthogonalLoop=1;jettySize=auto;html=1;entryX=0.75;entryY=1;entryDx=0;entryDy=0;" parent="1A0xML21-OaG5q6vJsk9-1" source="C474DuP7eIwvaRZx95Ov-103" target="C474DuP7eIwvaRZx95Ov-117" edge="1">
          <mxGeometry relative="1" as="geometry" />
        </mxCell>
        <mxCell id="C474DuP7eIwvaRZx95Ov-103" value="" style="shape=partialRectangle;whiteSpace=wrap;html=1;bottom=1;right=1;left=1;top=0;fillColor=none;routingCenterX=-0.5;" parent="1A0xML21-OaG5q6vJsk9-1" vertex="1">
          <mxGeometry x="654" y="-430" width="30" height="40" as="geometry" />
        </mxCell>
        <mxCell id="C474DuP7eIwvaRZx95Ov-104" value="Out&lt;br&gt;Topic" style="text;html=1;align=center;verticalAlign=middle;resizable=0;points=[];;autosize=1;" parent="1A0xML21-OaG5q6vJsk9-1" vertex="1">
          <mxGeometry x="649" y="-425" width="40" height="30" as="geometry" />
        </mxCell>
        <mxCell id="C474DuP7eIwvaRZx95Ov-105" style="edgeStyle=orthogonalEdgeStyle;rounded=0;orthogonalLoop=1;jettySize=auto;html=1;exitX=0.75;exitY=0;exitDx=0;exitDy=0;entryX=1;entryY=0.5;entryDx=0;entryDy=0;" parent="1A0xML21-OaG5q6vJsk9-1" source="C474DuP7eIwvaRZx95Ov-142" target="C474DuP7eIwvaRZx95Ov-103" edge="1">
          <mxGeometry relative="1" as="geometry">
            <mxPoint x="723.845" y="-410.3325" as="sourcePoint" />
          </mxGeometry>
        </mxCell>
        <mxCell id="C474DuP7eIwvaRZx95Ov-137" style="edgeStyle=orthogonalEdgeStyle;rounded=0;orthogonalLoop=1;jettySize=auto;html=1;exitX=0.75;exitY=1;exitDx=0;exitDy=0;entryX=0.5;entryY=0;entryDx=0;entryDy=0;" parent="1A0xML21-OaG5q6vJsk9-1" source="C474DuP7eIwvaRZx95Ov-108" target="C474DuP7eIwvaRZx95Ov-110" edge="1">
          <mxGeometry relative="1" as="geometry" />
        </mxCell>
        <mxCell id="C474DuP7eIwvaRZx95Ov-108" value="Listener" style="rounded=0;whiteSpace=wrap;html=1;fillColor=#ffe6cc;strokeColor=#d79b00;" parent="1A0xML21-OaG5q6vJsk9-1" vertex="1">
          <mxGeometry x="280" y="-419" width="194" height="25" as="geometry" />
        </mxCell>
        <mxCell id="C474DuP7eIwvaRZx95Ov-138" style="edgeStyle=orthogonalEdgeStyle;rounded=0;orthogonalLoop=1;jettySize=auto;html=1;entryX=0.25;entryY=0;entryDx=0;entryDy=0;" parent="1A0xML21-OaG5q6vJsk9-1" source="C474DuP7eIwvaRZx95Ov-110" target="C474DuP7eIwvaRZx95Ov-117" edge="1">
          <mxGeometry relative="1" as="geometry" />
        </mxCell>
        <mxCell id="C474DuP7eIwvaRZx95Ov-110" value="Request&lt;br&gt;Handler" style="rounded=0;whiteSpace=wrap;html=1;fillColor=#ffe6cc;strokeColor=#d79b00;" parent="1A0xML21-OaG5q6vJsk9-1" vertex="1">
          <mxGeometry x="380" y="-373.75" width="99" height="44" as="geometry" />
        </mxCell>
        <mxCell id="C474DuP7eIwvaRZx95Ov-116" style="edgeStyle=orthogonalEdgeStyle;rounded=0;orthogonalLoop=1;jettySize=auto;html=1;exitX=0.25;exitY=1;exitDx=0;exitDy=0;startArrow=none;startFill=0;entryX=0.25;entryY=0;entryDx=0;entryDy=0;" parent="1A0xML21-OaG5q6vJsk9-1" source="C474DuP7eIwvaRZx95Ov-117" target="C474DuP7eIwvaRZx95Ov-142" edge="1">
          <mxGeometry relative="1" as="geometry">
            <mxPoint x="723.845" y="-352.5274999999999" as="targetPoint" />
          </mxGeometry>
        </mxCell>
        <mxCell id="C474DuP7eIwvaRZx95Ov-117" value="Governance Server&lt;br&gt;OMAS Client" style="rounded=0;whiteSpace=wrap;html=1;rotation=-90;fillColor=#e1d5e7;strokeColor=#9673a6;" parent="1A0xML21-OaG5q6vJsk9-1" vertex="1">
          <mxGeometry x="468.45" y="-408.8" width="116.62" height="56.5" as="geometry" />
        </mxCell>
        <mxCell id="C474DuP7eIwvaRZx95Ov-121" style="edgeStyle=orthogonalEdgeStyle;rounded=0;orthogonalLoop=1;jettySize=auto;html=1;exitX=0.5;exitY=1;exitDx=0;exitDy=0;" parent="1A0xML21-OaG5q6vJsk9-1" source="C474DuP7eIwvaRZx95Ov-103" target="C474DuP7eIwvaRZx95Ov-103" edge="1">
          <mxGeometry relative="1" as="geometry" />
        </mxCell>
        <mxCell id="C474DuP7eIwvaRZx95Ov-122" value="REST API calls" style="text;html=1;align=center;verticalAlign=middle;resizable=0;points=[];;autosize=1;" parent="1A0xML21-OaG5q6vJsk9-1" vertex="1">
          <mxGeometry x="591" y="-373.75" width="100" height="20" as="geometry" />
        </mxCell>
        <mxCell id="C474DuP7eIwvaRZx95Ov-123" value="OutTopic&lt;br&gt;Events" style="text;html=1;align=center;verticalAlign=middle;resizable=0;points=[];;autosize=1;" parent="1A0xML21-OaG5q6vJsk9-1" vertex="1">
          <mxGeometry x="567" y="-442.8" width="60" height="30" as="geometry" />
        </mxCell>
        <mxCell id="C474DuP7eIwvaRZx95Ov-134" style="edgeStyle=orthogonalEdgeStyle;rounded=0;orthogonalLoop=1;jettySize=auto;html=1;exitX=0.25;exitY=1;exitDx=0;exitDy=0;entryX=0.5;entryY=0;entryDx=0;entryDy=0;startArrow=none;startFill=0;" parent="1A0xML21-OaG5q6vJsk9-1" source="C474DuP7eIwvaRZx95Ov-108" target="C474DuP7eIwvaRZx95Ov-136" edge="1">
          <mxGeometry relative="1" as="geometry">
            <mxPoint x="334.9" y="-441" as="sourcePoint" />
          </mxGeometry>
        </mxCell>
        <mxCell id="C474DuP7eIwvaRZx95Ov-135" style="edgeStyle=orthogonalEdgeStyle;rounded=0;orthogonalLoop=1;jettySize=auto;html=1;exitX=0.5;exitY=1;exitDx=0;exitDy=0;entryX=0.25;entryY=0;entryDx=0;entryDy=0;startArrow=none;startFill=0;" parent="1A0xML21-OaG5q6vJsk9-1" source="C474DuP7eIwvaRZx95Ov-136" target="C474DuP7eIwvaRZx95Ov-143" edge="1">
          <mxGeometry relative="1" as="geometry">
            <mxPoint x="263.9" y="-359" as="targetPoint" />
            <Array as="points">
              <mxPoint x="321" y="-300" />
              <mxPoint x="365" y="-300" />
            </Array>
          </mxGeometry>
        </mxCell>
        <mxCell id="C474DuP7eIwvaRZx95Ov-136" value="Configuration&lt;br&gt;Handler" style="rounded=0;whiteSpace=wrap;html=1;fillColor=#ffe6cc;strokeColor=#d79b00;" parent="1A0xML21-OaG5q6vJsk9-1" vertex="1">
          <mxGeometry x="280" y="-373.75" width="90" height="44" as="geometry" />
        </mxCell>
        <mxCell id="C474DuP7eIwvaRZx95Ov-142" value="Governance Server&lt;br&gt;OMAS" style="rounded=0;whiteSpace=wrap;html=1;rotation=-90;fillColor=#e1d5e7;strokeColor=#9673a6;" parent="1A0xML21-OaG5q6vJsk9-1" vertex="1">
          <mxGeometry x="696" y="-408.8" width="116.62" height="56.5" as="geometry" />
        </mxCell>
        <mxCell id="C474DuP7eIwvaRZx95Ov-145" value="REST API" style="rounded=0;whiteSpace=wrap;html=1;rotation=-90;fillColor=#ffe6cc;strokeColor=#d79b00;" parent="1A0xML21-OaG5q6vJsk9-1" vertex="1">
          <mxGeometry x="178.42" y="-414.33" width="106.05" height="60" as="geometry" />
        </mxCell>
        <mxCell id="C474DuP7eIwvaRZx95Ov-146" value="Partner&lt;br&gt;Service" style="rounded=0;whiteSpace=wrap;html=1;rotation=0;fillColor=#e1d5e7;strokeColor=#9673a6;" parent="1A0xML21-OaG5q6vJsk9-1" vertex="1">
          <mxGeometry x="730.76" y="-175" width="47.1" height="80" as="geometry" />
        </mxCell>
        <mxCell id="C474DuP7eIwvaRZx95Ov-148" value="" style="rounded=0;whiteSpace=wrap;html=1;verticalAlign=top;fillColor=#dae8fc;strokeColor=#6c8ebf;" parent="1A0xML21-OaG5q6vJsk9-1" vertex="1">
          <mxGeometry x="416.45" y="-278" width="35.1" height="20" as="geometry" />
        </mxCell>
        <mxCell id="C474DuP7eIwvaRZx95Ov-143" value="" style="rounded=0;whiteSpace=wrap;html=1;verticalAlign=top;fillColor=#dae8fc;strokeColor=#6c8ebf;" parent="1A0xML21-OaG5q6vJsk9-1" vertex="1">
          <mxGeometry x="310" y="-279" width="220" height="174" as="geometry" />
        </mxCell>
        <mxCell id="C474DuP7eIwvaRZx95Ov-160" style="edgeStyle=orthogonalEdgeStyle;rounded=0;orthogonalLoop=1;jettySize=auto;html=1;exitX=0.5;exitY=0;exitDx=0;exitDy=0;entryX=0.5;entryY=1;entryDx=0;entryDy=0;startArrow=classic;startFill=1;" parent="1A0xML21-OaG5q6vJsk9-1" source="C474DuP7eIwvaRZx95Ov-152" target="C474DuP7eIwvaRZx95Ov-111" edge="1">
          <mxGeometry relative="1" as="geometry">
            <Array as="points">
              <mxPoint x="232" y="-300" />
              <mxPoint x="253" y="-300" />
            </Array>
          </mxGeometry>
        </mxCell>
        <mxCell id="C474DuP7eIwvaRZx95Ov-152" value="Engine&lt;br&gt;Service" style="rounded=0;whiteSpace=wrap;html=1;verticalAlign=bottom;" parent="1A0xML21-OaG5q6vJsk9-1" vertex="1">
          <mxGeometry x="190.95" y="-288" width="81" height="190" as="geometry" />
        </mxCell>
        <mxCell id="C474DuP7eIwvaRZx95Ov-162" value="REST API calls" style="text;html=1;align=center;verticalAlign=middle;resizable=0;points=[];;autosize=1;" parent="1A0xML21-OaG5q6vJsk9-1" vertex="1">
          <mxGeometry x="585.07" y="-159" width="100" height="20" as="geometry" />
        </mxCell>
        <mxCell id="C474DuP7eIwvaRZx95Ov-153" value="Admin" style="rounded=0;whiteSpace=wrap;html=1;fillColor=#dae8fc;strokeColor=#6c8ebf;" parent="1A0xML21-OaG5q6vJsk9-1" vertex="1">
          <mxGeometry x="200.78" y="-276" width="61.45" height="40" as="geometry" />
        </mxCell>
        <mxCell id="C474DuP7eIwvaRZx95Ov-155" value="REST API" style="rounded=0;whiteSpace=wrap;html=1;rotation=-90;fillColor=#dae8fc;strokeColor=#6c8ebf;" parent="1A0xML21-OaG5q6vJsk9-1" vertex="1">
          <mxGeometry x="184" y="-213" width="95" height="60" as="geometry" />
        </mxCell>
        <mxCell id="C474DuP7eIwvaRZx95Ov-156" value="Engine&lt;br&gt;Service" style="rounded=0;whiteSpace=wrap;html=1;verticalAlign=bottom;" parent="1A0xML21-OaG5q6vJsk9-1" vertex="1">
          <mxGeometry x="200.95" y="-278" width="81" height="190" as="geometry" />
        </mxCell>
        <mxCell id="C474DuP7eIwvaRZx95Ov-157" value="Admin" style="rounded=0;whiteSpace=wrap;html=1;fillColor=#dae8fc;strokeColor=#6c8ebf;" parent="1A0xML21-OaG5q6vJsk9-1" vertex="1">
          <mxGeometry x="210.78" y="-270" width="61.45" height="40" as="geometry" />
        </mxCell>
        <mxCell id="C474DuP7eIwvaRZx95Ov-158" value="REST API" style="rounded=0;whiteSpace=wrap;html=1;rotation=-90;fillColor=#dae8fc;strokeColor=#6c8ebf;" parent="1A0xML21-OaG5q6vJsk9-1" vertex="1">
          <mxGeometry x="194" y="-207" width="95" height="60" as="geometry" />
        </mxCell>
        <mxCell id="C474DuP7eIwvaRZx95Ov-149" value="" style="rounded=0;whiteSpace=wrap;html=1;verticalAlign=top;fillColor=#dae8fc;strokeColor=#6c8ebf;" parent="1A0xML21-OaG5q6vJsk9-1" vertex="1">
          <mxGeometry x="320" y="-269" width="220" height="174" as="geometry" />
        </mxCell>
        <mxCell id="C474DuP7eIwvaRZx95Ov-150" value="Governance Engine Handler" style="rounded=0;whiteSpace=wrap;html=1;verticalAlign=top;fillColor=#dae8fc;strokeColor=#6c8ebf;" parent="1A0xML21-OaG5q6vJsk9-1" vertex="1">
          <mxGeometry x="330" y="-259" width="220" height="174" as="geometry" />
        </mxCell>
        <mxCell id="C474DuP7eIwvaRZx95Ov-120" value="Governance Services Map" style="rounded=0;whiteSpace=wrap;html=1;fillColor=#dae8fc;strokeColor=#6c8ebf;shadow=1;" parent="1A0xML21-OaG5q6vJsk9-1" vertex="1">
          <mxGeometry x="350" y="-226" width="180" height="40" as="geometry" />
        </mxCell>
        <mxCell id="C474DuP7eIwvaRZx95Ov-130" value="Partner&lt;br&gt;Service&lt;br&gt;Client" style="rounded=0;whiteSpace=wrap;html=1;rotation=0;fillColor=#e1d5e7;strokeColor=#9673a6;" parent="1A0xML21-OaG5q6vJsk9-1" vertex="1">
          <mxGeometry x="482.9" y="-175" width="47.1" height="80" as="geometry" />
        </mxCell>
        <mxCell id="C474DuP7eIwvaRZx95Ov-132" value="Governance&lt;br&gt;Service&lt;br&gt;Handler" style="rounded=0;whiteSpace=wrap;html=1;fillColor=#dae8fc;strokeColor=#6c8ebf;shadow=1;" parent="1A0xML21-OaG5q6vJsk9-1" vertex="1">
          <mxGeometry x="350" y="-175" width="95.95" height="60" as="geometry" />
        </mxCell>
        <mxCell id="C474DuP7eIwvaRZx95Ov-139" style="edgeStyle=orthogonalEdgeStyle;rounded=0;orthogonalLoop=1;jettySize=auto;html=1;exitX=0.5;exitY=1;exitDx=0;exitDy=0;entryX=0.75;entryY=0;entryDx=0;entryDy=0;" parent="1A0xML21-OaG5q6vJsk9-1" source="C474DuP7eIwvaRZx95Ov-110" target="C474DuP7eIwvaRZx95Ov-149" edge="1">
          <mxGeometry relative="1" as="geometry" />
        </mxCell>
        <mxCell id="C474DuP7eIwvaRZx95Ov-159" style="edgeStyle=orthogonalEdgeStyle;rounded=0;orthogonalLoop=1;jettySize=auto;html=1;" parent="1A0xML21-OaG5q6vJsk9-1" source="C474DuP7eIwvaRZx95Ov-156" target="C474DuP7eIwvaRZx95Ov-150" edge="1">
          <mxGeometry relative="1" as="geometry" />
        </mxCell>
        <mxCell id="C474DuP7eIwvaRZx95Ov-163" value="Governance&lt;br&gt;Service&lt;br&gt;Handler" style="rounded=0;whiteSpace=wrap;html=1;fillColor=#dae8fc;strokeColor=#6c8ebf;shadow=1;" parent="1A0xML21-OaG5q6vJsk9-1" vertex="1">
          <mxGeometry x="360" y="-165" width="95.95" height="60" as="geometry" />
        </mxCell>
        <mxCell id="C474DuP7eIwvaRZx95Ov-164" value="Governance&lt;br&gt;Service&lt;br&gt;Handler" style="rounded=0;whiteSpace=wrap;html=1;fillColor=#dae8fc;strokeColor=#6c8ebf;shadow=1;" parent="1A0xML21-OaG5q6vJsk9-1" vertex="1">
          <mxGeometry x="370" y="-155" width="95.95" height="60" as="geometry" />
        </mxCell>
        <mxCell id="C474DuP7eIwvaRZx95Ov-147" style="edgeStyle=orthogonalEdgeStyle;rounded=0;orthogonalLoop=1;jettySize=auto;html=1;entryX=0;entryY=0.5;entryDx=0;entryDy=0;" parent="1A0xML21-OaG5q6vJsk9-1" source="C474DuP7eIwvaRZx95Ov-130" target="C474DuP7eIwvaRZx95Ov-146" edge="1">
          <mxGeometry relative="1" as="geometry" />
        </mxCell>
        <mxCell id="C474DuP7eIwvaRZx95Ov-73" value="Audit Log (Repository Services)" style="rounded=0;whiteSpace=wrap;html=1;fillColor=#d5e8d4;strokeColor=#82b366;" parent="1A0xML21-OaG5q6vJsk9-1" vertex="1">
          <mxGeometry x="187.5" y="-75" width="370" height="60" as="geometry" />
        </mxCell>
        <mxCell id="-X61TCMz17pQ7-oCpkFn-0" value="" style="rounded=0;whiteSpace=wrap;html=1;verticalAlign=top;fillColor=#dae8fc;strokeColor=#6c8ebf;" parent="1A0xML21-OaG5q6vJsk9-1" vertex="1">
          <mxGeometry x="236.58" y="195" width="36" height="20" as="geometry" />
        </mxCell>
        <mxCell id="-X61TCMz17pQ7-oCpkFn-1" value="Engine Host OMAG Server" style="rounded=0;whiteSpace=wrap;html=1;verticalAlign=top;fillColor=#fff2cc;strokeColor=#d6b656;" parent="1A0xML21-OaG5q6vJsk9-1" vertex="1">
          <mxGeometry x="181.58" y="43" width="385" height="477" as="geometry" />
        </mxCell>
        <mxCell id="-X61TCMz17pQ7-oCpkFn-2" value="Engine Host Services" style="rounded=0;whiteSpace=wrap;html=1;verticalAlign=top;" parent="1A0xML21-OaG5q6vJsk9-1" vertex="1">
          <mxGeometry x="191.58" y="80.5" width="370" height="134.5" as="geometry" />
        </mxCell>
        <mxCell id="-X61TCMz17pQ7-oCpkFn-3" value="Metadata Access Server" style="rounded=0;whiteSpace=wrap;html=1;verticalAlign=top;" parent="1A0xML21-OaG5q6vJsk9-1" vertex="1">
          <mxGeometry x="722.58" y="40" width="170" height="440" as="geometry" />
        </mxCell>
        <mxCell id="-X61TCMz17pQ7-oCpkFn-4" style="edgeStyle=orthogonalEdgeStyle;rounded=0;orthogonalLoop=1;jettySize=auto;html=1;" parent="1A0xML21-OaG5q6vJsk9-1" target="-X61TCMz17pQ7-oCpkFn-10" edge="1">
          <mxGeometry relative="1" as="geometry">
            <mxPoint x="501.58" y="124" as="sourcePoint" />
          </mxGeometry>
        </mxCell>
        <mxCell id="-X61TCMz17pQ7-oCpkFn-5" style="edgeStyle=orthogonalEdgeStyle;rounded=0;orthogonalLoop=1;jettySize=auto;html=1;entryX=0.75;entryY=1;entryDx=0;entryDy=0;" parent="1A0xML21-OaG5q6vJsk9-1" source="-X61TCMz17pQ7-oCpkFn-6" target="-X61TCMz17pQ7-oCpkFn-14" edge="1">
          <mxGeometry relative="1" as="geometry" />
        </mxCell>
        <mxCell id="-X61TCMz17pQ7-oCpkFn-6" value="" style="shape=partialRectangle;whiteSpace=wrap;html=1;bottom=1;right=1;left=1;top=0;fillColor=none;routingCenterX=-0.5;" parent="1A0xML21-OaG5q6vJsk9-1" vertex="1">
          <mxGeometry x="655.58" y="100" width="30" height="40" as="geometry" />
        </mxCell>
        <mxCell id="-X61TCMz17pQ7-oCpkFn-7" value="Out&lt;br&gt;Topic" style="text;html=1;align=center;verticalAlign=middle;resizable=0;points=[];;autosize=1;" parent="1A0xML21-OaG5q6vJsk9-1" vertex="1">
          <mxGeometry x="650.58" y="105" width="40" height="30" as="geometry" />
        </mxCell>
        <mxCell id="-X61TCMz17pQ7-oCpkFn-8" style="edgeStyle=orthogonalEdgeStyle;rounded=0;orthogonalLoop=1;jettySize=auto;html=1;exitX=0.75;exitY=0;exitDx=0;exitDy=0;entryX=1;entryY=0.5;entryDx=0;entryDy=0;" parent="1A0xML21-OaG5q6vJsk9-1" source="-X61TCMz17pQ7-oCpkFn-21" target="-X61TCMz17pQ7-oCpkFn-6" edge="1">
          <mxGeometry relative="1" as="geometry">
            <mxPoint x="725.4250000000001" y="119.66750000000002" as="sourcePoint" />
          </mxGeometry>
        </mxCell>
        <mxCell id="-X61TCMz17pQ7-oCpkFn-9" style="edgeStyle=orthogonalEdgeStyle;rounded=0;orthogonalLoop=1;jettySize=auto;html=1;exitX=0.75;exitY=1;exitDx=0;exitDy=0;entryX=0.5;entryY=0;entryDx=0;entryDy=0;" parent="1A0xML21-OaG5q6vJsk9-1" source="-X61TCMz17pQ7-oCpkFn-10" target="-X61TCMz17pQ7-oCpkFn-12" edge="1">
          <mxGeometry relative="1" as="geometry" />
        </mxCell>
        <mxCell id="-X61TCMz17pQ7-oCpkFn-10" value="Listener" style="rounded=0;whiteSpace=wrap;html=1;fillColor=#ffe6cc;strokeColor=#d79b00;" parent="1A0xML21-OaG5q6vJsk9-1" vertex="1">
          <mxGeometry x="290.58" y="111" width="185" height="25" as="geometry" />
        </mxCell>
        <mxCell id="-X61TCMz17pQ7-oCpkFn-11" style="edgeStyle=orthogonalEdgeStyle;rounded=0;orthogonalLoop=1;jettySize=auto;html=1;entryX=0.25;entryY=0;entryDx=0;entryDy=0;" parent="1A0xML21-OaG5q6vJsk9-1" source="-X61TCMz17pQ7-oCpkFn-12" target="-X61TCMz17pQ7-oCpkFn-14" edge="1">
          <mxGeometry relative="1" as="geometry" />
        </mxCell>
        <mxCell id="-X61TCMz17pQ7-oCpkFn-12" value="Request&lt;br&gt;Handler" style="rounded=0;whiteSpace=wrap;html=1;fillColor=#ffe6cc;strokeColor=#d79b00;" parent="1A0xML21-OaG5q6vJsk9-1" vertex="1">
          <mxGeometry x="390.58" y="156.25" width="90" height="44" as="geometry" />
        </mxCell>
        <mxCell id="-X61TCMz17pQ7-oCpkFn-13" style="edgeStyle=orthogonalEdgeStyle;rounded=0;orthogonalLoop=1;jettySize=auto;html=1;exitX=0.25;exitY=1;exitDx=0;exitDy=0;startArrow=none;startFill=0;entryX=0.25;entryY=0;entryDx=0;entryDy=0;" parent="1A0xML21-OaG5q6vJsk9-1" source="-X61TCMz17pQ7-oCpkFn-14" target="-X61TCMz17pQ7-oCpkFn-21" edge="1">
          <mxGeometry relative="1" as="geometry">
            <mxPoint x="725.4250000000001" y="177.47250000000008" as="targetPoint" />
          </mxGeometry>
        </mxCell>
        <mxCell id="-X61TCMz17pQ7-oCpkFn-14" value="Governance Server&lt;br&gt;OMAS Client" style="rounded=0;whiteSpace=wrap;html=1;rotation=-90;fillColor=#e1d5e7;strokeColor=#9673a6;" parent="1A0xML21-OaG5q6vJsk9-1" vertex="1">
          <mxGeometry x="470.03" y="121.19999999999999" width="116.62" height="56.5" as="geometry" />
        </mxCell>
        <mxCell id="-X61TCMz17pQ7-oCpkFn-15" style="edgeStyle=orthogonalEdgeStyle;rounded=0;orthogonalLoop=1;jettySize=auto;html=1;exitX=0.5;exitY=1;exitDx=0;exitDy=0;" parent="1A0xML21-OaG5q6vJsk9-1" source="-X61TCMz17pQ7-oCpkFn-6" target="-X61TCMz17pQ7-oCpkFn-6" edge="1">
          <mxGeometry relative="1" as="geometry" />
        </mxCell>
        <mxCell id="-X61TCMz17pQ7-oCpkFn-16" value="REST API calls" style="text;html=1;align=center;verticalAlign=middle;resizable=0;points=[];;autosize=1;" parent="1A0xML21-OaG5q6vJsk9-1" vertex="1">
          <mxGeometry x="592.58" y="156.25" width="100" height="20" as="geometry" />
        </mxCell>
        <mxCell id="-X61TCMz17pQ7-oCpkFn-17" value="OutTopic&lt;br&gt;Events" style="text;html=1;align=center;verticalAlign=middle;resizable=0;points=[];;autosize=1;" parent="1A0xML21-OaG5q6vJsk9-1" vertex="1">
          <mxGeometry x="568.58" y="87.19999999999999" width="60" height="30" as="geometry" />
        </mxCell>
        <mxCell id="-X61TCMz17pQ7-oCpkFn-18" style="edgeStyle=orthogonalEdgeStyle;rounded=0;orthogonalLoop=1;jettySize=auto;html=1;exitX=0.25;exitY=1;exitDx=0;exitDy=0;entryX=0.5;entryY=0;entryDx=0;entryDy=0;startArrow=none;startFill=0;" parent="1A0xML21-OaG5q6vJsk9-1" source="-X61TCMz17pQ7-oCpkFn-10" target="-X61TCMz17pQ7-oCpkFn-20" edge="1">
          <mxGeometry relative="1" as="geometry">
            <mxPoint x="336.47999999999996" y="89" as="sourcePoint" />
          </mxGeometry>
        </mxCell>
        <mxCell id="-X61TCMz17pQ7-oCpkFn-19" style="edgeStyle=orthogonalEdgeStyle;rounded=0;orthogonalLoop=1;jettySize=auto;html=1;exitX=0.5;exitY=1;exitDx=0;exitDy=0;entryX=0.25;entryY=0;entryDx=0;entryDy=0;startArrow=none;startFill=0;" parent="1A0xML21-OaG5q6vJsk9-1" source="-X61TCMz17pQ7-oCpkFn-20" target="-X61TCMz17pQ7-oCpkFn-25" edge="1">
          <mxGeometry relative="1" as="geometry">
            <mxPoint x="265.47999999999996" y="171" as="targetPoint" />
          </mxGeometry>
        </mxCell>
        <mxCell id="-X61TCMz17pQ7-oCpkFn-20" value="Configuration&lt;br&gt;Handler" style="rounded=0;whiteSpace=wrap;html=1;fillColor=#ffe6cc;strokeColor=#d79b00;" parent="1A0xML21-OaG5q6vJsk9-1" vertex="1">
          <mxGeometry x="290.58" y="156.25" width="90" height="44" as="geometry" />
        </mxCell>
        <mxCell id="-X61TCMz17pQ7-oCpkFn-21" value="Governance Server&lt;br&gt;OMAS" style="rounded=0;whiteSpace=wrap;html=1;rotation=-90;fillColor=#e1d5e7;strokeColor=#9673a6;" parent="1A0xML21-OaG5q6vJsk9-1" vertex="1">
          <mxGeometry x="697.58" y="121.19999999999999" width="116.62" height="56.5" as="geometry" />
        </mxCell>
        <mxCell id="-X61TCMz17pQ7-oCpkFn-22" value="REST API" style="rounded=0;whiteSpace=wrap;html=1;rotation=-90;fillColor=#ffe6cc;strokeColor=#d79b00;" parent="1A0xML21-OaG5q6vJsk9-1" vertex="1">
          <mxGeometry x="180" y="115.67000000000002" width="106.05" height="60" as="geometry" />
        </mxCell>
        <mxCell id="-X61TCMz17pQ7-oCpkFn-23" value="Discovery Engine&lt;br&gt;OMAS" style="rounded=0;whiteSpace=wrap;html=1;rotation=-90;fillColor=#e1d5e7;strokeColor=#9673a6;" parent="1A0xML21-OaG5q6vJsk9-1" vertex="1">
          <mxGeometry x="694.9599999999999" y="367.42999999999995" width="117.66" height="55.14" as="geometry" />
        </mxCell>
        <mxCell id="-X61TCMz17pQ7-oCpkFn-24" value="" style="rounded=0;whiteSpace=wrap;html=1;verticalAlign=top;fillColor=#dae8fc;strokeColor=#6c8ebf;" parent="1A0xML21-OaG5q6vJsk9-1" vertex="1">
          <mxGeometry x="418.03" y="252" width="35.1" height="20" as="geometry" />
        </mxCell>
        <mxCell id="-X61TCMz17pQ7-oCpkFn-25" value="" style="rounded=0;whiteSpace=wrap;html=1;verticalAlign=top;fillColor=#dae8fc;strokeColor=#6c8ebf;" parent="1A0xML21-OaG5q6vJsk9-1" vertex="1">
          <mxGeometry x="311.58" y="251" width="220" height="174" as="geometry" />
        </mxCell>
        <mxCell id="-X61TCMz17pQ7-oCpkFn-26" style="edgeStyle=orthogonalEdgeStyle;rounded=0;orthogonalLoop=1;jettySize=auto;html=1;exitX=0.5;exitY=0;exitDx=0;exitDy=0;entryX=0.5;entryY=1;entryDx=0;entryDy=0;startArrow=classic;startFill=1;" parent="1A0xML21-OaG5q6vJsk9-1" target="-X61TCMz17pQ7-oCpkFn-0" edge="1">
          <mxGeometry relative="1" as="geometry">
            <Array as="points">
              <mxPoint x="233.58" y="230" />
              <mxPoint x="254.58" y="230" />
            </Array>
            <mxPoint x="233.02999999999997" y="242" as="sourcePoint" />
          </mxGeometry>
        </mxCell>
        <mxCell id="-X61TCMz17pQ7-oCpkFn-28" value="REST API calls" style="text;html=1;align=center;verticalAlign=middle;resizable=0;points=[];;autosize=1;" parent="1A0xML21-OaG5q6vJsk9-1" vertex="1">
          <mxGeometry x="586.6500000000001" y="371" width="100" height="20" as="geometry" />
        </mxCell>
        <mxCell id="-X61TCMz17pQ7-oCpkFn-29" value="Admin" style="rounded=0;whiteSpace=wrap;html=1;fillColor=#dae8fc;strokeColor=#6c8ebf;" parent="1A0xML21-OaG5q6vJsk9-1" vertex="1">
          <mxGeometry x="194.88000000000002" y="241" width="61.45" height="40" as="geometry" />
        </mxCell>
        <mxCell id="-X61TCMz17pQ7-oCpkFn-30" value="REST API" style="rounded=0;whiteSpace=wrap;html=1;rotation=-90;fillColor=#dae8fc;strokeColor=#6c8ebf;" parent="1A0xML21-OaG5q6vJsk9-1" vertex="1">
          <mxGeometry x="178.10000000000002" y="304" width="95" height="60" as="geometry" />
        </mxCell>
        <mxCell id="-X61TCMz17pQ7-oCpkFn-31" value="Asset&lt;br&gt;Analysis&lt;br&gt;Engine&lt;br&gt;Service" style="rounded=0;whiteSpace=wrap;html=1;verticalAlign=bottom;" parent="1A0xML21-OaG5q6vJsk9-1" vertex="1">
          <mxGeometry x="195.05" y="239" width="81" height="207" as="geometry" />
        </mxCell>
        <mxCell id="-X61TCMz17pQ7-oCpkFn-32" value="Admin" style="rounded=0;whiteSpace=wrap;html=1;fillColor=#dae8fc;strokeColor=#6c8ebf;" parent="1A0xML21-OaG5q6vJsk9-1" vertex="1">
          <mxGeometry x="204.88000000000002" y="247" width="61.45" height="40" as="geometry" />
        </mxCell>
        <mxCell id="-X61TCMz17pQ7-oCpkFn-33" value="REST API" style="rounded=0;whiteSpace=wrap;html=1;rotation=-90;fillColor=#dae8fc;strokeColor=#6c8ebf;" parent="1A0xML21-OaG5q6vJsk9-1" vertex="1">
          <mxGeometry x="194.05" y="308.05" width="83.1" height="60" as="geometry" />
        </mxCell>
        <mxCell id="-X61TCMz17pQ7-oCpkFn-34" value="" style="rounded=0;whiteSpace=wrap;html=1;verticalAlign=top;fillColor=#dae8fc;strokeColor=#6c8ebf;" parent="1A0xML21-OaG5q6vJsk9-1" vertex="1">
          <mxGeometry x="321.58" y="261" width="220" height="174" as="geometry" />
        </mxCell>
        <mxCell id="-X61TCMz17pQ7-oCpkFn-35" value="Discovery Engine Handler" style="rounded=0;whiteSpace=wrap;html=1;verticalAlign=top;fillColor=#dae8fc;strokeColor=#6c8ebf;" parent="1A0xML21-OaG5q6vJsk9-1" vertex="1">
          <mxGeometry x="331.58" y="271" width="220" height="174" as="geometry" />
        </mxCell>
        <mxCell id="-X61TCMz17pQ7-oCpkFn-36" value="Governance Services Map" style="rounded=0;whiteSpace=wrap;html=1;fillColor=#dae8fc;strokeColor=#6c8ebf;shadow=1;" parent="1A0xML21-OaG5q6vJsk9-1" vertex="1">
          <mxGeometry x="341" y="304" width="200" height="40" as="geometry" />
        </mxCell>
        <mxCell id="-X61TCMz17pQ7-oCpkFn-37" value="Discovery&lt;br&gt;Engine&lt;br&gt;OMAS&lt;br&gt;Client" style="rounded=0;whiteSpace=wrap;html=1;rotation=0;fillColor=#e1d5e7;strokeColor=#9673a6;" parent="1A0xML21-OaG5q6vJsk9-1" vertex="1">
          <mxGeometry x="470" y="355" width="70" height="80" as="geometry" />
        </mxCell>
        <mxCell id="-X61TCMz17pQ7-oCpkFn-38" value="Governance&lt;br&gt;Service&lt;br&gt;Handler" style="rounded=0;whiteSpace=wrap;html=1;fillColor=#dae8fc;strokeColor=#6c8ebf;shadow=1;" parent="1A0xML21-OaG5q6vJsk9-1" vertex="1">
          <mxGeometry x="343.58" y="355" width="95.95" height="60" as="geometry" />
        </mxCell>
        <mxCell id="-X61TCMz17pQ7-oCpkFn-39" style="edgeStyle=orthogonalEdgeStyle;rounded=0;orthogonalLoop=1;jettySize=auto;html=1;exitX=0.5;exitY=1;exitDx=0;exitDy=0;entryX=0.75;entryY=0;entryDx=0;entryDy=0;" parent="1A0xML21-OaG5q6vJsk9-1" source="-X61TCMz17pQ7-oCpkFn-12" target="-X61TCMz17pQ7-oCpkFn-34" edge="1">
          <mxGeometry relative="1" as="geometry" />
        </mxCell>
        <mxCell id="-X61TCMz17pQ7-oCpkFn-40" style="edgeStyle=orthogonalEdgeStyle;rounded=0;orthogonalLoop=1;jettySize=auto;html=1;" parent="1A0xML21-OaG5q6vJsk9-1" source="-X61TCMz17pQ7-oCpkFn-31" target="-X61TCMz17pQ7-oCpkFn-35" edge="1">
          <mxGeometry relative="1" as="geometry" />
        </mxCell>
        <mxCell id="-X61TCMz17pQ7-oCpkFn-41" value="Governance&lt;br&gt;Service&lt;br&gt;Handler" style="rounded=0;whiteSpace=wrap;html=1;fillColor=#dae8fc;strokeColor=#6c8ebf;shadow=1;" parent="1A0xML21-OaG5q6vJsk9-1" vertex="1">
          <mxGeometry x="353.58" y="365" width="95.95" height="60" as="geometry" />
        </mxCell>
        <mxCell id="-X61TCMz17pQ7-oCpkFn-42" value="Discovery&lt;br&gt;Service&lt;br&gt;Handler" style="rounded=0;whiteSpace=wrap;html=1;fillColor=#dae8fc;strokeColor=#6c8ebf;shadow=1;" parent="1A0xML21-OaG5q6vJsk9-1" vertex="1">
          <mxGeometry x="363.58" y="375" width="95.95" height="60" as="geometry" />
        </mxCell>
        <mxCell id="-X61TCMz17pQ7-oCpkFn-43" style="edgeStyle=orthogonalEdgeStyle;rounded=0;orthogonalLoop=1;jettySize=auto;html=1;entryX=0.5;entryY=0;entryDx=0;entryDy=0;" parent="1A0xML21-OaG5q6vJsk9-1" source="-X61TCMz17pQ7-oCpkFn-37" target="-X61TCMz17pQ7-oCpkFn-23" edge="1">
          <mxGeometry relative="1" as="geometry" />
        </mxCell>
        <mxCell id="-X61TCMz17pQ7-oCpkFn-44" value="Audit Log (Repository Services)" style="rounded=0;whiteSpace=wrap;html=1;fillColor=#d5e8d4;strokeColor=#82b366;" parent="1A0xML21-OaG5q6vJsk9-1" vertex="1">
          <mxGeometry x="189.08" y="455" width="370" height="60" as="geometry" />
        </mxCell>
        <mxCell id="-X61TCMz17pQ7-oCpkFn-45" value="" style="rounded=0;whiteSpace=wrap;html=1;verticalAlign=top;fillColor=#dae8fc;strokeColor=#6c8ebf;" parent="1A0xML21-OaG5q6vJsk9-1" vertex="1">
          <mxGeometry x="240.06" y="715" width="36" height="20" as="geometry" />
        </mxCell>
        <mxCell id="-X61TCMz17pQ7-oCpkFn-46" value="Engine Host OMAG Server" style="rounded=0;whiteSpace=wrap;html=1;verticalAlign=top;fillColor=#fff2cc;strokeColor=#d6b656;" parent="1A0xML21-OaG5q6vJsk9-1" vertex="1">
          <mxGeometry x="185.06" y="563" width="385" height="477" as="geometry" />
        </mxCell>
        <mxCell id="-X61TCMz17pQ7-oCpkFn-47" value="Engine Host Services" style="rounded=0;whiteSpace=wrap;html=1;verticalAlign=top;" parent="1A0xML21-OaG5q6vJsk9-1" vertex="1">
          <mxGeometry x="195.06" y="600.5" width="370" height="134.5" as="geometry" />
        </mxCell>
        <mxCell id="-X61TCMz17pQ7-oCpkFn-48" value="Metadata Access Server" style="rounded=0;whiteSpace=wrap;html=1;verticalAlign=top;" parent="1A0xML21-OaG5q6vJsk9-1" vertex="1">
          <mxGeometry x="726.0600000000001" y="560" width="170" height="440" as="geometry" />
        </mxCell>
        <mxCell id="-X61TCMz17pQ7-oCpkFn-49" style="edgeStyle=orthogonalEdgeStyle;rounded=0;orthogonalLoop=1;jettySize=auto;html=1;" parent="1A0xML21-OaG5q6vJsk9-1" edge="1">
          <mxGeometry relative="1" as="geometry">
            <mxPoint x="505.05999999999995" y="644" as="sourcePoint" />
            <mxPoint x="479.05999999999995" y="643.5" as="targetPoint" />
          </mxGeometry>
        </mxCell>
        <mxCell id="-X61TCMz17pQ7-oCpkFn-50" style="edgeStyle=orthogonalEdgeStyle;rounded=0;orthogonalLoop=1;jettySize=auto;html=1;entryX=0.75;entryY=1;entryDx=0;entryDy=0;" parent="1A0xML21-OaG5q6vJsk9-1" source="-X61TCMz17pQ7-oCpkFn-51" target="-X61TCMz17pQ7-oCpkFn-59" edge="1">
          <mxGeometry relative="1" as="geometry" />
        </mxCell>
        <mxCell id="-X61TCMz17pQ7-oCpkFn-51" value="" style="shape=partialRectangle;whiteSpace=wrap;html=1;bottom=1;right=1;left=1;top=0;fillColor=none;routingCenterX=-0.5;" parent="1A0xML21-OaG5q6vJsk9-1" vertex="1">
          <mxGeometry x="659.0600000000001" y="620" width="30" height="40" as="geometry" />
        </mxCell>
        <mxCell id="-X61TCMz17pQ7-oCpkFn-52" value="Out&lt;br&gt;Topic" style="text;html=1;align=center;verticalAlign=middle;resizable=0;points=[];;autosize=1;" parent="1A0xML21-OaG5q6vJsk9-1" vertex="1">
          <mxGeometry x="654.0600000000001" y="625" width="40" height="30" as="geometry" />
        </mxCell>
        <mxCell id="-X61TCMz17pQ7-oCpkFn-53" style="edgeStyle=orthogonalEdgeStyle;rounded=0;orthogonalLoop=1;jettySize=auto;html=1;exitX=0.75;exitY=0;exitDx=0;exitDy=0;entryX=1;entryY=0.5;entryDx=0;entryDy=0;" parent="1A0xML21-OaG5q6vJsk9-1" source="-X61TCMz17pQ7-oCpkFn-66" target="-X61TCMz17pQ7-oCpkFn-51" edge="1">
          <mxGeometry relative="1" as="geometry">
            <mxPoint x="728.9050000000001" y="639.6675" as="sourcePoint" />
          </mxGeometry>
        </mxCell>
        <mxCell id="-X61TCMz17pQ7-oCpkFn-56" style="edgeStyle=orthogonalEdgeStyle;rounded=0;orthogonalLoop=1;jettySize=auto;html=1;entryX=0.25;entryY=0;entryDx=0;entryDy=0;" parent="1A0xML21-OaG5q6vJsk9-1" target="-X61TCMz17pQ7-oCpkFn-59" edge="1">
          <mxGeometry relative="1" as="geometry">
            <mxPoint x="484.05999999999995" y="698.3000000000002" as="sourcePoint" />
          </mxGeometry>
        </mxCell>
        <mxCell id="-X61TCMz17pQ7-oCpkFn-58" style="edgeStyle=orthogonalEdgeStyle;rounded=0;orthogonalLoop=1;jettySize=auto;html=1;exitX=0.25;exitY=1;exitDx=0;exitDy=0;startArrow=none;startFill=0;entryX=0.25;entryY=0;entryDx=0;entryDy=0;" parent="1A0xML21-OaG5q6vJsk9-1" source="-X61TCMz17pQ7-oCpkFn-59" target="-X61TCMz17pQ7-oCpkFn-66" edge="1">
          <mxGeometry relative="1" as="geometry">
            <mxPoint x="728.9050000000001" y="697.4725000000001" as="targetPoint" />
          </mxGeometry>
        </mxCell>
        <mxCell id="-X61TCMz17pQ7-oCpkFn-59" value="Governance Server&lt;br&gt;OMAS Client" style="rounded=0;whiteSpace=wrap;html=1;rotation=-90;fillColor=#e1d5e7;strokeColor=#9673a6;" parent="1A0xML21-OaG5q6vJsk9-1" vertex="1">
          <mxGeometry x="473.51" y="641.2" width="116.62" height="56.5" as="geometry" />
        </mxCell>
        <mxCell id="-X61TCMz17pQ7-oCpkFn-60" style="edgeStyle=orthogonalEdgeStyle;rounded=0;orthogonalLoop=1;jettySize=auto;html=1;exitX=0.5;exitY=1;exitDx=0;exitDy=0;" parent="1A0xML21-OaG5q6vJsk9-1" source="-X61TCMz17pQ7-oCpkFn-51" target="-X61TCMz17pQ7-oCpkFn-51" edge="1">
          <mxGeometry relative="1" as="geometry" />
        </mxCell>
        <mxCell id="-X61TCMz17pQ7-oCpkFn-61" value="REST API calls" style="text;html=1;align=center;verticalAlign=middle;resizable=0;points=[];;autosize=1;" parent="1A0xML21-OaG5q6vJsk9-1" vertex="1">
          <mxGeometry x="596.0600000000001" y="676.25" width="100" height="20" as="geometry" />
        </mxCell>
        <mxCell id="-X61TCMz17pQ7-oCpkFn-62" value="OutTopic&lt;br&gt;Events" style="text;html=1;align=center;verticalAlign=middle;resizable=0;points=[];;autosize=1;" parent="1A0xML21-OaG5q6vJsk9-1" vertex="1">
          <mxGeometry x="572.0600000000001" y="607.2" width="60" height="30" as="geometry" />
        </mxCell>
        <mxCell id="-X61TCMz17pQ7-oCpkFn-66" value="Governance Server&lt;br&gt;OMAS" style="rounded=0;whiteSpace=wrap;html=1;rotation=-90;fillColor=#e1d5e7;strokeColor=#9673a6;" parent="1A0xML21-OaG5q6vJsk9-1" vertex="1">
          <mxGeometry x="701.0600000000001" y="641.2" width="116.62" height="56.5" as="geometry" />
        </mxCell>
        <mxCell id="-X61TCMz17pQ7-oCpkFn-67" value="REST API" style="rounded=0;whiteSpace=wrap;html=1;rotation=-90;fillColor=#ffe6cc;strokeColor=#d79b00;" parent="1A0xML21-OaG5q6vJsk9-1" vertex="1">
          <mxGeometry x="183.48" y="635.6700000000001" width="106.05" height="60" as="geometry" />
        </mxCell>
        <mxCell id="-X61TCMz17pQ7-oCpkFn-70" value="" style="rounded=0;whiteSpace=wrap;html=1;verticalAlign=top;fillColor=#dae8fc;strokeColor=#6c8ebf;" parent="1A0xML21-OaG5q6vJsk9-1" vertex="1">
          <mxGeometry x="315.06" y="771" width="220" height="174" as="geometry" />
        </mxCell>
        <mxCell id="-X61TCMz17pQ7-oCpkFn-72" value="REST API calls" style="text;html=1;align=center;verticalAlign=middle;resizable=0;points=[];;autosize=1;" parent="1A0xML21-OaG5q6vJsk9-1" vertex="1">
          <mxGeometry x="592.5500000000001" y="912.65" width="100" height="20" as="geometry" />
        </mxCell>
        <mxCell id="-X61TCMz17pQ7-oCpkFn-73" value="Admin" style="rounded=0;whiteSpace=wrap;html=1;fillColor=#dae8fc;strokeColor=#6c8ebf;" parent="1A0xML21-OaG5q6vJsk9-1" vertex="1">
          <mxGeometry x="198.36" y="761" width="61.45" height="40" as="geometry" />
        </mxCell>
        <mxCell id="-X61TCMz17pQ7-oCpkFn-74" value="REST API" style="rounded=0;whiteSpace=wrap;html=1;rotation=-90;fillColor=#dae8fc;strokeColor=#6c8ebf;" parent="1A0xML21-OaG5q6vJsk9-1" vertex="1">
          <mxGeometry x="181.58" y="824" width="95" height="60" as="geometry" />
        </mxCell>
        <mxCell id="-X61TCMz17pQ7-oCpkFn-75" value="Governance&lt;br&gt;Action&lt;br&gt;Engine&lt;br&gt;Service" style="rounded=0;whiteSpace=wrap;html=1;verticalAlign=bottom;" parent="1A0xML21-OaG5q6vJsk9-1" vertex="1">
          <mxGeometry x="198.53" y="759" width="81" height="207" as="geometry" />
        </mxCell>
        <mxCell id="-X61TCMz17pQ7-oCpkFn-76" value="Admin" style="rounded=0;whiteSpace=wrap;html=1;fillColor=#dae8fc;strokeColor=#6c8ebf;" parent="1A0xML21-OaG5q6vJsk9-1" vertex="1">
          <mxGeometry x="208.36" y="767" width="61.45" height="40" as="geometry" />
        </mxCell>
        <mxCell id="-X61TCMz17pQ7-oCpkFn-77" value="REST API" style="rounded=0;whiteSpace=wrap;html=1;rotation=-90;fillColor=#dae8fc;strokeColor=#6c8ebf;" parent="1A0xML21-OaG5q6vJsk9-1" vertex="1">
          <mxGeometry x="197.53" y="828.05" width="83.1" height="60" as="geometry" />
        </mxCell>
        <mxCell id="-X61TCMz17pQ7-oCpkFn-78" value="" style="rounded=0;whiteSpace=wrap;html=1;verticalAlign=top;fillColor=#dae8fc;strokeColor=#6c8ebf;" parent="1A0xML21-OaG5q6vJsk9-1" vertex="1">
          <mxGeometry x="325.06" y="781" width="220" height="174" as="geometry" />
        </mxCell>
        <mxCell id="-X61TCMz17pQ7-oCpkFn-79" value="Governance Action Engine Handler" style="rounded=0;whiteSpace=wrap;html=1;verticalAlign=top;fillColor=#dae8fc;strokeColor=#6c8ebf;" parent="1A0xML21-OaG5q6vJsk9-1" vertex="1">
          <mxGeometry x="335.06" y="791" width="220" height="174" as="geometry" />
        </mxCell>
        <mxCell id="-X61TCMz17pQ7-oCpkFn-80" value="Governance Services Map" style="rounded=0;whiteSpace=wrap;html=1;fillColor=#dae8fc;strokeColor=#6c8ebf;shadow=1;" parent="1A0xML21-OaG5q6vJsk9-1" vertex="1">
          <mxGeometry x="344.48" y="824" width="200" height="40" as="geometry" />
        </mxCell>
        <mxCell id="-X61TCMz17pQ7-oCpkFn-81" value="Governance&lt;br&gt;Engine&lt;br&gt;OMAS&lt;br&gt;Client" style="rounded=0;whiteSpace=wrap;html=1;rotation=0;fillColor=#e1d5e7;strokeColor=#9673a6;" parent="1A0xML21-OaG5q6vJsk9-1" vertex="1">
          <mxGeometry x="473.48" y="875" width="70" height="80" as="geometry" />
        </mxCell>
        <mxCell id="-X61TCMz17pQ7-oCpkFn-82" value="Governance&lt;br&gt;Service&lt;br&gt;Handler" style="rounded=0;whiteSpace=wrap;html=1;fillColor=#dae8fc;strokeColor=#6c8ebf;shadow=1;" parent="1A0xML21-OaG5q6vJsk9-1" vertex="1">
          <mxGeometry x="347.06" y="875" width="95.95" height="60" as="geometry" />
        </mxCell>
        <mxCell id="-X61TCMz17pQ7-oCpkFn-84" style="edgeStyle=orthogonalEdgeStyle;rounded=0;orthogonalLoop=1;jettySize=auto;html=1;" parent="1A0xML21-OaG5q6vJsk9-1" source="-X61TCMz17pQ7-oCpkFn-75" target="-X61TCMz17pQ7-oCpkFn-79" edge="1">
          <mxGeometry relative="1" as="geometry" />
        </mxCell>
        <mxCell id="-X61TCMz17pQ7-oCpkFn-85" value="Governance&lt;br&gt;Service&lt;br&gt;Handler" style="rounded=0;whiteSpace=wrap;html=1;fillColor=#dae8fc;strokeColor=#6c8ebf;shadow=1;" parent="1A0xML21-OaG5q6vJsk9-1" vertex="1">
          <mxGeometry x="357.06" y="885" width="95.95" height="60" as="geometry" />
        </mxCell>
        <mxCell id="-X61TCMz17pQ7-oCpkFn-86" value="Governance&lt;br&gt;Action Service&lt;br&gt;Handler" style="rounded=0;whiteSpace=wrap;html=1;fillColor=#dae8fc;strokeColor=#6c8ebf;shadow=1;" parent="1A0xML21-OaG5q6vJsk9-1" vertex="1">
          <mxGeometry x="367.06" y="895" width="95.95" height="60" as="geometry" />
        </mxCell>
        <mxCell id="-X61TCMz17pQ7-oCpkFn-87" style="edgeStyle=orthogonalEdgeStyle;rounded=0;orthogonalLoop=1;jettySize=auto;html=1;entryX=0.25;entryY=0;entryDx=0;entryDy=0;exitX=1;exitY=0.75;exitDx=0;exitDy=0;" parent="1A0xML21-OaG5q6vJsk9-1" source="-X61TCMz17pQ7-oCpkFn-81" target="-X61TCMz17pQ7-oCpkFn-89" edge="1">
          <mxGeometry relative="1" as="geometry">
            <mxPoint x="729.6999999999998" y="915" as="targetPoint" />
          </mxGeometry>
        </mxCell>
        <mxCell id="-X61TCMz17pQ7-oCpkFn-88" value="Audit Log (Repository Services)" style="rounded=0;whiteSpace=wrap;html=1;fillColor=#d5e8d4;strokeColor=#82b366;" parent="1A0xML21-OaG5q6vJsk9-1" vertex="1">
          <mxGeometry x="192.56" y="975" width="370" height="60" as="geometry" />
        </mxCell>
        <mxCell id="-X61TCMz17pQ7-oCpkFn-89" value="Governance Engine&lt;br&gt;OMAS" style="rounded=0;whiteSpace=wrap;html=1;rotation=-90;fillColor=#e1d5e7;strokeColor=#9673a6;" parent="1A0xML21-OaG5q6vJsk9-1" vertex="1">
          <mxGeometry x="697.77" y="876.15" width="123.22" height="56.5" as="geometry" />
        </mxCell>
        <mxCell id="E2OswdD5wqAT8Viw2gwZ-44" value="" style="rounded=0;whiteSpace=wrap;html=1;verticalAlign=top;fillColor=#dae8fc;strokeColor=#6c8ebf;" parent="1A0xML21-OaG5q6vJsk9-1" vertex="1">
          <mxGeometry x="242.48000000000002" y="1237" width="36" height="20" as="geometry" />
        </mxCell>
        <mxCell id="E2OswdD5wqAT8Viw2gwZ-45" value="Engine Host OMAG Server" style="rounded=0;whiteSpace=wrap;html=1;verticalAlign=top;fillColor=#fff2cc;strokeColor=#d6b656;" parent="1A0xML21-OaG5q6vJsk9-1" vertex="1">
          <mxGeometry x="187.48000000000002" y="1093" width="385" height="477" as="geometry" />
        </mxCell>
        <mxCell id="7uPxRK-b67YiJ5fW5JEr-0" style="edgeStyle=orthogonalEdgeStyle;rounded=0;orthogonalLoop=1;jettySize=auto;html=1;exitX=0.25;exitY=1;exitDx=0;exitDy=0;entryX=0.5;entryY=0;entryDx=0;entryDy=0;startArrow=classic;startFill=1;" parent="1A0xML21-OaG5q6vJsk9-1" source="E2OswdD5wqAT8Viw2gwZ-46" target="E2OswdD5wqAT8Viw2gwZ-74" edge="1">
          <mxGeometry relative="1" as="geometry" />
        </mxCell>
        <mxCell id="E2OswdD5wqAT8Viw2gwZ-46" value="Engine Host Services" style="rounded=0;whiteSpace=wrap;html=1;verticalAlign=top;" parent="1A0xML21-OaG5q6vJsk9-1" vertex="1">
          <mxGeometry x="197.48000000000002" y="1122.5" width="370" height="134.5" as="geometry" />
        </mxCell>
        <mxCell id="E2OswdD5wqAT8Viw2gwZ-47" value="Metadata Access Server" style="rounded=0;whiteSpace=wrap;html=1;verticalAlign=top;" parent="1A0xML21-OaG5q6vJsk9-1" vertex="1">
          <mxGeometry x="728.48" y="1090" width="170" height="440" as="geometry" />
        </mxCell>
        <mxCell id="E2OswdD5wqAT8Viw2gwZ-48" style="edgeStyle=orthogonalEdgeStyle;rounded=0;orthogonalLoop=1;jettySize=auto;html=1;" parent="1A0xML21-OaG5q6vJsk9-1" target="E2OswdD5wqAT8Viw2gwZ-54" edge="1">
          <mxGeometry relative="1" as="geometry">
            <mxPoint x="507.4799999999999" y="1166" as="sourcePoint" />
          </mxGeometry>
        </mxCell>
        <mxCell id="E2OswdD5wqAT8Viw2gwZ-49" style="edgeStyle=orthogonalEdgeStyle;rounded=0;orthogonalLoop=1;jettySize=auto;html=1;entryX=0.75;entryY=1;entryDx=0;entryDy=0;" parent="1A0xML21-OaG5q6vJsk9-1" source="E2OswdD5wqAT8Viw2gwZ-50" target="E2OswdD5wqAT8Viw2gwZ-58" edge="1">
          <mxGeometry relative="1" as="geometry" />
        </mxCell>
        <mxCell id="E2OswdD5wqAT8Viw2gwZ-50" value="" style="shape=partialRectangle;whiteSpace=wrap;html=1;bottom=1;right=1;left=1;top=0;fillColor=none;routingCenterX=-0.5;" parent="1A0xML21-OaG5q6vJsk9-1" vertex="1">
          <mxGeometry x="661.48" y="1142" width="30" height="40" as="geometry" />
        </mxCell>
        <mxCell id="E2OswdD5wqAT8Viw2gwZ-51" value="Out&lt;br&gt;Topic" style="text;html=1;align=center;verticalAlign=middle;resizable=0;points=[];;autosize=1;" parent="1A0xML21-OaG5q6vJsk9-1" vertex="1">
          <mxGeometry x="656.48" y="1147" width="40" height="30" as="geometry" />
        </mxCell>
        <mxCell id="E2OswdD5wqAT8Viw2gwZ-52" style="edgeStyle=orthogonalEdgeStyle;rounded=0;orthogonalLoop=1;jettySize=auto;html=1;exitX=0.75;exitY=0;exitDx=0;exitDy=0;entryX=1;entryY=0.5;entryDx=0;entryDy=0;" parent="1A0xML21-OaG5q6vJsk9-1" source="E2OswdD5wqAT8Viw2gwZ-65" target="E2OswdD5wqAT8Viw2gwZ-50" edge="1">
          <mxGeometry relative="1" as="geometry">
            <mxPoint x="731.325" y="1161.6675" as="sourcePoint" />
          </mxGeometry>
        </mxCell>
        <mxCell id="E2OswdD5wqAT8Viw2gwZ-53" style="edgeStyle=orthogonalEdgeStyle;rounded=0;orthogonalLoop=1;jettySize=auto;html=1;exitX=0.75;exitY=1;exitDx=0;exitDy=0;entryX=0.5;entryY=0;entryDx=0;entryDy=0;" parent="1A0xML21-OaG5q6vJsk9-1" source="E2OswdD5wqAT8Viw2gwZ-54" target="E2OswdD5wqAT8Viw2gwZ-56" edge="1">
          <mxGeometry relative="1" as="geometry" />
        </mxCell>
        <mxCell id="E2OswdD5wqAT8Viw2gwZ-54" value="Listener" style="rounded=0;whiteSpace=wrap;html=1;fillColor=#ffe6cc;strokeColor=#d79b00;" parent="1A0xML21-OaG5q6vJsk9-1" vertex="1">
          <mxGeometry x="296.47999999999996" y="1153" width="185" height="25" as="geometry" />
        </mxCell>
        <mxCell id="E2OswdD5wqAT8Viw2gwZ-55" style="edgeStyle=orthogonalEdgeStyle;rounded=0;orthogonalLoop=1;jettySize=auto;html=1;entryX=0.25;entryY=0;entryDx=0;entryDy=0;" parent="1A0xML21-OaG5q6vJsk9-1" source="E2OswdD5wqAT8Viw2gwZ-56" target="E2OswdD5wqAT8Viw2gwZ-58" edge="1">
          <mxGeometry relative="1" as="geometry" />
        </mxCell>
        <mxCell id="E2OswdD5wqAT8Viw2gwZ-56" value="Request&lt;br&gt;Handler" style="rounded=0;whiteSpace=wrap;html=1;fillColor=#ffe6cc;strokeColor=#d79b00;" parent="1A0xML21-OaG5q6vJsk9-1" vertex="1">
          <mxGeometry x="396.47999999999996" y="1198.25" width="90" height="44" as="geometry" />
        </mxCell>
        <mxCell id="E2OswdD5wqAT8Viw2gwZ-57" style="edgeStyle=orthogonalEdgeStyle;rounded=0;orthogonalLoop=1;jettySize=auto;html=1;exitX=0.25;exitY=1;exitDx=0;exitDy=0;startArrow=none;startFill=0;entryX=0.25;entryY=0;entryDx=0;entryDy=0;" parent="1A0xML21-OaG5q6vJsk9-1" source="E2OswdD5wqAT8Viw2gwZ-58" target="E2OswdD5wqAT8Viw2gwZ-65" edge="1">
          <mxGeometry relative="1" as="geometry">
            <mxPoint x="731.325" y="1219.4725" as="targetPoint" />
          </mxGeometry>
        </mxCell>
        <mxCell id="E2OswdD5wqAT8Viw2gwZ-58" value="Governance Server&lt;br&gt;OMAS Client" style="rounded=0;whiteSpace=wrap;html=1;rotation=-90;fillColor=#e1d5e7;strokeColor=#9673a6;" parent="1A0xML21-OaG5q6vJsk9-1" vertex="1">
          <mxGeometry x="475.92999999999995" y="1163.2" width="116.62" height="56.5" as="geometry" />
        </mxCell>
        <mxCell id="E2OswdD5wqAT8Viw2gwZ-59" style="edgeStyle=orthogonalEdgeStyle;rounded=0;orthogonalLoop=1;jettySize=auto;html=1;exitX=0.5;exitY=1;exitDx=0;exitDy=0;" parent="1A0xML21-OaG5q6vJsk9-1" source="E2OswdD5wqAT8Viw2gwZ-50" target="E2OswdD5wqAT8Viw2gwZ-50" edge="1">
          <mxGeometry relative="1" as="geometry" />
        </mxCell>
        <mxCell id="E2OswdD5wqAT8Viw2gwZ-60" value="REST API calls" style="text;html=1;align=center;verticalAlign=middle;resizable=0;points=[];;autosize=1;" parent="1A0xML21-OaG5q6vJsk9-1" vertex="1">
          <mxGeometry x="598.48" y="1198.25" width="100" height="20" as="geometry" />
        </mxCell>
        <mxCell id="E2OswdD5wqAT8Viw2gwZ-61" value="OutTopic&lt;br&gt;Events" style="text;html=1;align=center;verticalAlign=middle;resizable=0;points=[];;autosize=1;" parent="1A0xML21-OaG5q6vJsk9-1" vertex="1">
          <mxGeometry x="574.48" y="1129.2" width="60" height="30" as="geometry" />
        </mxCell>
        <mxCell id="E2OswdD5wqAT8Viw2gwZ-62" style="edgeStyle=orthogonalEdgeStyle;rounded=0;orthogonalLoop=1;jettySize=auto;html=1;exitX=0.25;exitY=1;exitDx=0;exitDy=0;entryX=0.5;entryY=0;entryDx=0;entryDy=0;startArrow=none;startFill=0;" parent="1A0xML21-OaG5q6vJsk9-1" source="E2OswdD5wqAT8Viw2gwZ-54" target="E2OswdD5wqAT8Viw2gwZ-64" edge="1">
          <mxGeometry relative="1" as="geometry">
            <mxPoint x="342.37999999999994" y="1131" as="sourcePoint" />
          </mxGeometry>
        </mxCell>
        <mxCell id="E2OswdD5wqAT8Viw2gwZ-63" style="edgeStyle=orthogonalEdgeStyle;rounded=0;orthogonalLoop=1;jettySize=auto;html=1;exitX=0.5;exitY=1;exitDx=0;exitDy=0;entryX=0.25;entryY=0;entryDx=0;entryDy=0;startArrow=none;startFill=0;" parent="1A0xML21-OaG5q6vJsk9-1" source="E2OswdD5wqAT8Viw2gwZ-64" target="E2OswdD5wqAT8Viw2gwZ-69" edge="1">
          <mxGeometry relative="1" as="geometry">
            <mxPoint x="271.37999999999994" y="1221" as="targetPoint" />
          </mxGeometry>
        </mxCell>
        <mxCell id="E2OswdD5wqAT8Viw2gwZ-64" value="Configuration&lt;br&gt;Handler" style="rounded=0;whiteSpace=wrap;html=1;fillColor=#ffe6cc;strokeColor=#d79b00;" parent="1A0xML21-OaG5q6vJsk9-1" vertex="1">
          <mxGeometry x="296.47999999999996" y="1198.25" width="90" height="44" as="geometry" />
        </mxCell>
        <mxCell id="E2OswdD5wqAT8Viw2gwZ-65" value="Governance Server&lt;br&gt;OMAS" style="rounded=0;whiteSpace=wrap;html=1;rotation=-90;fillColor=#e1d5e7;strokeColor=#9673a6;" parent="1A0xML21-OaG5q6vJsk9-1" vertex="1">
          <mxGeometry x="703.48" y="1163.2" width="116.62" height="56.5" as="geometry" />
        </mxCell>
        <mxCell id="E2OswdD5wqAT8Viw2gwZ-66" value="REST API" style="rounded=0;whiteSpace=wrap;html=1;rotation=-90;fillColor=#ffe6cc;strokeColor=#d79b00;" parent="1A0xML21-OaG5q6vJsk9-1" vertex="1">
          <mxGeometry x="185.9" y="1157.67" width="106.05" height="60" as="geometry" />
        </mxCell>
        <mxCell id="E2OswdD5wqAT8Viw2gwZ-67" value="Open Metadata Repository Services (OMRS)" style="rounded=0;whiteSpace=wrap;html=1;rotation=-90;fillColor=#e1d5e7;strokeColor=#9673a6;" parent="1A0xML21-OaG5q6vJsk9-1" vertex="1">
          <mxGeometry x="701.06" y="1407.4299999999998" width="117.66" height="55.14" as="geometry" />
        </mxCell>
        <mxCell id="E2OswdD5wqAT8Viw2gwZ-68" value="" style="rounded=0;whiteSpace=wrap;html=1;verticalAlign=top;fillColor=#dae8fc;strokeColor=#6c8ebf;" parent="1A0xML21-OaG5q6vJsk9-1" vertex="1">
          <mxGeometry x="423.92999999999995" y="1302" width="35.1" height="20" as="geometry" />
        </mxCell>
        <mxCell id="E2OswdD5wqAT8Viw2gwZ-69" value="" style="rounded=0;whiteSpace=wrap;html=1;verticalAlign=top;fillColor=#dae8fc;strokeColor=#6c8ebf;" parent="1A0xML21-OaG5q6vJsk9-1" vertex="1">
          <mxGeometry x="317.47999999999996" y="1301" width="220" height="174" as="geometry" />
        </mxCell>
        <mxCell id="E2OswdD5wqAT8Viw2gwZ-71" value="REST API calls" style="text;html=1;align=center;verticalAlign=middle;resizable=0;points=[];;autosize=1;" parent="1A0xML21-OaG5q6vJsk9-1" vertex="1">
          <mxGeometry x="586.65" y="1475" width="100" height="20" as="geometry" />
        </mxCell>
        <mxCell id="E2OswdD5wqAT8Viw2gwZ-72" value="Admin" style="rounded=0;whiteSpace=wrap;html=1;fillColor=#dae8fc;strokeColor=#6c8ebf;" parent="1A0xML21-OaG5q6vJsk9-1" vertex="1">
          <mxGeometry x="200.78000000000003" y="1291" width="61.45" height="40" as="geometry" />
        </mxCell>
        <mxCell id="E2OswdD5wqAT8Viw2gwZ-73" value="REST API" style="rounded=0;whiteSpace=wrap;html=1;rotation=-90;fillColor=#dae8fc;strokeColor=#6c8ebf;" parent="1A0xML21-OaG5q6vJsk9-1" vertex="1">
          <mxGeometry x="184.00000000000003" y="1354" width="95" height="60" as="geometry" />
        </mxCell>
        <mxCell id="E2OswdD5wqAT8Viw2gwZ-74" value="Repository&lt;br&gt;Governance&lt;br&gt;Engine&lt;br&gt;Service" style="rounded=0;whiteSpace=wrap;html=1;verticalAlign=bottom;" parent="1A0xML21-OaG5q6vJsk9-1" vertex="1">
          <mxGeometry x="200.95000000000002" y="1289" width="81" height="207" as="geometry" />
        </mxCell>
        <mxCell id="E2OswdD5wqAT8Viw2gwZ-75" value="Admin" style="rounded=0;whiteSpace=wrap;html=1;fillColor=#dae8fc;strokeColor=#6c8ebf;" parent="1A0xML21-OaG5q6vJsk9-1" vertex="1">
          <mxGeometry x="210.78000000000003" y="1297" width="61.45" height="40" as="geometry" />
        </mxCell>
        <mxCell id="E2OswdD5wqAT8Viw2gwZ-76" value="REST API" style="rounded=0;whiteSpace=wrap;html=1;rotation=-90;fillColor=#dae8fc;strokeColor=#6c8ebf;" parent="1A0xML21-OaG5q6vJsk9-1" vertex="1">
          <mxGeometry x="199.95000000000002" y="1358.05" width="83.1" height="60" as="geometry" />
        </mxCell>
        <mxCell id="E2OswdD5wqAT8Viw2gwZ-77" value="" style="rounded=0;whiteSpace=wrap;html=1;verticalAlign=top;fillColor=#dae8fc;strokeColor=#6c8ebf;" parent="1A0xML21-OaG5q6vJsk9-1" vertex="1">
          <mxGeometry x="327.47999999999996" y="1311" width="220" height="174" as="geometry" />
        </mxCell>
        <mxCell id="E2OswdD5wqAT8Viw2gwZ-78" value="Repository Governance Engine Handler" style="rounded=0;whiteSpace=wrap;html=1;verticalAlign=top;fillColor=#dae8fc;strokeColor=#6c8ebf;" parent="1A0xML21-OaG5q6vJsk9-1" vertex="1">
          <mxGeometry x="337.47999999999996" y="1321" width="220" height="174" as="geometry" />
        </mxCell>
        <mxCell id="E2OswdD5wqAT8Viw2gwZ-79" value="Governance Services Map" style="rounded=0;whiteSpace=wrap;html=1;fillColor=#dae8fc;strokeColor=#6c8ebf;shadow=1;" parent="1A0xML21-OaG5q6vJsk9-1" vertex="1">
          <mxGeometry x="346.9" y="1354" width="200" height="40" as="geometry" />
        </mxCell>
        <mxCell id="E2OswdD5wqAT8Viw2gwZ-80" value="Enterprise&lt;br&gt;Repository&lt;br&gt;Services&lt;br&gt;Client" style="rounded=0;whiteSpace=wrap;html=1;rotation=0;fillColor=#e1d5e7;strokeColor=#9673a6;" parent="1A0xML21-OaG5q6vJsk9-1" vertex="1">
          <mxGeometry x="475.9" y="1405" width="70" height="80" as="geometry" />
        </mxCell>
        <mxCell id="E2OswdD5wqAT8Viw2gwZ-81" value="Governance&lt;br&gt;Service&lt;br&gt;Handler" style="rounded=0;whiteSpace=wrap;html=1;fillColor=#dae8fc;strokeColor=#6c8ebf;shadow=1;" parent="1A0xML21-OaG5q6vJsk9-1" vertex="1">
          <mxGeometry x="349.47999999999996" y="1405" width="95.95" height="60" as="geometry" />
        </mxCell>
        <mxCell id="E2OswdD5wqAT8Viw2gwZ-82" style="edgeStyle=orthogonalEdgeStyle;rounded=0;orthogonalLoop=1;jettySize=auto;html=1;exitX=0.5;exitY=1;exitDx=0;exitDy=0;entryX=0.75;entryY=0;entryDx=0;entryDy=0;" parent="1A0xML21-OaG5q6vJsk9-1" source="E2OswdD5wqAT8Viw2gwZ-56" target="E2OswdD5wqAT8Viw2gwZ-77" edge="1">
          <mxGeometry relative="1" as="geometry" />
        </mxCell>
        <mxCell id="E2OswdD5wqAT8Viw2gwZ-83" style="edgeStyle=orthogonalEdgeStyle;rounded=0;orthogonalLoop=1;jettySize=auto;html=1;" parent="1A0xML21-OaG5q6vJsk9-1" source="E2OswdD5wqAT8Viw2gwZ-74" target="E2OswdD5wqAT8Viw2gwZ-78" edge="1">
          <mxGeometry relative="1" as="geometry" />
        </mxCell>
        <mxCell id="E2OswdD5wqAT8Viw2gwZ-84" value="Governance&lt;br&gt;Service&lt;br&gt;Handler" style="rounded=0;whiteSpace=wrap;html=1;fillColor=#dae8fc;strokeColor=#6c8ebf;shadow=1;" parent="1A0xML21-OaG5q6vJsk9-1" vertex="1">
          <mxGeometry x="359.47999999999996" y="1415" width="95.95" height="60" as="geometry" />
        </mxCell>
        <mxCell id="E2OswdD5wqAT8Viw2gwZ-85" value="Repository Governance&lt;br&gt;Service&lt;br&gt;Handler" style="rounded=0;whiteSpace=wrap;html=1;fillColor=#dae8fc;strokeColor=#6c8ebf;shadow=1;" parent="1A0xML21-OaG5q6vJsk9-1" vertex="1">
          <mxGeometry x="369.47999999999996" y="1425" width="95.95" height="60" as="geometry" />
        </mxCell>
        <mxCell id="E2OswdD5wqAT8Viw2gwZ-86" style="edgeStyle=orthogonalEdgeStyle;rounded=0;orthogonalLoop=1;jettySize=auto;html=1;entryX=0.25;entryY=0;entryDx=0;entryDy=0;exitX=1;exitY=0.75;exitDx=0;exitDy=0;" parent="1A0xML21-OaG5q6vJsk9-1" source="E2OswdD5wqAT8Viw2gwZ-80" target="E2OswdD5wqAT8Viw2gwZ-67" edge="1">
          <mxGeometry relative="1" as="geometry" />
        </mxCell>
        <mxCell id="E2OswdD5wqAT8Viw2gwZ-87" value="Audit Log (Repository Services)" style="rounded=0;whiteSpace=wrap;html=1;fillColor=#d5e8d4;strokeColor=#82b366;" parent="1A0xML21-OaG5q6vJsk9-1" vertex="1">
          <mxGeometry x="194.98000000000002" y="1505" width="370" height="60" as="geometry" />
        </mxCell>
        <mxCell id="E2OswdD5wqAT8Viw2gwZ-88" style="edgeStyle=orthogonalEdgeStyle;rounded=0;orthogonalLoop=1;jettySize=auto;html=1;entryX=0.75;entryY=1;entryDx=0;entryDy=0;" parent="1A0xML21-OaG5q6vJsk9-1" source="E2OswdD5wqAT8Viw2gwZ-89" edge="1">
          <mxGeometry relative="1" as="geometry">
            <mxPoint x="547.4799999999998" y="1427.095" as="targetPoint" />
          </mxGeometry>
        </mxCell>
        <mxCell id="E2OswdD5wqAT8Viw2gwZ-89" value="" style="shape=partialRectangle;whiteSpace=wrap;html=1;bottom=1;right=1;left=1;top=0;fillColor=none;routingCenterX=-0.5;" parent="1A0xML21-OaG5q6vJsk9-1" vertex="1">
          <mxGeometry x="638" y="1367" width="70" height="76.8" as="geometry" />
        </mxCell>
        <mxCell id="E2OswdD5wqAT8Viw2gwZ-90" value="Remote&lt;br&gt;Enterprise&lt;br&gt;OMRS&lt;br&gt;Topic" style="text;html=1;align=center;verticalAlign=middle;resizable=0;points=[];;autosize=1;" parent="1A0xML21-OaG5q6vJsk9-1" vertex="1">
          <mxGeometry x="637.0000000000001" y="1379" width="70" height="60" as="geometry" />
        </mxCell>
        <mxCell id="E2OswdD5wqAT8Viw2gwZ-91" style="edgeStyle=orthogonalEdgeStyle;rounded=0;orthogonalLoop=1;jettySize=auto;html=1;exitX=0.75;exitY=0;exitDx=0;exitDy=0;entryX=1;entryY=0.5;entryDx=0;entryDy=0;" parent="1A0xML21-OaG5q6vJsk9-1" source="E2OswdD5wqAT8Viw2gwZ-67" target="E2OswdD5wqAT8Viw2gwZ-89" edge="1">
          <mxGeometry relative="1" as="geometry">
            <mxPoint x="718.53" y="1427.095" as="sourcePoint" />
          </mxGeometry>
        </mxCell>
        <mxCell id="E2OswdD5wqAT8Viw2gwZ-93" value="OMRS Topic&lt;br&gt;Events" style="text;html=1;align=center;verticalAlign=middle;resizable=0;points=[];;autosize=1;" parent="1A0xML21-OaG5q6vJsk9-1" vertex="1">
          <mxGeometry x="558.58" y="1373" width="80" height="30" as="geometry" />
        </mxCell>
        <mxCell id="-X61TCMz17pQ7-oCpkFn-71" style="edgeStyle=orthogonalEdgeStyle;rounded=0;orthogonalLoop=1;jettySize=auto;html=1;entryX=0.5;entryY=1;entryDx=0;entryDy=0;startArrow=classic;startFill=1;" parent="1A0xML21-OaG5q6vJsk9-1" source="-X61TCMz17pQ7-oCpkFn-75" target="-X61TCMz17pQ7-oCpkFn-45" edge="1">
          <mxGeometry relative="1" as="geometry">
            <Array as="points">
              <mxPoint x="237" y="750" />
              <mxPoint x="258" y="750" />
            </Array>
            <mxPoint x="236.50999999999996" y="762" as="sourcePoint" />
          </mxGeometry>
        </mxCell>
        <mxCell id="pmpLyYBIa8PNc0rpuVYC-4" style="edgeStyle=orthogonalEdgeStyle;rounded=0;orthogonalLoop=1;jettySize=auto;html=1;exitX=0.75;exitY=1;exitDx=0;exitDy=0;entryX=0.5;entryY=0;entryDx=0;entryDy=0;" parent="1A0xML21-OaG5q6vJsk9-1" source="pmpLyYBIa8PNc0rpuVYC-5" target="pmpLyYBIa8PNc0rpuVYC-6" edge="1">
          <mxGeometry relative="1" as="geometry" />
        </mxCell>
        <mxCell id="pmpLyYBIa8PNc0rpuVYC-5" value="Listener" style="rounded=0;whiteSpace=wrap;html=1;fillColor=#ffe6cc;strokeColor=#d79b00;" parent="1A0xML21-OaG5q6vJsk9-1" vertex="1">
          <mxGeometry x="286.05" y="630" width="194" height="25" as="geometry" />
        </mxCell>
        <mxCell id="pmpLyYBIa8PNc0rpuVYC-6" value="Request&lt;br&gt;Handler" style="rounded=0;whiteSpace=wrap;html=1;fillColor=#ffe6cc;strokeColor=#d79b00;" parent="1A0xML21-OaG5q6vJsk9-1" vertex="1">
          <mxGeometry x="390" y="675.25" width="95.05" height="44" as="geometry" />
        </mxCell>
        <mxCell id="pmpLyYBIa8PNc0rpuVYC-7" style="edgeStyle=orthogonalEdgeStyle;rounded=0;orthogonalLoop=1;jettySize=auto;html=1;exitX=0.25;exitY=1;exitDx=0;exitDy=0;entryX=0.5;entryY=0;entryDx=0;entryDy=0;startArrow=none;startFill=0;" parent="1A0xML21-OaG5q6vJsk9-1" source="pmpLyYBIa8PNc0rpuVYC-5" target="pmpLyYBIa8PNc0rpuVYC-9" edge="1">
          <mxGeometry relative="1" as="geometry">
            <mxPoint x="340.95" y="608" as="sourcePoint" />
          </mxGeometry>
        </mxCell>
        <mxCell id="pmpLyYBIa8PNc0rpuVYC-8" style="edgeStyle=orthogonalEdgeStyle;rounded=0;orthogonalLoop=1;jettySize=auto;html=1;exitX=0.5;exitY=1;exitDx=0;exitDy=0;entryX=0.25;entryY=0;entryDx=0;entryDy=0;startArrow=none;startFill=0;" parent="1A0xML21-OaG5q6vJsk9-1" source="pmpLyYBIa8PNc0rpuVYC-9" edge="1">
          <mxGeometry relative="1" as="geometry">
            <mxPoint x="371.05" y="770" as="targetPoint" />
            <Array as="points">
              <mxPoint x="327.05" y="749" />
              <mxPoint x="371.05" y="749" />
            </Array>
          </mxGeometry>
        </mxCell>
        <mxCell id="pmpLyYBIa8PNc0rpuVYC-9" value="Configuration&lt;br&gt;Handler" style="rounded=0;whiteSpace=wrap;html=1;fillColor=#ffe6cc;strokeColor=#d79b00;" parent="1A0xML21-OaG5q6vJsk9-1" vertex="1">
          <mxGeometry x="286.05" y="675.25" width="93.95" height="44" as="geometry" />
        </mxCell>
        <mxCell id="pmpLyYBIa8PNc0rpuVYC-11" style="edgeStyle=orthogonalEdgeStyle;rounded=0;orthogonalLoop=1;jettySize=auto;html=1;exitX=0.5;exitY=1;exitDx=0;exitDy=0;entryX=0.75;entryY=0;entryDx=0;entryDy=0;" parent="1A0xML21-OaG5q6vJsk9-1" source="pmpLyYBIa8PNc0rpuVYC-6" target="-X61TCMz17pQ7-oCpkFn-79" edge="1">
          <mxGeometry relative="1" as="geometry">
            <mxPoint x="491.05" y="780" as="targetPoint" />
            <Array as="points">
              <mxPoint x="446" y="750" />
              <mxPoint x="500" y="750" />
            </Array>
          </mxGeometry>
        </mxCell>
        <mxCell id="CtbzTgIFIKswPZPyJOrO-1" value="Engine Host OMAG Server" style="rounded=0;whiteSpace=wrap;html=1;verticalAlign=bottom;fillColor=#fff2cc;strokeColor=#d6b656;" parent="1A0xML21-OaG5q6vJsk9-1" vertex="1">
          <mxGeometry x="1102.1" y="479" width="210" height="291" as="geometry" />
        </mxCell>
        <mxCell id="CtbzTgIFIKswPZPyJOrO-2" value="Metadata&lt;br&gt;Access Server" style="rounded=0;whiteSpace=wrap;html=1;verticalAlign=bottom;fillColor=#fff2cc;strokeColor=#d6b656;" parent="1A0xML21-OaG5q6vJsk9-1" vertex="1">
          <mxGeometry x="1451.1" y="551" width="170" height="150" as="geometry" />
        </mxCell>
        <mxCell id="CtbzTgIFIKswPZPyJOrO-3" style="edgeStyle=orthogonalEdgeStyle;rounded=0;orthogonalLoop=1;jettySize=auto;html=1;exitX=0;exitY=0.25;exitDx=0;exitDy=0;entryX=1;entryY=0.25;entryDx=0;entryDy=0;" parent="1A0xML21-OaG5q6vJsk9-1" source="CtbzTgIFIKswPZPyJOrO-5" target="CtbzTgIFIKswPZPyJOrO-1" edge="1">
          <mxGeometry relative="1" as="geometry" />
        </mxCell>
        <mxCell id="CtbzTgIFIKswPZPyJOrO-4" style="edgeStyle=orthogonalEdgeStyle;rounded=0;orthogonalLoop=1;jettySize=auto;html=1;exitX=0;exitY=0.5;exitDx=0;exitDy=0;entryX=1;entryY=0.5;entryDx=0;entryDy=0;startArrow=none;startFill=0;" parent="1A0xML21-OaG5q6vJsk9-1" source="CtbzTgIFIKswPZPyJOrO-5" target="CtbzTgIFIKswPZPyJOrO-1" edge="1">
          <mxGeometry relative="1" as="geometry" />
        </mxCell>
        <mxCell id="CtbzTgIFIKswPZPyJOrO-5" value="Governance&lt;br&gt;Engine OMAS" style="rounded=0;whiteSpace=wrap;html=1;fillColor=#d5e8d4;strokeColor=#82b366;" parent="1A0xML21-OaG5q6vJsk9-1" vertex="1">
          <mxGeometry x="1452.1" y="552" width="120" height="104" as="geometry" />
        </mxCell>
        <mxCell id="CtbzTgIFIKswPZPyJOrO-6" value="1" style="ellipse;whiteSpace=wrap;html=1;aspect=fixed;align=center;fontStyle=1;fillColor=#e3c800;strokeColor=#CC0000;fontColor=#000000;" parent="1A0xML21-OaG5q6vJsk9-1" vertex="1">
          <mxGeometry x="1560" y="487" width="30" height="30" as="geometry" />
        </mxCell>
        <mxCell id="CtbzTgIFIKswPZPyJOrO-7" value="2" style="ellipse;whiteSpace=wrap;html=1;aspect=fixed;align=center;fontStyle=1;fillColor=#e3c800;strokeColor=#CC0000;fontColor=#000000;" parent="1A0xML21-OaG5q6vJsk9-1" vertex="1">
          <mxGeometry x="1340" y="504" width="30" height="30" as="geometry" />
        </mxCell>
        <mxCell id="CtbzTgIFIKswPZPyJOrO-9" value="Governance Action OMES" style="rounded=0;whiteSpace=wrap;html=1;shadow=1;align=center;verticalAlign=bottom;" parent="1A0xML21-OaG5q6vJsk9-1" vertex="1">
          <mxGeometry x="1114.1" y="489" width="190" height="251" as="geometry" />
        </mxCell>
        <mxCell id="CtbzTgIFIKswPZPyJOrO-10" value="Governance&lt;br&gt;Action&lt;br&gt;Engine" style="rounded=0;whiteSpace=wrap;html=1;align=left;fillColor=#dae8fc;strokeColor=#6c8ebf;" parent="1A0xML21-OaG5q6vJsk9-1" vertex="1">
          <mxGeometry x="1124.1" y="499" width="170" height="110" as="geometry" />
        </mxCell>
        <mxCell id="CtbzTgIFIKswPZPyJOrO-11" value="Governance Action Engine" style="rounded=0;whiteSpace=wrap;html=1;align=center;fillColor=#dae8fc;strokeColor=#6c8ebf;verticalAlign=top;" parent="1A0xML21-OaG5q6vJsk9-1" vertex="1">
          <mxGeometry x="1124.1" y="630" width="170" height="80" as="geometry" />
        </mxCell>
        <mxCell id="CtbzTgIFIKswPZPyJOrO-12" value="Governance Action&lt;br&gt;&lt;div style=&quot;&quot;&gt;&lt;span&gt;Service&lt;/span&gt;&lt;/div&gt;" style="rounded=0;whiteSpace=wrap;html=1;align=center;" parent="1A0xML21-OaG5q6vJsk9-1" vertex="1">
          <mxGeometry x="1194.1" y="504" width="90" height="49" as="geometry" />
        </mxCell>
        <mxCell id="CtbzTgIFIKswPZPyJOrO-13" value="Governance Action&lt;br&gt;&lt;div style=&quot;&quot;&gt;&lt;span&gt;Service&lt;/span&gt;&lt;/div&gt;" style="rounded=0;whiteSpace=wrap;html=1;align=center;" parent="1A0xML21-OaG5q6vJsk9-1" vertex="1">
          <mxGeometry x="1194.1" y="556" width="90" height="49" as="geometry" />
        </mxCell>
        <mxCell id="CtbzTgIFIKswPZPyJOrO-34" style="edgeStyle=orthogonalEdgeStyle;rounded=0;orthogonalLoop=1;jettySize=auto;html=1;exitX=0;exitY=0.25;exitDx=0;exitDy=0;fillColor=default;opacity=70;" parent="1A0xML21-OaG5q6vJsk9-1" source="CtbzTgIFIKswPZPyJOrO-14" target="CtbzTgIFIKswPZPyJOrO-31" edge="1">
          <mxGeometry relative="1" as="geometry" />
        </mxCell>
        <mxCell id="CtbzTgIFIKswPZPyJOrO-14" value="Governance Action&lt;br&gt;&lt;div style=&quot;&quot;&gt;&lt;span&gt;Service&lt;/span&gt;&lt;/div&gt;" style="rounded=0;whiteSpace=wrap;html=1;align=center;" parent="1A0xML21-OaG5q6vJsk9-1" vertex="1">
          <mxGeometry x="1149.1" y="658" width="120" height="46" as="geometry" />
        </mxCell>
        <mxCell id="CtbzTgIFIKswPZPyJOrO-15" value="Governance&lt;br&gt;Engine OMAS" style="rounded=0;whiteSpace=wrap;html=1;fillColor=#d5e8d4;strokeColor=#82b366;" parent="1A0xML21-OaG5q6vJsk9-1" vertex="1">
          <mxGeometry x="1451.1" y="130" width="120" height="82" as="geometry" />
        </mxCell>
        <mxCell id="C474DuP7eIwvaRZx95Ov-33" style="edgeStyle=orthogonalEdgeStyle;rounded=0;orthogonalLoop=1;jettySize=auto;html=1;exitX=1;exitY=0.75;exitDx=0;exitDy=0;entryX=0;entryY=0.5;entryDx=0;entryDy=0;startArrow=none;startFill=0;" parent="1A0xML21-OaG5q6vJsk9-1" source="C474DuP7eIwvaRZx95Ov-43" target="C474DuP7eIwvaRZx95Ov-38" edge="1">
          <mxGeometry relative="1" as="geometry" />
        </mxCell>
        <mxCell id="CtbzTgIFIKswPZPyJOrO-16" value="" style="shape=flexArrow;endArrow=classic;html=1;rounded=0;entryX=0.5;entryY=0;entryDx=0;entryDy=0;" parent="1A0xML21-OaG5q6vJsk9-1" target="CtbzTgIFIKswPZPyJOrO-2" edge="1">
          <mxGeometry width="50" height="50" relative="1" as="geometry">
            <mxPoint x="1536" y="497" as="sourcePoint" />
            <mxPoint x="1250" y="487" as="targetPoint" />
          </mxGeometry>
        </mxCell>
        <mxCell id="CtbzTgIFIKswPZPyJOrO-17" value="1" style="ellipse;whiteSpace=wrap;html=1;aspect=fixed;align=center;fontStyle=1;fillColor=#e3c800;strokeColor=#CC0000;fontColor=#000000;" parent="1A0xML21-OaG5q6vJsk9-1" vertex="1">
          <mxGeometry x="1560" y="66" width="30" height="30" as="geometry" />
        </mxCell>
        <mxCell id="CtbzTgIFIKswPZPyJOrO-18" value="" style="shape=flexArrow;endArrow=classic;html=1;rounded=0;entryX=0.5;entryY=0;entryDx=0;entryDy=0;" parent="1A0xML21-OaG5q6vJsk9-1" edge="1">
          <mxGeometry width="50" height="50" relative="1" as="geometry">
            <mxPoint x="1536" y="76" as="sourcePoint" />
            <mxPoint x="1536.1" y="130" as="targetPoint" />
          </mxGeometry>
        </mxCell>
        <mxCell id="CtbzTgIFIKswPZPyJOrO-22" value="" style="shape=cylinder3;whiteSpace=wrap;html=1;boundedLbl=1;backgroundOutline=1;size=6;" parent="1A0xML21-OaG5q6vJsk9-1" vertex="1">
          <mxGeometry x="1035" y="185" width="60" height="50" as="geometry" />
        </mxCell>
        <mxCell id="CtbzTgIFIKswPZPyJOrO-24" style="edgeStyle=orthogonalEdgeStyle;rounded=0;orthogonalLoop=1;jettySize=auto;html=1;entryX=1;entryY=0.5;entryDx=0;entryDy=0;entryPerimeter=0;fillColor=default;" parent="1A0xML21-OaG5q6vJsk9-1" source="C474DuP7eIwvaRZx95Ov-46" target="CtbzTgIFIKswPZPyJOrO-25" edge="1">
          <mxGeometry relative="1" as="geometry">
            <mxPoint x="1140" y="267" as="sourcePoint" />
          </mxGeometry>
        </mxCell>
        <mxCell id="CtbzTgIFIKswPZPyJOrO-25" value="" style="shape=cylinder3;whiteSpace=wrap;html=1;boundedLbl=1;backgroundOutline=1;size=6;" parent="1A0xML21-OaG5q6vJsk9-1" vertex="1">
          <mxGeometry x="1035" y="237" width="60" height="50" as="geometry" />
        </mxCell>
        <mxCell id="CtbzTgIFIKswPZPyJOrO-27" value="Data&lt;br&gt;Source" style="text;html=1;align=center;verticalAlign=middle;resizable=0;points=[];autosize=1;strokeColor=none;fillColor=none;" parent="1A0xML21-OaG5q6vJsk9-1" vertex="1">
          <mxGeometry x="1035" y="194" width="60" height="40" as="geometry" />
        </mxCell>
        <mxCell id="CtbzTgIFIKswPZPyJOrO-28" value="Data&lt;br&gt;Source" style="text;html=1;align=center;verticalAlign=middle;resizable=0;points=[];autosize=1;strokeColor=none;fillColor=none;" parent="1A0xML21-OaG5q6vJsk9-1" vertex="1">
          <mxGeometry x="1035" y="247" width="60" height="40" as="geometry" />
        </mxCell>
        <mxCell id="CtbzTgIFIKswPZPyJOrO-0" style="edgeStyle=orthogonalEdgeStyle;rounded=0;orthogonalLoop=1;jettySize=auto;html=1;exitX=1;exitY=0.75;exitDx=0;exitDy=0;entryX=0;entryY=0.75;entryDx=0;entryDy=0;startArrow=none;startFill=0;" parent="1A0xML21-OaG5q6vJsk9-1" source="CtbzTgIFIKswPZPyJOrO-9" target="CtbzTgIFIKswPZPyJOrO-5" edge="1">
          <mxGeometry relative="1" as="geometry">
            <Array as="points">
              <mxPoint x="1390" y="677" />
              <mxPoint x="1390" y="630" />
            </Array>
          </mxGeometry>
        </mxCell>
        <mxCell id="CtbzTgIFIKswPZPyJOrO-8" value="4" style="ellipse;whiteSpace=wrap;html=1;aspect=fixed;align=center;fontStyle=1;fillColor=#e3c800;strokeColor=#CC0000;fontColor=#000000;" parent="1A0xML21-OaG5q6vJsk9-1" vertex="1">
          <mxGeometry x="1400" y="637.2" width="30" height="30" as="geometry" />
        </mxCell>
        <mxCell id="CtbzTgIFIKswPZPyJOrO-29" value="" style="shape=cylinder3;whiteSpace=wrap;html=1;boundedLbl=1;backgroundOutline=1;size=6;" parent="1A0xML21-OaG5q6vJsk9-1" vertex="1">
          <mxGeometry x="1000" y="641.2" width="60" height="50" as="geometry" />
        </mxCell>
        <mxCell id="CtbzTgIFIKswPZPyJOrO-30" value="" style="shape=cylinder3;whiteSpace=wrap;html=1;boundedLbl=1;backgroundOutline=1;size=6;" parent="1A0xML21-OaG5q6vJsk9-1" vertex="1">
          <mxGeometry x="1000" y="693.2" width="60" height="50" as="geometry" />
        </mxCell>
        <mxCell id="CtbzTgIFIKswPZPyJOrO-31" value="Data&lt;br&gt;Source" style="text;html=1;align=center;verticalAlign=middle;resizable=0;points=[];autosize=1;strokeColor=none;fillColor=none;" parent="1A0xML21-OaG5q6vJsk9-1" vertex="1">
          <mxGeometry x="1000" y="650.2" width="60" height="40" as="geometry" />
        </mxCell>
        <mxCell id="CtbzTgIFIKswPZPyJOrO-33" style="edgeStyle=orthogonalEdgeStyle;rounded=0;orthogonalLoop=1;jettySize=auto;html=1;entryX=0;entryY=0.75;entryDx=0;entryDy=0;fillColor=default;opacity=70;" parent="1A0xML21-OaG5q6vJsk9-1" source="CtbzTgIFIKswPZPyJOrO-32" target="CtbzTgIFIKswPZPyJOrO-14" edge="1">
          <mxGeometry relative="1" as="geometry" />
        </mxCell>
        <mxCell id="CtbzTgIFIKswPZPyJOrO-32" value="Data&lt;br&gt;Source" style="text;html=1;align=center;verticalAlign=middle;resizable=0;points=[];autosize=1;strokeColor=none;fillColor=none;" parent="1A0xML21-OaG5q6vJsk9-1" vertex="1">
          <mxGeometry x="1000" y="703.2" width="60" height="40" as="geometry" />
        </mxCell>
        <mxCell id="FyZ2uhYOsPDK-eVkyUqT-49" value="" style="rounded=0;whiteSpace=wrap;html=1;verticalAlign=top;fillColor=#dae8fc;strokeColor=#6c8ebf;" parent="1A0xML21-OaG5q6vJsk9-1" vertex="1">
          <mxGeometry x="245.98000000000002" y="1785" width="36" height="20" as="geometry" />
        </mxCell>
        <mxCell id="FyZ2uhYOsPDK-eVkyUqT-50" value="Engine Host OMAG Server" style="rounded=0;whiteSpace=wrap;html=1;verticalAlign=top;fillColor=#fff2cc;strokeColor=#d6b656;" parent="1A0xML21-OaG5q6vJsk9-1" vertex="1">
          <mxGeometry x="190.98000000000002" y="1633" width="385" height="477" as="geometry" />
        </mxCell>
        <mxCell id="FyZ2uhYOsPDK-eVkyUqT-51" value="Engine Host Services" style="rounded=0;whiteSpace=wrap;html=1;verticalAlign=top;" parent="1A0xML21-OaG5q6vJsk9-1" vertex="1">
          <mxGeometry x="200.98000000000002" y="1670.5" width="370" height="134.5" as="geometry" />
        </mxCell>
        <mxCell id="FyZ2uhYOsPDK-eVkyUqT-52" value="Metadata Access Server" style="rounded=0;whiteSpace=wrap;html=1;verticalAlign=top;" parent="1A0xML21-OaG5q6vJsk9-1" vertex="1">
          <mxGeometry x="731.98" y="1630" width="170" height="440" as="geometry" />
        </mxCell>
        <mxCell id="FyZ2uhYOsPDK-eVkyUqT-53" style="edgeStyle=orthogonalEdgeStyle;rounded=0;orthogonalLoop=1;jettySize=auto;html=1;" parent="1A0xML21-OaG5q6vJsk9-1" target="FyZ2uhYOsPDK-eVkyUqT-59" edge="1">
          <mxGeometry relative="1" as="geometry">
            <mxPoint x="510.97999999999996" y="1714" as="sourcePoint" />
          </mxGeometry>
        </mxCell>
        <mxCell id="FyZ2uhYOsPDK-eVkyUqT-54" style="edgeStyle=orthogonalEdgeStyle;rounded=0;orthogonalLoop=1;jettySize=auto;html=1;entryX=0.75;entryY=1;entryDx=0;entryDy=0;" parent="1A0xML21-OaG5q6vJsk9-1" source="FyZ2uhYOsPDK-eVkyUqT-55" target="FyZ2uhYOsPDK-eVkyUqT-63" edge="1">
          <mxGeometry relative="1" as="geometry" />
        </mxCell>
        <mxCell id="FyZ2uhYOsPDK-eVkyUqT-55" value="" style="shape=partialRectangle;whiteSpace=wrap;html=1;bottom=1;right=1;left=1;top=0;fillColor=none;routingCenterX=-0.5;" parent="1A0xML21-OaG5q6vJsk9-1" vertex="1">
          <mxGeometry x="664.98" y="1690" width="30" height="40" as="geometry" />
        </mxCell>
        <mxCell id="FyZ2uhYOsPDK-eVkyUqT-56" value="Out&lt;br&gt;Topic" style="text;html=1;align=center;verticalAlign=middle;resizable=0;points=[];;autosize=1;" parent="1A0xML21-OaG5q6vJsk9-1" vertex="1">
          <mxGeometry x="659.98" y="1695" width="40" height="30" as="geometry" />
        </mxCell>
        <mxCell id="FyZ2uhYOsPDK-eVkyUqT-57" style="edgeStyle=orthogonalEdgeStyle;rounded=0;orthogonalLoop=1;jettySize=auto;html=1;exitX=0.75;exitY=0;exitDx=0;exitDy=0;entryX=1;entryY=0.5;entryDx=0;entryDy=0;" parent="1A0xML21-OaG5q6vJsk9-1" source="FyZ2uhYOsPDK-eVkyUqT-70" target="FyZ2uhYOsPDK-eVkyUqT-55" edge="1">
          <mxGeometry relative="1" as="geometry">
            <mxPoint x="734.825" y="1709.6675" as="sourcePoint" />
          </mxGeometry>
        </mxCell>
        <mxCell id="FyZ2uhYOsPDK-eVkyUqT-58" style="edgeStyle=orthogonalEdgeStyle;rounded=0;orthogonalLoop=1;jettySize=auto;html=1;exitX=0.75;exitY=1;exitDx=0;exitDy=0;entryX=0.5;entryY=0;entryDx=0;entryDy=0;" parent="1A0xML21-OaG5q6vJsk9-1" source="FyZ2uhYOsPDK-eVkyUqT-59" target="FyZ2uhYOsPDK-eVkyUqT-61" edge="1">
          <mxGeometry relative="1" as="geometry" />
        </mxCell>
        <mxCell id="FyZ2uhYOsPDK-eVkyUqT-59" value="Listener" style="rounded=0;whiteSpace=wrap;html=1;fillColor=#ffe6cc;strokeColor=#d79b00;" parent="1A0xML21-OaG5q6vJsk9-1" vertex="1">
          <mxGeometry x="299.97999999999996" y="1701" width="185" height="25" as="geometry" />
        </mxCell>
        <mxCell id="FyZ2uhYOsPDK-eVkyUqT-60" style="edgeStyle=orthogonalEdgeStyle;rounded=0;orthogonalLoop=1;jettySize=auto;html=1;entryX=0.25;entryY=0;entryDx=0;entryDy=0;" parent="1A0xML21-OaG5q6vJsk9-1" source="FyZ2uhYOsPDK-eVkyUqT-61" target="FyZ2uhYOsPDK-eVkyUqT-63" edge="1">
          <mxGeometry relative="1" as="geometry" />
        </mxCell>
        <mxCell id="FyZ2uhYOsPDK-eVkyUqT-61" value="Request&lt;br&gt;Handler" style="rounded=0;whiteSpace=wrap;html=1;fillColor=#ffe6cc;strokeColor=#d79b00;" parent="1A0xML21-OaG5q6vJsk9-1" vertex="1">
          <mxGeometry x="399.97999999999996" y="1746.25" width="90" height="44" as="geometry" />
        </mxCell>
        <mxCell id="FyZ2uhYOsPDK-eVkyUqT-62" style="edgeStyle=orthogonalEdgeStyle;rounded=0;orthogonalLoop=1;jettySize=auto;html=1;exitX=0.25;exitY=1;exitDx=0;exitDy=0;startArrow=none;startFill=0;entryX=0.25;entryY=0;entryDx=0;entryDy=0;" parent="1A0xML21-OaG5q6vJsk9-1" source="FyZ2uhYOsPDK-eVkyUqT-63" target="FyZ2uhYOsPDK-eVkyUqT-70" edge="1">
          <mxGeometry relative="1" as="geometry">
            <mxPoint x="734.825" y="1767.4725" as="targetPoint" />
          </mxGeometry>
        </mxCell>
        <mxCell id="FyZ2uhYOsPDK-eVkyUqT-63" value="Governance Server&lt;br&gt;OMAS Client" style="rounded=0;whiteSpace=wrap;html=1;rotation=-90;fillColor=#e1d5e7;strokeColor=#9673a6;" parent="1A0xML21-OaG5q6vJsk9-1" vertex="1">
          <mxGeometry x="479.42999999999995" y="1711.2" width="116.62" height="56.5" as="geometry" />
        </mxCell>
        <mxCell id="FyZ2uhYOsPDK-eVkyUqT-64" style="edgeStyle=orthogonalEdgeStyle;rounded=0;orthogonalLoop=1;jettySize=auto;html=1;exitX=0.5;exitY=1;exitDx=0;exitDy=0;" parent="1A0xML21-OaG5q6vJsk9-1" source="FyZ2uhYOsPDK-eVkyUqT-55" target="FyZ2uhYOsPDK-eVkyUqT-55" edge="1">
          <mxGeometry relative="1" as="geometry" />
        </mxCell>
        <mxCell id="FyZ2uhYOsPDK-eVkyUqT-65" value="REST API calls" style="text;html=1;align=center;verticalAlign=middle;resizable=0;points=[];;autosize=1;" parent="1A0xML21-OaG5q6vJsk9-1" vertex="1">
          <mxGeometry x="601.98" y="1746.25" width="100" height="20" as="geometry" />
        </mxCell>
        <mxCell id="FyZ2uhYOsPDK-eVkyUqT-66" value="OutTopic&lt;br&gt;Events" style="text;html=1;align=center;verticalAlign=middle;resizable=0;points=[];;autosize=1;" parent="1A0xML21-OaG5q6vJsk9-1" vertex="1">
          <mxGeometry x="577.98" y="1677.2" width="60" height="30" as="geometry" />
        </mxCell>
        <mxCell id="FyZ2uhYOsPDK-eVkyUqT-67" style="edgeStyle=orthogonalEdgeStyle;rounded=0;orthogonalLoop=1;jettySize=auto;html=1;exitX=0.25;exitY=1;exitDx=0;exitDy=0;entryX=0.5;entryY=0;entryDx=0;entryDy=0;startArrow=none;startFill=0;" parent="1A0xML21-OaG5q6vJsk9-1" source="FyZ2uhYOsPDK-eVkyUqT-59" target="FyZ2uhYOsPDK-eVkyUqT-69" edge="1">
          <mxGeometry relative="1" as="geometry">
            <mxPoint x="345.87999999999994" y="1679" as="sourcePoint" />
          </mxGeometry>
        </mxCell>
        <mxCell id="FyZ2uhYOsPDK-eVkyUqT-68" style="edgeStyle=orthogonalEdgeStyle;rounded=0;orthogonalLoop=1;jettySize=auto;html=1;exitX=0.5;exitY=1;exitDx=0;exitDy=0;entryX=0.25;entryY=0;entryDx=0;entryDy=0;startArrow=none;startFill=0;" parent="1A0xML21-OaG5q6vJsk9-1" source="FyZ2uhYOsPDK-eVkyUqT-69" target="FyZ2uhYOsPDK-eVkyUqT-74" edge="1">
          <mxGeometry relative="1" as="geometry">
            <mxPoint x="274.87999999999994" y="1761" as="targetPoint" />
          </mxGeometry>
        </mxCell>
        <mxCell id="FyZ2uhYOsPDK-eVkyUqT-69" value="Configuration&lt;br&gt;Handler" style="rounded=0;whiteSpace=wrap;html=1;fillColor=#ffe6cc;strokeColor=#d79b00;" parent="1A0xML21-OaG5q6vJsk9-1" vertex="1">
          <mxGeometry x="299.97999999999996" y="1746.25" width="90" height="44" as="geometry" />
        </mxCell>
        <mxCell id="FyZ2uhYOsPDK-eVkyUqT-70" value="Governance Server&lt;br&gt;OMAS" style="rounded=0;whiteSpace=wrap;html=1;rotation=-90;fillColor=#e1d5e7;strokeColor=#9673a6;" parent="1A0xML21-OaG5q6vJsk9-1" vertex="1">
          <mxGeometry x="706.98" y="1711.2" width="116.62" height="56.5" as="geometry" />
        </mxCell>
        <mxCell id="FyZ2uhYOsPDK-eVkyUqT-71" value="REST API" style="rounded=0;whiteSpace=wrap;html=1;rotation=-90;fillColor=#ffe6cc;strokeColor=#d79b00;" parent="1A0xML21-OaG5q6vJsk9-1" vertex="1">
          <mxGeometry x="189.4" y="1705.67" width="106.05" height="60" as="geometry" />
        </mxCell>
        <mxCell id="FyZ2uhYOsPDK-eVkyUqT-72" value="Data Science OMAS" style="rounded=0;whiteSpace=wrap;html=1;rotation=-90;fillColor=#e1d5e7;strokeColor=#9673a6;" parent="1A0xML21-OaG5q6vJsk9-1" vertex="1">
          <mxGeometry x="695.37" y="1957.44" width="135.64" height="55.14" as="geometry" />
        </mxCell>
        <mxCell id="FyZ2uhYOsPDK-eVkyUqT-73" value="" style="rounded=0;whiteSpace=wrap;html=1;verticalAlign=top;fillColor=#dae8fc;strokeColor=#6c8ebf;" parent="1A0xML21-OaG5q6vJsk9-1" vertex="1">
          <mxGeometry x="427.42999999999995" y="1842" width="35.1" height="20" as="geometry" />
        </mxCell>
        <mxCell id="FyZ2uhYOsPDK-eVkyUqT-74" value="" style="rounded=0;whiteSpace=wrap;html=1;verticalAlign=top;fillColor=#dae8fc;strokeColor=#6c8ebf;" parent="1A0xML21-OaG5q6vJsk9-1" vertex="1">
          <mxGeometry x="320.97999999999996" y="1841" width="220" height="174" as="geometry" />
        </mxCell>
        <mxCell id="FyZ2uhYOsPDK-eVkyUqT-75" style="edgeStyle=orthogonalEdgeStyle;rounded=0;orthogonalLoop=1;jettySize=auto;html=1;exitX=0.5;exitY=0;exitDx=0;exitDy=0;entryX=0.5;entryY=1;entryDx=0;entryDy=0;startArrow=classic;startFill=1;" parent="1A0xML21-OaG5q6vJsk9-1" target="FyZ2uhYOsPDK-eVkyUqT-49" edge="1">
          <mxGeometry relative="1" as="geometry">
            <Array as="points">
              <mxPoint x="242.98000000000002" y="1820" />
              <mxPoint x="263.98" y="1820" />
            </Array>
            <mxPoint x="242.42999999999998" y="1832" as="sourcePoint" />
          </mxGeometry>
        </mxCell>
        <mxCell id="FyZ2uhYOsPDK-eVkyUqT-76" value="REST API calls" style="text;html=1;align=center;verticalAlign=middle;resizable=0;points=[];;autosize=1;" parent="1A0xML21-OaG5q6vJsk9-1" vertex="1">
          <mxGeometry x="596.0500000000001" y="1961" width="100" height="20" as="geometry" />
        </mxCell>
        <mxCell id="FyZ2uhYOsPDK-eVkyUqT-77" value="Admin" style="rounded=0;whiteSpace=wrap;html=1;fillColor=#dae8fc;strokeColor=#6c8ebf;" parent="1A0xML21-OaG5q6vJsk9-1" vertex="1">
          <mxGeometry x="204.28000000000003" y="1831" width="61.45" height="40" as="geometry" />
        </mxCell>
        <mxCell id="FyZ2uhYOsPDK-eVkyUqT-78" value="REST API" style="rounded=0;whiteSpace=wrap;html=1;rotation=-90;fillColor=#dae8fc;strokeColor=#6c8ebf;" parent="1A0xML21-OaG5q6vJsk9-1" vertex="1">
          <mxGeometry x="187.50000000000003" y="1894" width="95" height="60" as="geometry" />
        </mxCell>
        <mxCell id="FyZ2uhYOsPDK-eVkyUqT-79" value="Event&lt;br&gt;Action&lt;br&gt;Engine&lt;br&gt;Service" style="rounded=0;whiteSpace=wrap;html=1;verticalAlign=bottom;" parent="1A0xML21-OaG5q6vJsk9-1" vertex="1">
          <mxGeometry x="204.45000000000002" y="1829" width="81" height="207" as="geometry" />
        </mxCell>
        <mxCell id="FyZ2uhYOsPDK-eVkyUqT-80" value="Admin" style="rounded=0;whiteSpace=wrap;html=1;fillColor=#dae8fc;strokeColor=#6c8ebf;" parent="1A0xML21-OaG5q6vJsk9-1" vertex="1">
          <mxGeometry x="214.28000000000003" y="1837" width="61.45" height="40" as="geometry" />
        </mxCell>
        <mxCell id="FyZ2uhYOsPDK-eVkyUqT-81" value="REST API" style="rounded=0;whiteSpace=wrap;html=1;rotation=-90;fillColor=#dae8fc;strokeColor=#6c8ebf;" parent="1A0xML21-OaG5q6vJsk9-1" vertex="1">
          <mxGeometry x="203.45000000000002" y="1898.05" width="83.1" height="60" as="geometry" />
        </mxCell>
        <mxCell id="FyZ2uhYOsPDK-eVkyUqT-82" value="" style="rounded=0;whiteSpace=wrap;html=1;verticalAlign=top;fillColor=#dae8fc;strokeColor=#6c8ebf;" parent="1A0xML21-OaG5q6vJsk9-1" vertex="1">
          <mxGeometry x="330.97999999999996" y="1851" width="220" height="174" as="geometry" />
        </mxCell>
        <mxCell id="FyZ2uhYOsPDK-eVkyUqT-83" value="Event Action Engine Handler" style="rounded=0;whiteSpace=wrap;html=1;verticalAlign=top;fillColor=#dae8fc;strokeColor=#6c8ebf;" parent="1A0xML21-OaG5q6vJsk9-1" vertex="1">
          <mxGeometry x="340.97999999999996" y="1861" width="220" height="174" as="geometry" />
        </mxCell>
        <mxCell id="FyZ2uhYOsPDK-eVkyUqT-84" value="Governance Services Map" style="rounded=0;whiteSpace=wrap;html=1;fillColor=#dae8fc;strokeColor=#6c8ebf;shadow=1;" parent="1A0xML21-OaG5q6vJsk9-1" vertex="1">
          <mxGeometry x="350.4" y="1894" width="200" height="40" as="geometry" />
        </mxCell>
        <mxCell id="FyZ2uhYOsPDK-eVkyUqT-85" value="Stewardship&lt;br&gt;Action&lt;br&gt;OMAS&lt;br&gt;Client" style="rounded=0;whiteSpace=wrap;html=1;rotation=0;fillColor=#e1d5e7;strokeColor=#9673a6;" parent="1A0xML21-OaG5q6vJsk9-1" vertex="1">
          <mxGeometry x="479.4" y="1945" width="70" height="80" as="geometry" />
        </mxCell>
        <mxCell id="FyZ2uhYOsPDK-eVkyUqT-86" value="Governance&lt;br&gt;Service&lt;br&gt;Handler" style="rounded=0;whiteSpace=wrap;html=1;fillColor=#dae8fc;strokeColor=#6c8ebf;shadow=1;" parent="1A0xML21-OaG5q6vJsk9-1" vertex="1">
          <mxGeometry x="352.97999999999996" y="1945" width="95.95" height="60" as="geometry" />
        </mxCell>
        <mxCell id="FyZ2uhYOsPDK-eVkyUqT-87" style="edgeStyle=orthogonalEdgeStyle;rounded=0;orthogonalLoop=1;jettySize=auto;html=1;exitX=0.5;exitY=1;exitDx=0;exitDy=0;entryX=0.75;entryY=0;entryDx=0;entryDy=0;" parent="1A0xML21-OaG5q6vJsk9-1" source="FyZ2uhYOsPDK-eVkyUqT-61" target="FyZ2uhYOsPDK-eVkyUqT-82" edge="1">
          <mxGeometry relative="1" as="geometry" />
        </mxCell>
        <mxCell id="FyZ2uhYOsPDK-eVkyUqT-88" style="edgeStyle=orthogonalEdgeStyle;rounded=0;orthogonalLoop=1;jettySize=auto;html=1;" parent="1A0xML21-OaG5q6vJsk9-1" source="FyZ2uhYOsPDK-eVkyUqT-79" target="FyZ2uhYOsPDK-eVkyUqT-83" edge="1">
          <mxGeometry relative="1" as="geometry" />
        </mxCell>
        <mxCell id="FyZ2uhYOsPDK-eVkyUqT-89" value="Governance&lt;br&gt;Service&lt;br&gt;Handler" style="rounded=0;whiteSpace=wrap;html=1;fillColor=#dae8fc;strokeColor=#6c8ebf;shadow=1;" parent="1A0xML21-OaG5q6vJsk9-1" vertex="1">
          <mxGeometry x="362.97999999999996" y="1955" width="95.95" height="60" as="geometry" />
        </mxCell>
        <mxCell id="FyZ2uhYOsPDK-eVkyUqT-90" value="Event Action&lt;br&gt;Service&lt;br&gt;Handler" style="rounded=0;whiteSpace=wrap;html=1;fillColor=#dae8fc;strokeColor=#6c8ebf;shadow=1;" parent="1A0xML21-OaG5q6vJsk9-1" vertex="1">
          <mxGeometry x="372.97999999999996" y="1965" width="95.95" height="60" as="geometry" />
        </mxCell>
        <mxCell id="FyZ2uhYOsPDK-eVkyUqT-91" style="edgeStyle=orthogonalEdgeStyle;rounded=0;orthogonalLoop=1;jettySize=auto;html=1;entryX=0.5;entryY=0;entryDx=0;entryDy=0;" parent="1A0xML21-OaG5q6vJsk9-1" source="FyZ2uhYOsPDK-eVkyUqT-85" target="FyZ2uhYOsPDK-eVkyUqT-72" edge="1">
          <mxGeometry relative="1" as="geometry" />
        </mxCell>
        <mxCell id="FyZ2uhYOsPDK-eVkyUqT-92" value="Audit Log (Repository Services)" style="rounded=0;whiteSpace=wrap;html=1;fillColor=#d5e8d4;strokeColor=#82b366;" parent="1A0xML21-OaG5q6vJsk9-1" vertex="1">
          <mxGeometry x="198.48000000000002" y="2045" width="370" height="60" as="geometry" />
        </mxCell>
        <mxCell id="sAEZ9zLw-kv7bl9qyUTz-0" value="" style="rounded=0;whiteSpace=wrap;html=1;verticalAlign=top;fillColor=#dae8fc;strokeColor=#6c8ebf;" parent="1A0xML21-OaG5q6vJsk9-1" vertex="1">
          <mxGeometry x="249.43" y="2315" width="36" height="20" as="geometry" />
        </mxCell>
        <mxCell id="sAEZ9zLw-kv7bl9qyUTz-1" value="Engine Host OMAG Server" style="rounded=0;whiteSpace=wrap;html=1;verticalAlign=top;fillColor=#fff2cc;strokeColor=#d6b656;" parent="1A0xML21-OaG5q6vJsk9-1" vertex="1">
          <mxGeometry x="194.43" y="2163" width="385" height="477" as="geometry" />
        </mxCell>
        <mxCell id="sAEZ9zLw-kv7bl9qyUTz-2" value="Engine Host Services" style="rounded=0;whiteSpace=wrap;html=1;verticalAlign=top;" parent="1A0xML21-OaG5q6vJsk9-1" vertex="1">
          <mxGeometry x="204.43" y="2200.5" width="370" height="134.5" as="geometry" />
        </mxCell>
        <mxCell id="sAEZ9zLw-kv7bl9qyUTz-3" value="Metadata Access Server" style="rounded=0;whiteSpace=wrap;html=1;verticalAlign=top;" parent="1A0xML21-OaG5q6vJsk9-1" vertex="1">
          <mxGeometry x="735.4300000000001" y="2160" width="170" height="440" as="geometry" />
        </mxCell>
        <mxCell id="sAEZ9zLw-kv7bl9qyUTz-4" style="edgeStyle=orthogonalEdgeStyle;rounded=0;orthogonalLoop=1;jettySize=auto;html=1;" parent="1A0xML21-OaG5q6vJsk9-1" target="sAEZ9zLw-kv7bl9qyUTz-10" edge="1">
          <mxGeometry relative="1" as="geometry">
            <mxPoint x="514.4300000000001" y="2244" as="sourcePoint" />
          </mxGeometry>
        </mxCell>
        <mxCell id="sAEZ9zLw-kv7bl9qyUTz-5" style="edgeStyle=orthogonalEdgeStyle;rounded=0;orthogonalLoop=1;jettySize=auto;html=1;entryX=0.75;entryY=1;entryDx=0;entryDy=0;" parent="1A0xML21-OaG5q6vJsk9-1" source="sAEZ9zLw-kv7bl9qyUTz-6" target="sAEZ9zLw-kv7bl9qyUTz-14" edge="1">
          <mxGeometry relative="1" as="geometry" />
        </mxCell>
        <mxCell id="sAEZ9zLw-kv7bl9qyUTz-6" value="" style="shape=partialRectangle;whiteSpace=wrap;html=1;bottom=1;right=1;left=1;top=0;fillColor=none;routingCenterX=-0.5;" parent="1A0xML21-OaG5q6vJsk9-1" vertex="1">
          <mxGeometry x="668.4300000000001" y="2220" width="30" height="40" as="geometry" />
        </mxCell>
        <mxCell id="sAEZ9zLw-kv7bl9qyUTz-7" value="Out&lt;br&gt;Topic" style="text;html=1;align=center;verticalAlign=middle;resizable=0;points=[];;autosize=1;" parent="1A0xML21-OaG5q6vJsk9-1" vertex="1">
          <mxGeometry x="663.4300000000001" y="2225" width="40" height="30" as="geometry" />
        </mxCell>
        <mxCell id="sAEZ9zLw-kv7bl9qyUTz-8" style="edgeStyle=orthogonalEdgeStyle;rounded=0;orthogonalLoop=1;jettySize=auto;html=1;exitX=0.75;exitY=0;exitDx=0;exitDy=0;entryX=1;entryY=0.5;entryDx=0;entryDy=0;" parent="1A0xML21-OaG5q6vJsk9-1" source="sAEZ9zLw-kv7bl9qyUTz-21" target="sAEZ9zLw-kv7bl9qyUTz-6" edge="1">
          <mxGeometry relative="1" as="geometry">
            <mxPoint x="738.2750000000001" y="2239.6675" as="sourcePoint" />
          </mxGeometry>
        </mxCell>
        <mxCell id="sAEZ9zLw-kv7bl9qyUTz-9" style="edgeStyle=orthogonalEdgeStyle;rounded=0;orthogonalLoop=1;jettySize=auto;html=1;exitX=0.75;exitY=1;exitDx=0;exitDy=0;entryX=0.5;entryY=0;entryDx=0;entryDy=0;" parent="1A0xML21-OaG5q6vJsk9-1" source="sAEZ9zLw-kv7bl9qyUTz-10" target="sAEZ9zLw-kv7bl9qyUTz-12" edge="1">
          <mxGeometry relative="1" as="geometry" />
        </mxCell>
        <mxCell id="sAEZ9zLw-kv7bl9qyUTz-10" value="Listener" style="rounded=0;whiteSpace=wrap;html=1;fillColor=#ffe6cc;strokeColor=#d79b00;" parent="1A0xML21-OaG5q6vJsk9-1" vertex="1">
          <mxGeometry x="303.42999999999995" y="2231" width="185" height="25" as="geometry" />
        </mxCell>
        <mxCell id="sAEZ9zLw-kv7bl9qyUTz-11" style="edgeStyle=orthogonalEdgeStyle;rounded=0;orthogonalLoop=1;jettySize=auto;html=1;entryX=0.25;entryY=0;entryDx=0;entryDy=0;" parent="1A0xML21-OaG5q6vJsk9-1" source="sAEZ9zLw-kv7bl9qyUTz-12" target="sAEZ9zLw-kv7bl9qyUTz-14" edge="1">
          <mxGeometry relative="1" as="geometry" />
        </mxCell>
        <mxCell id="sAEZ9zLw-kv7bl9qyUTz-12" value="Request&lt;br&gt;Handler" style="rounded=0;whiteSpace=wrap;html=1;fillColor=#ffe6cc;strokeColor=#d79b00;" parent="1A0xML21-OaG5q6vJsk9-1" vertex="1">
          <mxGeometry x="403.42999999999995" y="2276.25" width="90" height="44" as="geometry" />
        </mxCell>
        <mxCell id="sAEZ9zLw-kv7bl9qyUTz-13" style="edgeStyle=orthogonalEdgeStyle;rounded=0;orthogonalLoop=1;jettySize=auto;html=1;exitX=0.25;exitY=1;exitDx=0;exitDy=0;startArrow=none;startFill=0;entryX=0.25;entryY=0;entryDx=0;entryDy=0;" parent="1A0xML21-OaG5q6vJsk9-1" source="sAEZ9zLw-kv7bl9qyUTz-14" target="sAEZ9zLw-kv7bl9qyUTz-21" edge="1">
          <mxGeometry relative="1" as="geometry">
            <mxPoint x="738.2750000000001" y="2297.4725" as="targetPoint" />
          </mxGeometry>
        </mxCell>
        <mxCell id="sAEZ9zLw-kv7bl9qyUTz-14" value="Governance Server&lt;br&gt;OMAS Client" style="rounded=0;whiteSpace=wrap;html=1;rotation=-90;fillColor=#e1d5e7;strokeColor=#9673a6;" parent="1A0xML21-OaG5q6vJsk9-1" vertex="1">
          <mxGeometry x="482.87999999999994" y="2241.2" width="116.62" height="56.5" as="geometry" />
        </mxCell>
        <mxCell id="sAEZ9zLw-kv7bl9qyUTz-15" style="edgeStyle=orthogonalEdgeStyle;rounded=0;orthogonalLoop=1;jettySize=auto;html=1;exitX=0.5;exitY=1;exitDx=0;exitDy=0;" parent="1A0xML21-OaG5q6vJsk9-1" source="sAEZ9zLw-kv7bl9qyUTz-6" target="sAEZ9zLw-kv7bl9qyUTz-6" edge="1">
          <mxGeometry relative="1" as="geometry" />
        </mxCell>
        <mxCell id="sAEZ9zLw-kv7bl9qyUTz-16" value="REST API calls" style="text;html=1;align=center;verticalAlign=middle;resizable=0;points=[];;autosize=1;" parent="1A0xML21-OaG5q6vJsk9-1" vertex="1">
          <mxGeometry x="605.4300000000001" y="2276.25" width="100" height="20" as="geometry" />
        </mxCell>
        <mxCell id="sAEZ9zLw-kv7bl9qyUTz-17" value="OutTopic&lt;br&gt;Events" style="text;html=1;align=center;verticalAlign=middle;resizable=0;points=[];;autosize=1;" parent="1A0xML21-OaG5q6vJsk9-1" vertex="1">
          <mxGeometry x="581.4300000000001" y="2207.2" width="60" height="30" as="geometry" />
        </mxCell>
        <mxCell id="sAEZ9zLw-kv7bl9qyUTz-18" style="edgeStyle=orthogonalEdgeStyle;rounded=0;orthogonalLoop=1;jettySize=auto;html=1;exitX=0.25;exitY=1;exitDx=0;exitDy=0;entryX=0.5;entryY=0;entryDx=0;entryDy=0;startArrow=none;startFill=0;" parent="1A0xML21-OaG5q6vJsk9-1" source="sAEZ9zLw-kv7bl9qyUTz-10" target="sAEZ9zLw-kv7bl9qyUTz-20" edge="1">
          <mxGeometry relative="1" as="geometry">
            <mxPoint x="349.3299999999999" y="2209" as="sourcePoint" />
          </mxGeometry>
        </mxCell>
        <mxCell id="sAEZ9zLw-kv7bl9qyUTz-19" style="edgeStyle=orthogonalEdgeStyle;rounded=0;orthogonalLoop=1;jettySize=auto;html=1;exitX=0.5;exitY=1;exitDx=0;exitDy=0;entryX=0.25;entryY=0;entryDx=0;entryDy=0;startArrow=none;startFill=0;" parent="1A0xML21-OaG5q6vJsk9-1" source="sAEZ9zLw-kv7bl9qyUTz-20" target="sAEZ9zLw-kv7bl9qyUTz-25" edge="1">
          <mxGeometry relative="1" as="geometry">
            <mxPoint x="278.3299999999999" y="2291" as="targetPoint" />
          </mxGeometry>
        </mxCell>
        <mxCell id="sAEZ9zLw-kv7bl9qyUTz-20" value="Configuration&lt;br&gt;Handler" style="rounded=0;whiteSpace=wrap;html=1;fillColor=#ffe6cc;strokeColor=#d79b00;" parent="1A0xML21-OaG5q6vJsk9-1" vertex="1">
          <mxGeometry x="303.42999999999995" y="2276.25" width="90" height="44" as="geometry" />
        </mxCell>
        <mxCell id="sAEZ9zLw-kv7bl9qyUTz-21" value="Governance Server&lt;br&gt;OMAS" style="rounded=0;whiteSpace=wrap;html=1;rotation=-90;fillColor=#e1d5e7;strokeColor=#9673a6;" parent="1A0xML21-OaG5q6vJsk9-1" vertex="1">
          <mxGeometry x="710.4300000000001" y="2241.2" width="116.62" height="56.5" as="geometry" />
        </mxCell>
        <mxCell id="sAEZ9zLw-kv7bl9qyUTz-22" value="REST API" style="rounded=0;whiteSpace=wrap;html=1;rotation=-90;fillColor=#ffe6cc;strokeColor=#d79b00;" parent="1A0xML21-OaG5q6vJsk9-1" vertex="1">
          <mxGeometry x="192.85" y="2235.67" width="106.05" height="60" as="geometry" />
        </mxCell>
        <mxCell id="sAEZ9zLw-kv7bl9qyUTz-23" value="Asset Owner OMAS" style="rounded=0;whiteSpace=wrap;html=1;rotation=-90;fillColor=#e1d5e7;strokeColor=#9673a6;" parent="1A0xML21-OaG5q6vJsk9-1" vertex="1">
          <mxGeometry x="707.81" y="2487.43" width="117.66" height="55.14" as="geometry" />
        </mxCell>
        <mxCell id="sAEZ9zLw-kv7bl9qyUTz-24" value="" style="rounded=0;whiteSpace=wrap;html=1;verticalAlign=top;fillColor=#dae8fc;strokeColor=#6c8ebf;" parent="1A0xML21-OaG5q6vJsk9-1" vertex="1">
          <mxGeometry x="430.87999999999994" y="2372" width="35.1" height="20" as="geometry" />
        </mxCell>
        <mxCell id="sAEZ9zLw-kv7bl9qyUTz-25" value="" style="rounded=0;whiteSpace=wrap;html=1;verticalAlign=top;fillColor=#dae8fc;strokeColor=#6c8ebf;" parent="1A0xML21-OaG5q6vJsk9-1" vertex="1">
          <mxGeometry x="324.42999999999995" y="2371" width="220" height="174" as="geometry" />
        </mxCell>
        <mxCell id="sAEZ9zLw-kv7bl9qyUTz-26" style="edgeStyle=orthogonalEdgeStyle;rounded=0;orthogonalLoop=1;jettySize=auto;html=1;exitX=0.5;exitY=0;exitDx=0;exitDy=0;entryX=0.5;entryY=1;entryDx=0;entryDy=0;startArrow=classic;startFill=1;" parent="1A0xML21-OaG5q6vJsk9-1" target="sAEZ9zLw-kv7bl9qyUTz-0" edge="1">
          <mxGeometry relative="1" as="geometry">
            <Array as="points">
              <mxPoint x="246.43" y="2350" />
              <mxPoint x="267.43" y="2350" />
            </Array>
            <mxPoint x="245.87999999999997" y="2362" as="sourcePoint" />
          </mxGeometry>
        </mxCell>
        <mxCell id="sAEZ9zLw-kv7bl9qyUTz-27" value="REST API calls" style="text;html=1;align=center;verticalAlign=middle;resizable=0;points=[];;autosize=1;" parent="1A0xML21-OaG5q6vJsk9-1" vertex="1">
          <mxGeometry x="599.5000000000001" y="2491" width="100" height="20" as="geometry" />
        </mxCell>
        <mxCell id="sAEZ9zLw-kv7bl9qyUTz-28" value="Admin" style="rounded=0;whiteSpace=wrap;html=1;fillColor=#dae8fc;strokeColor=#6c8ebf;" parent="1A0xML21-OaG5q6vJsk9-1" vertex="1">
          <mxGeometry x="207.73000000000002" y="2361" width="61.45" height="40" as="geometry" />
        </mxCell>
        <mxCell id="sAEZ9zLw-kv7bl9qyUTz-29" value="REST API" style="rounded=0;whiteSpace=wrap;html=1;rotation=-90;fillColor=#dae8fc;strokeColor=#6c8ebf;" parent="1A0xML21-OaG5q6vJsk9-1" vertex="1">
          <mxGeometry x="190.95000000000002" y="2424" width="95" height="60" as="geometry" />
        </mxCell>
        <mxCell id="sAEZ9zLw-kv7bl9qyUTz-30" value="Survey&lt;br&gt;Action&lt;br&gt;Engine&lt;br&gt;Service" style="rounded=0;whiteSpace=wrap;html=1;verticalAlign=bottom;" parent="1A0xML21-OaG5q6vJsk9-1" vertex="1">
          <mxGeometry x="207.9" y="2359" width="81" height="207" as="geometry" />
        </mxCell>
        <mxCell id="sAEZ9zLw-kv7bl9qyUTz-31" value="Admin" style="rounded=0;whiteSpace=wrap;html=1;fillColor=#dae8fc;strokeColor=#6c8ebf;" parent="1A0xML21-OaG5q6vJsk9-1" vertex="1">
          <mxGeometry x="217.73000000000002" y="2367" width="61.45" height="40" as="geometry" />
        </mxCell>
        <mxCell id="sAEZ9zLw-kv7bl9qyUTz-32" value="REST API" style="rounded=0;whiteSpace=wrap;html=1;rotation=-90;fillColor=#dae8fc;strokeColor=#6c8ebf;" parent="1A0xML21-OaG5q6vJsk9-1" vertex="1">
          <mxGeometry x="206.9" y="2428.05" width="83.1" height="60" as="geometry" />
        </mxCell>
        <mxCell id="sAEZ9zLw-kv7bl9qyUTz-33" value="" style="rounded=0;whiteSpace=wrap;html=1;verticalAlign=top;fillColor=#dae8fc;strokeColor=#6c8ebf;" parent="1A0xML21-OaG5q6vJsk9-1" vertex="1">
          <mxGeometry x="334.42999999999995" y="2381" width="220" height="174" as="geometry" />
        </mxCell>
        <mxCell id="sAEZ9zLw-kv7bl9qyUTz-34" value="Survey Action Engine Handler" style="rounded=0;whiteSpace=wrap;html=1;verticalAlign=top;fillColor=#dae8fc;strokeColor=#6c8ebf;" parent="1A0xML21-OaG5q6vJsk9-1" vertex="1">
          <mxGeometry x="344.42999999999995" y="2391" width="220" height="174" as="geometry" />
        </mxCell>
        <mxCell id="sAEZ9zLw-kv7bl9qyUTz-35" value="Governance Services Map" style="rounded=0;whiteSpace=wrap;html=1;fillColor=#dae8fc;strokeColor=#6c8ebf;shadow=1;" parent="1A0xML21-OaG5q6vJsk9-1" vertex="1">
          <mxGeometry x="353.84999999999997" y="2424" width="200" height="40" as="geometry" />
        </mxCell>
        <mxCell id="sAEZ9zLw-kv7bl9qyUTz-36" value="Asset&lt;br&gt;Owner&lt;br&gt;OMAS&lt;br&gt;Client" style="rounded=0;whiteSpace=wrap;html=1;rotation=0;fillColor=#e1d5e7;strokeColor=#9673a6;" parent="1A0xML21-OaG5q6vJsk9-1" vertex="1">
          <mxGeometry x="482.84999999999997" y="2475" width="70" height="80" as="geometry" />
        </mxCell>
        <mxCell id="sAEZ9zLw-kv7bl9qyUTz-37" value="Governance&lt;br&gt;Service&lt;br&gt;Handler" style="rounded=0;whiteSpace=wrap;html=1;fillColor=#dae8fc;strokeColor=#6c8ebf;shadow=1;" parent="1A0xML21-OaG5q6vJsk9-1" vertex="1">
          <mxGeometry x="356.42999999999995" y="2475" width="95.95" height="60" as="geometry" />
        </mxCell>
        <mxCell id="sAEZ9zLw-kv7bl9qyUTz-38" style="edgeStyle=orthogonalEdgeStyle;rounded=0;orthogonalLoop=1;jettySize=auto;html=1;exitX=0.5;exitY=1;exitDx=0;exitDy=0;entryX=0.75;entryY=0;entryDx=0;entryDy=0;" parent="1A0xML21-OaG5q6vJsk9-1" source="sAEZ9zLw-kv7bl9qyUTz-12" target="sAEZ9zLw-kv7bl9qyUTz-33" edge="1">
          <mxGeometry relative="1" as="geometry" />
        </mxCell>
        <mxCell id="sAEZ9zLw-kv7bl9qyUTz-39" style="edgeStyle=orthogonalEdgeStyle;rounded=0;orthogonalLoop=1;jettySize=auto;html=1;" parent="1A0xML21-OaG5q6vJsk9-1" source="sAEZ9zLw-kv7bl9qyUTz-30" target="sAEZ9zLw-kv7bl9qyUTz-34" edge="1">
          <mxGeometry relative="1" as="geometry" />
        </mxCell>
        <mxCell id="sAEZ9zLw-kv7bl9qyUTz-40" value="Governance&lt;br&gt;Service&lt;br&gt;Handler" style="rounded=0;whiteSpace=wrap;html=1;fillColor=#dae8fc;strokeColor=#6c8ebf;shadow=1;" parent="1A0xML21-OaG5q6vJsk9-1" vertex="1">
          <mxGeometry x="366.42999999999995" y="2485" width="95.95" height="60" as="geometry" />
        </mxCell>
        <mxCell id="sAEZ9zLw-kv7bl9qyUTz-41" value="Survey Action&lt;br&gt;Service&lt;br&gt;Handler" style="rounded=0;whiteSpace=wrap;html=1;fillColor=#dae8fc;strokeColor=#6c8ebf;shadow=1;" parent="1A0xML21-OaG5q6vJsk9-1" vertex="1">
          <mxGeometry x="376.42999999999995" y="2495" width="95.95" height="60" as="geometry" />
        </mxCell>
        <mxCell id="sAEZ9zLw-kv7bl9qyUTz-42" style="edgeStyle=orthogonalEdgeStyle;rounded=0;orthogonalLoop=1;jettySize=auto;html=1;entryX=0.5;entryY=0;entryDx=0;entryDy=0;" parent="1A0xML21-OaG5q6vJsk9-1" source="sAEZ9zLw-kv7bl9qyUTz-36" target="sAEZ9zLw-kv7bl9qyUTz-23" edge="1">
          <mxGeometry relative="1" as="geometry" />
        </mxCell>
        <mxCell id="sAEZ9zLw-kv7bl9qyUTz-43" value="Audit Log (Repository Services)" style="rounded=0;whiteSpace=wrap;html=1;fillColor=#d5e8d4;strokeColor=#82b366;" parent="1A0xML21-OaG5q6vJsk9-1" vertex="1">
          <mxGeometry x="201.93" y="2575" width="370" height="60" as="geometry" />
        </mxCell>
        <mxCell id="zmipmboTy6oqKyg7FrRs-0" style="edgeStyle=orthogonalEdgeStyle;rounded=0;orthogonalLoop=1;jettySize=auto;html=1;entryX=1;entryY=0.25;entryDx=0;entryDy=0;" parent="1A0xML21-OaG5q6vJsk9-1" source="zmipmboTy6oqKyg7FrRs-1" target="-X61TCMz17pQ7-oCpkFn-81" edge="1">
          <mxGeometry relative="1" as="geometry">
            <mxPoint x="562.98" y="874" as="targetPoint" />
          </mxGeometry>
        </mxCell>
        <mxCell id="zmipmboTy6oqKyg7FrRs-1" value="" style="shape=partialRectangle;whiteSpace=wrap;html=1;bottom=1;right=1;left=1;top=0;fillColor=none;routingCenterX=-0.5;" parent="1A0xML21-OaG5q6vJsk9-1" vertex="1">
          <mxGeometry x="649.0000000000001" y="854" width="30" height="40" as="geometry" />
        </mxCell>
        <mxCell id="zmipmboTy6oqKyg7FrRs-2" value="Out&lt;br&gt;Topic" style="text;html=1;align=center;verticalAlign=middle;resizable=0;points=[];;autosize=1;" parent="1A0xML21-OaG5q6vJsk9-1" vertex="1">
          <mxGeometry x="644.0000000000001" y="859" width="40" height="30" as="geometry" />
        </mxCell>
        <mxCell id="zmipmboTy6oqKyg7FrRs-3" style="edgeStyle=orthogonalEdgeStyle;rounded=0;orthogonalLoop=1;jettySize=auto;html=1;entryX=1;entryY=0.5;entryDx=0;entryDy=0;exitX=0.75;exitY=0;exitDx=0;exitDy=0;" parent="1A0xML21-OaG5q6vJsk9-1" source="-X61TCMz17pQ7-oCpkFn-89" target="zmipmboTy6oqKyg7FrRs-1" edge="1">
          <mxGeometry relative="1" as="geometry">
            <mxPoint x="734" y="870" as="sourcePoint" />
          </mxGeometry>
        </mxCell>
        <mxCell id="zmipmboTy6oqKyg7FrRs-4" style="edgeStyle=orthogonalEdgeStyle;rounded=0;orthogonalLoop=1;jettySize=auto;html=1;exitX=0.5;exitY=1;exitDx=0;exitDy=0;" parent="1A0xML21-OaG5q6vJsk9-1" source="zmipmboTy6oqKyg7FrRs-1" target="zmipmboTy6oqKyg7FrRs-1" edge="1">
          <mxGeometry relative="1" as="geometry" />
        </mxCell>
        <mxCell id="zmipmboTy6oqKyg7FrRs-5" value="OutTopic&lt;br&gt;Events" style="text;html=1;align=center;verticalAlign=middle;resizable=0;points=[];;autosize=1;" parent="1A0xML21-OaG5q6vJsk9-1" vertex="1">
          <mxGeometry x="575.0400000000001" y="841.2" width="60" height="30" as="geometry" />
        </mxCell>
      </root>
    </mxGraphModel>
  </diagram>
  <diagram id="Oyfvc3mISjjStYbbHkgd" name="flow">
    <mxGraphModel dx="1186" dy="773" grid="1" gridSize="10" guides="1" tooltips="1" connect="1" arrows="1" fold="1" page="1" pageScale="1" pageWidth="827" pageHeight="1169" math="0" shadow="0">
      <root>
        <mxCell id="c5ygWPNdhiJH1NRNJ2C4-0" />
        <mxCell id="c5ygWPNdhiJH1NRNJ2C4-1" parent="c5ygWPNdhiJH1NRNJ2C4-0" />
        <mxCell id="c5ygWPNdhiJH1NRNJ2C4-2" value="Asset Analysis" style="text;html=1;strokeColor=none;fillColor=none;align=center;verticalAlign=middle;whiteSpace=wrap;rounded=0;" parent="c5ygWPNdhiJH1NRNJ2C4-1" vertex="1">
          <mxGeometry x="60" y="80" width="100" height="20" as="geometry" />
        </mxCell>
        <mxCell id="c5ygWPNdhiJH1NRNJ2C4-3" value="OpenDiscoveryEngine" style="text;html=1;align=center;verticalAlign=middle;resizable=0;points=[];autosize=1;" parent="c5ygWPNdhiJH1NRNJ2C4-1" vertex="1">
          <mxGeometry x="255" y="80" width="130" height="20" as="geometry" />
        </mxCell>
        <mxCell id="c5ygWPNdhiJH1NRNJ2C4-4" value="OpenDiscoveryService" style="text;html=1;align=center;verticalAlign=middle;resizable=0;points=[];autosize=1;" parent="c5ygWPNdhiJH1NRNJ2C4-1" vertex="1">
          <mxGeometry x="640" y="80" width="140" height="20" as="geometry" />
        </mxCell>
        <mxCell id="c5ygWPNdhiJH1NRNJ2C4-5" value="Engine Service" style="text;html=1;align=center;verticalAlign=middle;resizable=0;points=[];autosize=1;fontStyle=1" parent="c5ygWPNdhiJH1NRNJ2C4-1" vertex="1">
          <mxGeometry x="60" y="30" width="100" height="20" as="geometry" />
        </mxCell>
        <mxCell id="c5ygWPNdhiJH1NRNJ2C4-6" value="Engine Type" style="text;html=1;align=center;verticalAlign=middle;resizable=0;points=[];autosize=1;fontStyle=1" parent="c5ygWPNdhiJH1NRNJ2C4-1" vertex="1">
          <mxGeometry x="275" y="30" width="90" height="20" as="geometry" />
        </mxCell>
        <mxCell id="c5ygWPNdhiJH1NRNJ2C4-7" value="Type of service invoked" style="text;html=1;align=center;verticalAlign=middle;resizable=0;points=[];autosize=1;fontStyle=1" parent="c5ygWPNdhiJH1NRNJ2C4-1" vertex="1">
          <mxGeometry x="635" y="30" width="150" height="20" as="geometry" />
        </mxCell>
        <mxCell id="c5ygWPNdhiJH1NRNJ2C4-8" value="Request Triage" style="text;html=1;align=center;verticalAlign=middle;resizable=0;points=[];autosize=1;" parent="c5ygWPNdhiJH1NRNJ2C4-1" vertex="1">
          <mxGeometry x="60" y="185" width="100" height="20" as="geometry" />
        </mxCell>
        <mxCell id="c5ygWPNdhiJH1NRNJ2C4-9" value="OpenTriageEngine" style="text;html=1;align=center;verticalAlign=middle;resizable=0;points=[];autosize=1;" parent="c5ygWPNdhiJH1NRNJ2C4-1" vertex="1">
          <mxGeometry x="260" y="185" width="120" height="20" as="geometry" />
        </mxCell>
        <mxCell id="c5ygWPNdhiJH1NRNJ2C4-10" value="Request Type" style="text;html=1;align=center;verticalAlign=middle;resizable=0;points=[];autosize=1;fontStyle=1" parent="c5ygWPNdhiJH1NRNJ2C4-1" vertex="1">
          <mxGeometry x="480" y="30" width="90" height="20" as="geometry" />
        </mxCell>
        <mxCell id="c5ygWPNdhiJH1NRNJ2C4-11" value="Discovery Request Type" style="text;html=1;align=center;verticalAlign=middle;resizable=0;points=[];autosize=1;" parent="c5ygWPNdhiJH1NRNJ2C4-1" vertex="1">
          <mxGeometry x="450" y="80" width="150" height="20" as="geometry" />
        </mxCell>
        <mxCell id="c5ygWPNdhiJH1NRNJ2C4-12" value="Triage Request Type" style="text;html=1;align=center;verticalAlign=middle;resizable=0;points=[];autosize=1;" parent="c5ygWPNdhiJH1NRNJ2C4-1" vertex="1">
          <mxGeometry x="460" y="185" width="130" height="20" as="geometry" />
        </mxCell>
        <mxCell id="c5ygWPNdhiJH1NRNJ2C4-13" value="OpenTriageService" style="text;html=1;align=center;verticalAlign=middle;resizable=0;points=[];autosize=1;" parent="c5ygWPNdhiJH1NRNJ2C4-1" vertex="1">
          <mxGeometry x="650" y="185" width="120" height="20" as="geometry" />
        </mxCell>
        <mxCell id="c5ygWPNdhiJH1NRNJ2C4-14" value="Issue Remediation" style="text;html=1;align=center;verticalAlign=middle;resizable=0;points=[];autosize=1;" parent="c5ygWPNdhiJH1NRNJ2C4-1" vertex="1">
          <mxGeometry x="55" y="235" width="110" height="20" as="geometry" />
        </mxCell>
        <mxCell id="c5ygWPNdhiJH1NRNJ2C4-15" value="OpenRemediationEngine" style="text;html=1;align=center;verticalAlign=middle;resizable=0;points=[];autosize=1;" parent="c5ygWPNdhiJH1NRNJ2C4-1" vertex="1">
          <mxGeometry x="245" y="235" width="150" height="20" as="geometry" />
        </mxCell>
        <mxCell id="c5ygWPNdhiJH1NRNJ2C4-16" value="Remediation Request Type" style="text;html=1;align=center;verticalAlign=middle;resizable=0;points=[];autosize=1;" parent="c5ygWPNdhiJH1NRNJ2C4-1" vertex="1">
          <mxGeometry x="445" y="235" width="160" height="20" as="geometry" />
        </mxCell>
        <mxCell id="c5ygWPNdhiJH1NRNJ2C4-17" value="OpenRemediationService" style="text;html=1;align=center;verticalAlign=middle;resizable=0;points=[];autosize=1;" parent="c5ygWPNdhiJH1NRNJ2C4-1" vertex="1">
          <mxGeometry x="635" y="235" width="150" height="20" as="geometry" />
        </mxCell>
        <mxCell id="c5ygWPNdhiJH1NRNJ2C4-18" value="Action Scheduler" style="text;html=1;align=center;verticalAlign=middle;resizable=0;points=[];autosize=1;" parent="c5ygWPNdhiJH1NRNJ2C4-1" vertex="1">
          <mxGeometry x="55" y="280" width="110" height="20" as="geometry" />
        </mxCell>
        <mxCell id="c5ygWPNdhiJH1NRNJ2C4-19" value="OpenSchedulingEngine" style="text;html=1;align=center;verticalAlign=middle;resizable=0;points=[];autosize=1;" parent="c5ygWPNdhiJH1NRNJ2C4-1" vertex="1">
          <mxGeometry x="250" y="280" width="140" height="20" as="geometry" />
        </mxCell>
        <mxCell id="c5ygWPNdhiJH1NRNJ2C4-20" value="Scheduling Action Type" style="text;html=1;align=center;verticalAlign=middle;resizable=0;points=[];autosize=1;" parent="c5ygWPNdhiJH1NRNJ2C4-1" vertex="1">
          <mxGeometry x="455" y="280" width="140" height="20" as="geometry" />
        </mxCell>
        <mxCell id="c5ygWPNdhiJH1NRNJ2C4-21" value="OpenSchedulingService" style="text;html=1;align=center;verticalAlign=middle;resizable=0;points=[];autosize=1;" parent="c5ygWPNdhiJH1NRNJ2C4-1" vertex="1">
          <mxGeometry x="640" y="280" width="140" height="20" as="geometry" />
        </mxCell>
        <mxCell id="c5ygWPNdhiJH1NRNJ2C4-22" value="Asset Provisioning" style="text;html=1;align=center;verticalAlign=middle;resizable=0;points=[];autosize=1;" parent="c5ygWPNdhiJH1NRNJ2C4-1" vertex="1">
          <mxGeometry x="55" y="325" width="110" height="20" as="geometry" />
        </mxCell>
        <mxCell id="c5ygWPNdhiJH1NRNJ2C4-23" value="OpenProvisioningEngine" style="text;html=1;align=center;verticalAlign=middle;resizable=0;points=[];autosize=1;" parent="c5ygWPNdhiJH1NRNJ2C4-1" vertex="1">
          <mxGeometry x="245" y="325" width="150" height="20" as="geometry" />
        </mxCell>
        <mxCell id="c5ygWPNdhiJH1NRNJ2C4-24" value="Provisioning Request Type" style="text;html=1;align=center;verticalAlign=middle;resizable=0;points=[];autosize=1;" parent="c5ygWPNdhiJH1NRNJ2C4-1" vertex="1">
          <mxGeometry x="445" y="325" width="160" height="20" as="geometry" />
        </mxCell>
        <mxCell id="c5ygWPNdhiJH1NRNJ2C4-25" value="OpenProvisioningService" style="text;html=1;align=center;verticalAlign=middle;resizable=0;points=[];autosize=1;" parent="c5ygWPNdhiJH1NRNJ2C4-1" vertex="1">
          <mxGeometry x="635" y="325" width="150" height="20" as="geometry" />
        </mxCell>
        <mxCell id="c5ygWPNdhiJH1NRNJ2C4-26" value="Metadata Watchdog" style="text;html=1;align=center;verticalAlign=middle;resizable=0;points=[];autosize=1;" parent="c5ygWPNdhiJH1NRNJ2C4-1" vertex="1">
          <mxGeometry x="50" y="120" width="120" height="20" as="geometry" />
        </mxCell>
        <mxCell id="c5ygWPNdhiJH1NRNJ2C4-27" value="OpenWatchdogEngine" style="text;html=1;align=center;verticalAlign=middle;resizable=0;points=[];autosize=1;" parent="c5ygWPNdhiJH1NRNJ2C4-1" vertex="1">
          <mxGeometry x="250" y="120" width="140" height="20" as="geometry" />
        </mxCell>
        <mxCell id="c5ygWPNdhiJH1NRNJ2C4-28" value="Watchdog Request Type" style="text;html=1;align=center;verticalAlign=middle;resizable=0;points=[];autosize=1;" parent="c5ygWPNdhiJH1NRNJ2C4-1" vertex="1">
          <mxGeometry x="450" y="120" width="150" height="20" as="geometry" />
        </mxCell>
        <mxCell id="c5ygWPNdhiJH1NRNJ2C4-29" value="OpenWatchdogService" style="text;html=1;align=center;verticalAlign=middle;resizable=0;points=[];autosize=1;" parent="c5ygWPNdhiJH1NRNJ2C4-1" vertex="1">
          <mxGeometry x="640" y="120" width="140" height="20" as="geometry" />
        </mxCell>
        <mxCell id="c5ygWPNdhiJH1NRNJ2C4-30" value="Action taken" style="text;html=1;align=center;verticalAlign=middle;resizable=0;points=[];autosize=1;fontStyle=1" parent="c5ygWPNdhiJH1NRNJ2C4-1" vertex="1">
          <mxGeometry x="835" y="30" width="90" height="20" as="geometry" />
        </mxCell>
        <mxCell id="c5ygWPNdhiJH1NRNJ2C4-31" value="Analyses the content of an asset&#39;s real world counterpart, generates annotations&lt;br&gt;in an open discovery report that is attached to the asset in the open metadata repositories&amp;nbsp;" style="text;html=1;align=left;verticalAlign=middle;resizable=0;points=[];autosize=1;" parent="c5ygWPNdhiJH1NRNJ2C4-1" vertex="1">
          <mxGeometry x="840" y="80" width="500" height="30" as="geometry" />
        </mxCell>
        <mxCell id="c5ygWPNdhiJH1NRNJ2C4-32" value="Partner OMAS" style="text;html=1;align=center;verticalAlign=middle;resizable=0;points=[];autosize=1;" parent="c5ygWPNdhiJH1NRNJ2C4-1" vertex="1">
          <mxGeometry x="1400" y="30" width="90" height="20" as="geometry" />
        </mxCell>
        <mxCell id="c5ygWPNdhiJH1NRNJ2C4-33" value="Discovery Engine" style="text;html=1;align=center;verticalAlign=middle;resizable=0;points=[];autosize=1;" parent="c5ygWPNdhiJH1NRNJ2C4-1" vertex="1">
          <mxGeometry x="1390" y="80" width="110" height="20" as="geometry" />
        </mxCell>
        <mxCell id="c5ygWPNdhiJH1NRNJ2C4-34" value="Monitors changes in the metadata and initiates updates as a result.&amp;nbsp; One example of a&lt;br&gt;watchdog service is duplicate detection. Another example is to monitor the addition of&lt;br&gt;open discovery reports and take action on their content.&amp;nbsp; Examples of updates include&lt;br&gt;creating RequestForAction instances.&amp;nbsp;&amp;nbsp;" style="text;html=1;align=left;verticalAlign=middle;resizable=0;points=[];autosize=1;" parent="c5ygWPNdhiJH1NRNJ2C4-1" vertex="1">
          <mxGeometry x="840" y="120" width="470" height="60" as="geometry" />
        </mxCell>
        <mxCell id="c5ygWPNdhiJH1NRNJ2C4-35" value="Asset Manager" style="text;html=1;align=center;verticalAlign=middle;resizable=0;points=[];autosize=1;" parent="c5ygWPNdhiJH1NRNJ2C4-1" vertex="1">
          <mxGeometry x="1395" y="120" width="100" height="20" as="geometry" />
        </mxCell>
        <mxCell id="c5ygWPNdhiJH1NRNJ2C4-36" value="Monitors for new/changed RequestForAction instances and runs triage rules to determine&lt;br&gt;how to manage the request.&amp;nbsp; This could be to initiate an external workflow, wait for manual&lt;br&gt;decision or initiate a remediation request." style="text;html=1;align=left;verticalAlign=middle;resizable=0;points=[];autosize=1;" parent="c5ygWPNdhiJH1NRNJ2C4-1" vertex="1">
          <mxGeometry x="840" y="185" width="490" height="50" as="geometry" />
        </mxCell>
        <mxCell id="c5ygWPNdhiJH1NRNJ2C4-37" value="Stewardship Action&amp;nbsp;" style="text;html=1;align=center;verticalAlign=middle;resizable=0;points=[];autosize=1;" parent="c5ygWPNdhiJH1NRNJ2C4-1" vertex="1">
          <mxGeometry x="1385" y="185" width="120" height="20" as="geometry" />
        </mxCell>
        <mxCell id="c5ygWPNdhiJH1NRNJ2C4-38" value="Monitors for RemediationRequest instances and runs the requested remediation service.&lt;br&gt;Examples of remediation services are duplicate linking and consolidating." style="text;html=1;align=left;verticalAlign=middle;resizable=0;points=[];autosize=1;" parent="c5ygWPNdhiJH1NRNJ2C4-1" vertex="1">
          <mxGeometry x="840" y="240" width="490" height="30" as="geometry" />
        </mxCell>
        <mxCell id="c5ygWPNdhiJH1NRNJ2C4-39" value="Maintains a calendar of events and creates RequestForAction instances at the requested&lt;br&gt;time.&amp;nbsp; For example, it may move assets between zones when a particular date is reached." style="text;html=1;align=left;verticalAlign=middle;resizable=0;points=[];autosize=1;" parent="c5ygWPNdhiJH1NRNJ2C4-1" vertex="1">
          <mxGeometry x="840" y="280" width="490" height="30" as="geometry" />
        </mxCell>
        <mxCell id="c5ygWPNdhiJH1NRNJ2C4-40" value="Invokes a provisioning service whenever a provisioning request is made.&amp;nbsp; Typically the&lt;br&gt;provisioning service is an external service.&amp;nbsp; It may also create lineage metadata to&lt;br&gt;describe the work of the provisioning engine." style="text;html=1;align=left;verticalAlign=middle;resizable=0;points=[];autosize=1;" parent="c5ygWPNdhiJH1NRNJ2C4-1" vertex="1">
          <mxGeometry x="840" y="315" width="470" height="50" as="geometry" />
        </mxCell>
        <mxCell id="c5ygWPNdhiJH1NRNJ2C4-56" style="edgeStyle=orthogonalEdgeStyle;rounded=1;orthogonalLoop=1;jettySize=auto;html=1;entryX=0;entryY=0.5;entryDx=0;entryDy=0;" parent="c5ygWPNdhiJH1NRNJ2C4-1" source="c5ygWPNdhiJH1NRNJ2C4-41" target="c5ygWPNdhiJH1NRNJ2C4-42" edge="1">
          <mxGeometry relative="1" as="geometry" />
        </mxCell>
        <mxCell id="c5ygWPNdhiJH1NRNJ2C4-63" style="edgeStyle=orthogonalEdgeStyle;rounded=1;orthogonalLoop=1;jettySize=auto;html=1;" parent="c5ygWPNdhiJH1NRNJ2C4-1" source="c5ygWPNdhiJH1NRNJ2C4-41" target="c5ygWPNdhiJH1NRNJ2C4-62" edge="1">
          <mxGeometry relative="1" as="geometry" />
        </mxCell>
        <mxCell id="c5ygWPNdhiJH1NRNJ2C4-41" value="Triage" style="rounded=1;whiteSpace=wrap;html=1;align=center;fillColor=#d5e8d4;strokeColor=#82b366;shadow=1;" parent="c5ygWPNdhiJH1NRNJ2C4-1" vertex="1">
          <mxGeometry x="820" y="500" width="120" height="60" as="geometry" />
        </mxCell>
        <mxCell id="c5ygWPNdhiJH1NRNJ2C4-66" style="edgeStyle=orthogonalEdgeStyle;rounded=1;orthogonalLoop=1;jettySize=auto;html=1;entryX=0;entryY=0.5;entryDx=0;entryDy=0;exitX=0.5;exitY=0;exitDx=0;exitDy=0;" parent="c5ygWPNdhiJH1NRNJ2C4-1" source="c5ygWPNdhiJH1NRNJ2C4-42" target="c5ygWPNdhiJH1NRNJ2C4-41" edge="1">
          <mxGeometry relative="1" as="geometry">
            <Array as="points">
              <mxPoint x="1045" y="480" />
              <mxPoint x="780" y="480" />
              <mxPoint x="780" y="530" />
            </Array>
          </mxGeometry>
        </mxCell>
        <mxCell id="c5ygWPNdhiJH1NRNJ2C4-73" style="edgeStyle=orthogonalEdgeStyle;rounded=1;orthogonalLoop=1;jettySize=auto;html=1;exitX=0.5;exitY=1;exitDx=0;exitDy=0;entryX=0.5;entryY=0;entryDx=0;entryDy=0;" parent="c5ygWPNdhiJH1NRNJ2C4-1" source="c5ygWPNdhiJH1NRNJ2C4-42" target="c5ygWPNdhiJH1NRNJ2C4-62" edge="1">
          <mxGeometry relative="1" as="geometry" />
        </mxCell>
        <mxCell id="c5ygWPNdhiJH1NRNJ2C4-42" value="Remediation" style="rounded=1;whiteSpace=wrap;html=1;align=center;fillColor=#d5e8d4;strokeColor=#82b366;shadow=1;" parent="c5ygWPNdhiJH1NRNJ2C4-1" vertex="1">
          <mxGeometry x="985" y="500" width="120" height="60" as="geometry" />
        </mxCell>
        <mxCell id="9hcewmvWIrWSBs_9ATBT-0" style="edgeStyle=orthogonalEdgeStyle;rounded=0;orthogonalLoop=1;jettySize=auto;html=1;exitX=0.5;exitY=1;exitDx=0;exitDy=0;entryX=0.5;entryY=0;entryDx=0;entryDy=0;startArrow=classic;startFill=1;" parent="c5ygWPNdhiJH1NRNJ2C4-1" source="c5ygWPNdhiJH1NRNJ2C4-43" target="c5ygWPNdhiJH1NRNJ2C4-45" edge="1">
          <mxGeometry relative="1" as="geometry" />
        </mxCell>
        <mxCell id="c5ygWPNdhiJH1NRNJ2C4-43" value="WatchDog" style="rounded=1;whiteSpace=wrap;html=1;align=center;fillColor=#d5e8d4;strokeColor=#82b366;shadow=1;" parent="c5ygWPNdhiJH1NRNJ2C4-1" vertex="1">
          <mxGeometry x="620" y="500" width="120" height="60" as="geometry" />
        </mxCell>
        <mxCell id="c5ygWPNdhiJH1NRNJ2C4-54" style="edgeStyle=orthogonalEdgeStyle;rounded=0;orthogonalLoop=1;jettySize=auto;html=1;entryX=0;entryY=0.5;entryDx=0;entryDy=0;" parent="c5ygWPNdhiJH1NRNJ2C4-1" source="c5ygWPNdhiJH1NRNJ2C4-44" target="c5ygWPNdhiJH1NRNJ2C4-43" edge="1">
          <mxGeometry relative="1" as="geometry">
            <mxPoint x="645" y="530" as="targetPoint" />
          </mxGeometry>
        </mxCell>
        <mxCell id="c5ygWPNdhiJH1NRNJ2C4-44" value="Asset Analytics&lt;br&gt;(Discovery)" style="rounded=1;whiteSpace=wrap;html=1;align=center;fillColor=#d5e8d4;strokeColor=#82b366;shadow=1;" parent="c5ygWPNdhiJH1NRNJ2C4-1" vertex="1">
          <mxGeometry x="445" y="500" width="120" height="60" as="geometry" />
        </mxCell>
        <mxCell id="c5ygWPNdhiJH1NRNJ2C4-55" style="edgeStyle=orthogonalEdgeStyle;rounded=1;orthogonalLoop=1;jettySize=auto;html=1;entryX=0;entryY=0.5;entryDx=0;entryDy=0;" parent="c5ygWPNdhiJH1NRNJ2C4-1" source="c5ygWPNdhiJH1NRNJ2C4-45" target="c5ygWPNdhiJH1NRNJ2C4-41" edge="1">
          <mxGeometry relative="1" as="geometry" />
        </mxCell>
        <mxCell id="c5ygWPNdhiJH1NRNJ2C4-45" value="Verification" style="rounded=1;whiteSpace=wrap;html=1;align=center;fillColor=#d5e8d4;strokeColor=#82b366;shadow=1;" parent="c5ygWPNdhiJH1NRNJ2C4-1" vertex="1">
          <mxGeometry x="620" y="600" width="120" height="60" as="geometry" />
        </mxCell>
        <mxCell id="c5ygWPNdhiJH1NRNJ2C4-53" value="" style="endArrow=classic;html=1;exitX=1;exitY=0.5;exitDx=0;exitDy=0;entryX=0;entryY=0.5;entryDx=0;entryDy=0;edgeStyle=orthogonalEdgeStyle;" parent="c5ygWPNdhiJH1NRNJ2C4-1" source="c5ygWPNdhiJH1NRNJ2C4-43" target="c5ygWPNdhiJH1NRNJ2C4-41" edge="1">
          <mxGeometry width="50" height="50" relative="1" as="geometry">
            <mxPoint x="732.5" y="620" as="sourcePoint" />
            <mxPoint x="782.5" y="570" as="targetPoint" />
          </mxGeometry>
        </mxCell>
        <mxCell id="c5ygWPNdhiJH1NRNJ2C4-58" style="edgeStyle=orthogonalEdgeStyle;rounded=1;orthogonalLoop=1;jettySize=auto;html=1;entryX=0;entryY=0.75;entryDx=0;entryDy=0;exitX=1;exitY=0.25;exitDx=0;exitDy=0;" parent="c5ygWPNdhiJH1NRNJ2C4-1" source="c5ygWPNdhiJH1NRNJ2C4-57" target="c5ygWPNdhiJH1NRNJ2C4-44" edge="1">
          <mxGeometry relative="1" as="geometry" />
        </mxCell>
        <mxCell id="c5ygWPNdhiJH1NRNJ2C4-71" style="edgeStyle=orthogonalEdgeStyle;rounded=1;orthogonalLoop=1;jettySize=auto;html=1;exitX=1;exitY=0.75;exitDx=0;exitDy=0;entryX=0;entryY=0.5;entryDx=0;entryDy=0;" parent="c5ygWPNdhiJH1NRNJ2C4-1" source="c5ygWPNdhiJH1NRNJ2C4-57" target="c5ygWPNdhiJH1NRNJ2C4-43" edge="1">
          <mxGeometry relative="1" as="geometry">
            <Array as="points">
              <mxPoint x="587.5" y="575" />
              <mxPoint x="587.5" y="530" />
            </Array>
          </mxGeometry>
        </mxCell>
        <mxCell id="c5ygWPNdhiJH1NRNJ2C4-57" value="Provisioning" style="rounded=1;whiteSpace=wrap;html=1;align=center;fillColor=#d5e8d4;strokeColor=#82b366;shadow=1;" parent="c5ygWPNdhiJH1NRNJ2C4-1" vertex="1">
          <mxGeometry x="275" y="530" width="120" height="60" as="geometry" />
        </mxCell>
        <mxCell id="c5ygWPNdhiJH1NRNJ2C4-60" style="edgeStyle=orthogonalEdgeStyle;rounded=1;orthogonalLoop=1;jettySize=auto;html=1;entryX=0;entryY=0.5;entryDx=0;entryDy=0;" parent="c5ygWPNdhiJH1NRNJ2C4-1" source="c5ygWPNdhiJH1NRNJ2C4-59" target="c5ygWPNdhiJH1NRNJ2C4-57" edge="1">
          <mxGeometry relative="1" as="geometry" />
        </mxCell>
        <mxCell id="c5ygWPNdhiJH1NRNJ2C4-61" style="edgeStyle=orthogonalEdgeStyle;rounded=1;orthogonalLoop=1;jettySize=auto;html=1;entryX=0;entryY=0.25;entryDx=0;entryDy=0;" parent="c5ygWPNdhiJH1NRNJ2C4-1" source="c5ygWPNdhiJH1NRNJ2C4-59" target="c5ygWPNdhiJH1NRNJ2C4-44" edge="1">
          <mxGeometry relative="1" as="geometry" />
        </mxCell>
        <mxCell id="c5ygWPNdhiJH1NRNJ2C4-65" style="edgeStyle=orthogonalEdgeStyle;rounded=1;orthogonalLoop=1;jettySize=auto;html=1;entryX=0;entryY=0.75;entryDx=0;entryDy=0;" parent="c5ygWPNdhiJH1NRNJ2C4-1" target="c5ygWPNdhiJH1NRNJ2C4-62" edge="1">
          <mxGeometry relative="1" as="geometry">
            <mxPoint x="170" y="570" as="sourcePoint" />
            <Array as="points">
              <mxPoint x="170" y="735" />
            </Array>
          </mxGeometry>
        </mxCell>
        <mxCell id="c5ygWPNdhiJH1NRNJ2C4-59" value="Actor" style="shape=umlActor;verticalLabelPosition=bottom;verticalAlign=top;html=1;outlineConnect=0;align=center;" parent="c5ygWPNdhiJH1NRNJ2C4-1" vertex="1">
          <mxGeometry x="170" y="485" width="30" height="60" as="geometry" />
        </mxCell>
        <mxCell id="c5ygWPNdhiJH1NRNJ2C4-64" style="edgeStyle=orthogonalEdgeStyle;rounded=1;orthogonalLoop=1;jettySize=auto;html=1;exitX=0;exitY=0.25;exitDx=0;exitDy=0;" parent="c5ygWPNdhiJH1NRNJ2C4-1" source="c5ygWPNdhiJH1NRNJ2C4-62" edge="1">
          <mxGeometry relative="1" as="geometry">
            <mxPoint x="200" y="570" as="targetPoint" />
          </mxGeometry>
        </mxCell>
        <mxCell id="c5ygWPNdhiJH1NRNJ2C4-62" value="External&lt;br&gt;Human Task&lt;br&gt;Manager" style="shape=process;whiteSpace=wrap;html=1;backgroundOutline=1;align=center;" parent="c5ygWPNdhiJH1NRNJ2C4-1" vertex="1">
          <mxGeometry x="820" y="690" width="120" height="60" as="geometry" />
        </mxCell>
        <mxCell id="c5ygWPNdhiJH1NRNJ2C4-67" value="Asset Manager" style="text;html=1;align=center;verticalAlign=middle;resizable=0;points=[];autosize=1;" parent="c5ygWPNdhiJH1NRNJ2C4-1" vertex="1">
          <mxGeometry x="1395" y="240" width="100" height="20" as="geometry" />
        </mxCell>
        <mxCell id="c5ygWPNdhiJH1NRNJ2C4-69" value="Asset Manager" style="text;html=1;align=center;verticalAlign=middle;resizable=0;points=[];autosize=1;" parent="c5ygWPNdhiJH1NRNJ2C4-1" vertex="1">
          <mxGeometry x="1395" y="280" width="100" height="20" as="geometry" />
        </mxCell>
        <mxCell id="c5ygWPNdhiJH1NRNJ2C4-70" value="Asset Manager" style="text;html=1;align=center;verticalAlign=middle;resizable=0;points=[];autosize=1;" parent="c5ygWPNdhiJH1NRNJ2C4-1" vertex="1">
          <mxGeometry x="1395" y="330" width="100" height="20" as="geometry" />
        </mxCell>
      </root>
    </mxGraphModel>
  </diagram>
  <diagram name="stewardship-packs" id="as3m5yBZhK8DM3LAN-Ig">
    <mxGraphModel dx="1194" dy="775" grid="1" gridSize="10" guides="1" tooltips="1" connect="1" arrows="1" fold="1" page="1" pageScale="1" pageWidth="827" pageHeight="1169" math="0" shadow="0">
      <root>
        <mxCell id="qQWXcRXsqh0KF4nfNaiS-0" />
        <mxCell id="qQWXcRXsqh0KF4nfNaiS-1" parent="qQWXcRXsqh0KF4nfNaiS-0" />
        <mxCell id="teNf4iNM8CvdhOAByZOi-0" value="" style="rounded=0;whiteSpace=wrap;html=1;align=right;fillColor=#d5e8d4;strokeColor=#82b366;" parent="qQWXcRXsqh0KF4nfNaiS-1" vertex="1">
          <mxGeometry x="353.1" y="560" width="160" height="170" as="geometry" />
        </mxCell>
        <mxCell id="teNf4iNM8CvdhOAByZOi-1" value="Discovery Engine" style="rounded=0;whiteSpace=wrap;html=1;verticalAlign=top;fillColor=#fff2cc;strokeColor=#d6b656;" parent="qQWXcRXsqh0KF4nfNaiS-1" vertex="1">
          <mxGeometry x="283.1" y="80" width="300" height="420" as="geometry" />
        </mxCell>
        <mxCell id="teNf4iNM8CvdhOAByZOi-2" value="Discovery Service" style="rounded=0;whiteSpace=wrap;html=1;" parent="qQWXcRXsqh0KF4nfNaiS-1" vertex="1">
          <mxGeometry x="452.1" y="200" width="120" height="60" as="geometry" />
        </mxCell>
        <mxCell id="teNf4iNM8CvdhOAByZOi-3" value="Discovery Service" style="rounded=0;whiteSpace=wrap;html=1;" parent="qQWXcRXsqh0KF4nfNaiS-1" vertex="1">
          <mxGeometry x="452.1" y="270" width="120" height="60" as="geometry" />
        </mxCell>
        <mxCell id="teNf4iNM8CvdhOAByZOi-4" value="Discovery Service" style="rounded=0;whiteSpace=wrap;html=1;" parent="qQWXcRXsqh0KF4nfNaiS-1" vertex="1">
          <mxGeometry x="452.1" y="340" width="120" height="60" as="geometry" />
        </mxCell>
        <mxCell id="teNf4iNM8CvdhOAByZOi-5" value="Discovery Service" style="rounded=0;whiteSpace=wrap;html=1;" parent="qQWXcRXsqh0KF4nfNaiS-1" vertex="1">
          <mxGeometry x="383.1" y="410" width="189" height="60" as="geometry" />
        </mxCell>
        <mxCell id="teNf4iNM8CvdhOAByZOi-6" style="edgeStyle=orthogonalEdgeStyle;rounded=0;orthogonalLoop=1;jettySize=auto;html=1;exitX=0.25;exitY=1;exitDx=0;exitDy=0;entryX=0;entryY=0.5;entryDx=0;entryDy=0;" parent="qQWXcRXsqh0KF4nfNaiS-1" source="teNf4iNM8CvdhOAByZOi-9" target="teNf4iNM8CvdhOAByZOi-2" edge="1">
          <mxGeometry relative="1" as="geometry" />
        </mxCell>
        <mxCell id="teNf4iNM8CvdhOAByZOi-7" style="edgeStyle=orthogonalEdgeStyle;rounded=0;orthogonalLoop=1;jettySize=auto;html=1;exitX=0.25;exitY=1;exitDx=0;exitDy=0;entryX=0;entryY=0.5;entryDx=0;entryDy=0;" parent="qQWXcRXsqh0KF4nfNaiS-1" source="teNf4iNM8CvdhOAByZOi-9" target="teNf4iNM8CvdhOAByZOi-3" edge="1">
          <mxGeometry relative="1" as="geometry" />
        </mxCell>
        <mxCell id="teNf4iNM8CvdhOAByZOi-8" style="edgeStyle=orthogonalEdgeStyle;rounded=0;orthogonalLoop=1;jettySize=auto;html=1;exitX=0.25;exitY=1;exitDx=0;exitDy=0;entryX=0;entryY=0.5;entryDx=0;entryDy=0;" parent="qQWXcRXsqh0KF4nfNaiS-1" source="teNf4iNM8CvdhOAByZOi-9" target="teNf4iNM8CvdhOAByZOi-4" edge="1">
          <mxGeometry relative="1" as="geometry" />
        </mxCell>
        <mxCell id="teNf4iNM8CvdhOAByZOi-9" value="Discovery Pipeline" style="rounded=0;whiteSpace=wrap;html=1;" parent="qQWXcRXsqh0KF4nfNaiS-1" vertex="1">
          <mxGeometry x="383.1" y="130" width="189" height="60" as="geometry" />
        </mxCell>
        <mxCell id="teNf4iNM8CvdhOAByZOi-10" value="A collection of related discovery&lt;br&gt;pipelines and services." style="text;html=1;resizable=0;points=[];autosize=1;align=left;verticalAlign=top;spacingTop=0;spacingLeft=9;" parent="qQWXcRXsqh0KF4nfNaiS-1" vertex="1">
          <mxGeometry x="665.1" y="98" width="180" height="30" as="geometry" />
        </mxCell>
        <mxCell id="teNf4iNM8CvdhOAByZOi-11" value="A discovery service that orchestrates&lt;br&gt;other discovery services." style="text;html=1;resizable=0;points=[];autosize=1;align=left;verticalAlign=top;spacingTop=0;spacingLeft=9;" parent="qQWXcRXsqh0KF4nfNaiS-1" vertex="1">
          <mxGeometry x="665.1" y="168" width="210" height="30" as="geometry" />
        </mxCell>
        <mxCell id="teNf4iNM8CvdhOAByZOi-12" value="Implements analysis of a data source to&lt;br&gt;extract characteristics of the data that are&lt;br&gt;documented in an annotation.&amp;nbsp;" style="text;html=1;resizable=0;points=[];autosize=1;align=left;verticalAlign=top;spacingTop=0;spacingLeft=9;" parent="qQWXcRXsqh0KF4nfNaiS-1" vertex="1">
          <mxGeometry x="665.1" y="234" width="240" height="50" as="geometry" />
        </mxCell>
        <mxCell id="teNf4iNM8CvdhOAByZOi-13" value="Discovery Engine Open Metadata&lt;br&gt;Archive File" style="rounded=0;whiteSpace=wrap;html=1;" parent="qQWXcRXsqh0KF4nfNaiS-1" vertex="1">
          <mxGeometry x="373.1" y="580" width="120" height="60" as="geometry" />
        </mxCell>
        <mxCell id="teNf4iNM8CvdhOAByZOi-14" value="Discovery Service&lt;br&gt;Java Archive&lt;br&gt;(JAR) file" style="rounded=0;whiteSpace=wrap;html=1;" parent="qQWXcRXsqh0KF4nfNaiS-1" vertex="1">
          <mxGeometry x="373.1" y="651" width="120" height="60" as="geometry" />
        </mxCell>
        <mxCell id="teNf4iNM8CvdhOAByZOi-15" value="" style="shape=flexArrow;endArrow=classic;html=1;exitX=0.5;exitY=1;exitDx=0;exitDy=0;entryX=0.5;entryY=0;entryDx=0;entryDy=0;" parent="qQWXcRXsqh0KF4nfNaiS-1" source="teNf4iNM8CvdhOAByZOi-1" target="teNf4iNM8CvdhOAByZOi-0" edge="1">
          <mxGeometry width="50" height="50" relative="1" as="geometry">
            <mxPoint x="333.1" y="800" as="sourcePoint" />
            <mxPoint x="383.1" y="750" as="targetPoint" />
          </mxGeometry>
        </mxCell>
        <mxCell id="teNf4iNM8CvdhOAByZOi-16" value="Reusable pack" style="text;html=1;resizable=0;points=[];autosize=1;align=left;verticalAlign=top;spacingTop=-4;" parent="qQWXcRXsqh0KF4nfNaiS-1" vertex="1">
          <mxGeometry x="448.1" y="512" width="90" height="20" as="geometry" />
        </mxCell>
        <mxCell id="teNf4iNM8CvdhOAByZOi-17" value="" style="shape=flexArrow;endArrow=classic;html=1;fillColor=#dae8fc;fontSize=13;strokeColor=#6c8ebf;entryX=1.007;entryY=0.019;entryDx=0;entryDy=0;entryPerimeter=0;" parent="qQWXcRXsqh0KF4nfNaiS-1" target="teNf4iNM8CvdhOAByZOi-1" edge="1">
          <mxGeometry width="50" height="50" relative="1" as="geometry">
            <mxPoint x="665.0999999999999" y="88" as="sourcePoint" />
            <mxPoint x="605.1" y="85" as="targetPoint" />
          </mxGeometry>
        </mxCell>
        <mxCell id="teNf4iNM8CvdhOAByZOi-18" value="" style="shape=flexArrow;endArrow=classic;html=1;fillColor=#dae8fc;fontSize=13;entryX=1;entryY=0.5;entryDx=0;entryDy=0;exitX=-0.008;exitY=0.5;exitDx=0;exitDy=0;exitPerimeter=0;strokeColor=#6c8ebf;" parent="qQWXcRXsqh0KF4nfNaiS-1" source="teNf4iNM8CvdhOAByZOi-21" target="teNf4iNM8CvdhOAByZOi-9" edge="1">
          <mxGeometry width="50" height="50" relative="1" as="geometry">
            <mxPoint x="712.1" y="154.5" as="sourcePoint" />
            <mxPoint x="605.1" y="154.5" as="targetPoint" />
          </mxGeometry>
        </mxCell>
        <mxCell id="teNf4iNM8CvdhOAByZOi-19" value="" style="shape=flexArrow;endArrow=classic;html=1;fillColor=#dae8fc;fontSize=13;entryX=1;entryY=0.5;entryDx=0;entryDy=0;exitX=-0.033;exitY=0.6;exitDx=0;exitDy=0;exitPerimeter=0;strokeColor=#6c8ebf;" parent="qQWXcRXsqh0KF4nfNaiS-1" source="teNf4iNM8CvdhOAByZOi-22" edge="1">
          <mxGeometry width="50" height="50" relative="1" as="geometry">
            <mxPoint x="712.1" y="229.5" as="sourcePoint" />
            <mxPoint x="573.0999999999999" y="229.5" as="targetPoint" />
          </mxGeometry>
        </mxCell>
        <mxCell id="teNf4iNM8CvdhOAByZOi-20" value="Discovery Engine" style="text;html=1;resizable=0;points=[];autosize=1;align=left;verticalAlign=top;spacingTop=-4;fontSize=13;fontStyle=5;spacingLeft=9;" parent="qQWXcRXsqh0KF4nfNaiS-1" vertex="1">
          <mxGeometry x="666.1" y="80" width="120" height="20" as="geometry" />
        </mxCell>
        <mxCell id="teNf4iNM8CvdhOAByZOi-21" value="Discovery Pipeline" style="text;html=1;resizable=0;points=[];autosize=1;align=left;verticalAlign=top;spacingTop=-4;fontSize=13;fontStyle=5;spacingLeft=9;" parent="qQWXcRXsqh0KF4nfNaiS-1" vertex="1">
          <mxGeometry x="666.1" y="150" width="120" height="20" as="geometry" />
        </mxCell>
        <mxCell id="teNf4iNM8CvdhOAByZOi-22" value="Discovery Service" style="text;html=1;resizable=0;points=[];autosize=1;align=left;verticalAlign=top;spacingTop=-4;fontSize=13;fontStyle=5;spacingLeft=9;" parent="qQWXcRXsqh0KF4nfNaiS-1" vertex="1">
          <mxGeometry x="666.1" y="218" width="120" height="20" as="geometry" />
        </mxCell>
        <mxCell id="teNf4iNM8CvdhOAByZOi-23" style="edgeStyle=orthogonalEdgeStyle;rounded=0;orthogonalLoop=1;jettySize=auto;html=1;exitX=1;exitY=0.5;exitDx=0;exitDy=0;entryX=0;entryY=0.5;entryDx=0;entryDy=0;startArrow=none;startFill=0;endArrow=classic;endFill=1;fontColor=#000000;" parent="qQWXcRXsqh0KF4nfNaiS-1" source="teNf4iNM8CvdhOAByZOi-24" target="teNf4iNM8CvdhOAByZOi-9" edge="1">
          <mxGeometry relative="1" as="geometry" />
        </mxCell>
        <mxCell id="teNf4iNM8CvdhOAByZOi-24" value="Discovery&lt;br&gt;Request&lt;br&gt;Type" style="rounded=0;whiteSpace=wrap;html=1;align=center;" parent="qQWXcRXsqh0KF4nfNaiS-1" vertex="1">
          <mxGeometry x="293.1" y="130" width="80" height="60" as="geometry" />
        </mxCell>
        <mxCell id="teNf4iNM8CvdhOAByZOi-25" value="Discovery&lt;br&gt;Request&lt;br&gt;Type" style="rounded=0;whiteSpace=wrap;html=1;align=center;" parent="qQWXcRXsqh0KF4nfNaiS-1" vertex="1">
          <mxGeometry x="293.1" y="410" width="80" height="60" as="geometry" />
        </mxCell>
        <mxCell id="teNf4iNM8CvdhOAByZOi-26" value="" style="endArrow=classic;html=1;fontColor=#000000;entryX=0;entryY=0.5;entryDx=0;entryDy=0;" parent="qQWXcRXsqh0KF4nfNaiS-1" target="teNf4iNM8CvdhOAByZOi-5" edge="1">
          <mxGeometry width="50" height="50" relative="1" as="geometry">
            <mxPoint x="373.0999999999999" y="440" as="sourcePoint" />
            <mxPoint x="333.1" y="750" as="targetPoint" />
          </mxGeometry>
        </mxCell>
        <mxCell id="teNf4iNM8CvdhOAByZOi-27" value="A descriptive name for the&lt;br&gt;type of discovery that the&lt;br&gt;caller wants to run." style="text;html=1;resizable=0;points=[];autosize=1;align=left;verticalAlign=top;spacingTop=0;spacingLeft=9;" parent="qQWXcRXsqh0KF4nfNaiS-1" vertex="1">
          <mxGeometry x="59.99999999999997" y="167" width="160" height="50" as="geometry" />
        </mxCell>
        <mxCell id="teNf4iNM8CvdhOAByZOi-28" value="" style="shape=flexArrow;endArrow=classic;html=1;fillColor=#dae8fc;fontSize=13;strokeColor=#6c8ebf;exitX=1.026;exitY=0.55;exitDx=0;exitDy=0;exitPerimeter=0;entryX=0;entryY=0.5;entryDx=0;entryDy=0;" parent="qQWXcRXsqh0KF4nfNaiS-1" source="teNf4iNM8CvdhOAByZOi-29" target="teNf4iNM8CvdhOAByZOi-24" edge="1">
          <mxGeometry width="50" height="50" relative="1" as="geometry">
            <mxPoint x="49.99999999999997" y="127" as="sourcePoint" />
            <mxPoint x="-76.90000000000012" y="129.98000000000002" as="targetPoint" />
          </mxGeometry>
        </mxCell>
        <mxCell id="teNf4iNM8CvdhOAByZOi-29" value="Discovery Request Type" style="text;html=1;resizable=0;points=[];autosize=1;align=left;verticalAlign=top;spacingTop=-4;fontSize=13;fontStyle=5;spacingLeft=9;" parent="qQWXcRXsqh0KF4nfNaiS-1" vertex="1">
          <mxGeometry x="60.99999999999997" y="149" width="170" height="20" as="geometry" />
        </mxCell>
      </root>
    </mxGraphModel>
  </diagram>
  <diagram id="vNU_WPtLj0ylWzkrM_Mr" name="governance-action-execution">
    <mxGraphModel dx="1194" dy="775" grid="1" gridSize="10" guides="1" tooltips="1" connect="1" arrows="1" fold="1" page="1" pageScale="1" pageWidth="827" pageHeight="1169" math="0" shadow="0">
      <root>
        <mxCell id="c0NXIl0gN4FmYMQ7CRsE-0" />
        <mxCell id="c0NXIl0gN4FmYMQ7CRsE-1" parent="c0NXIl0gN4FmYMQ7CRsE-0" />
        <mxCell id="c0NXIl0gN4FmYMQ7CRsE-2" value="Discovery services need to to be able to record the fact that the discovery report is completed and needs processing&lt;br&gt;&lt;br&gt;Some of this output could be discovered information, some could be exceptions that need processing.&lt;br&gt;&lt;br&gt;The discovery engine could either just create one request for action - review discovery report - and leave the stewardship services to process or&lt;br&gt;it could provide specific requests for actions.&lt;br&gt;&lt;br&gt;The discovery service can create a request for action annotation and add it to a data field - this would be a specific request for action&lt;br&gt;This is on top of the generic request for action.&lt;br&gt;&lt;br&gt;&lt;br&gt;The stewardship server is looking for request for actions.&amp;nbsp;&amp;nbsp;&lt;br&gt;There would be one attached to the discovery report and one attached to each of the data field annotations - should we have a&lt;br&gt;specific quality exception annotation - to match the data field request for action&lt;br&gt;&lt;br&gt;The request for action annotation on data field is needed until the schema is defined - so acts as a bridge.&amp;nbsp; Not too happy that there is not&lt;br&gt;one for the general annotation - although maybe should be going for more specific annotations.&lt;br&gt;The data field annotation can be attached to multiple data fields.&lt;br&gt;&lt;br&gt;Do we need a special type of request for action thst means exception - would rather not ...&lt;br&gt;&lt;br&gt;Should have a request for action handler that provides a common service for OMASs to request that something is triggered when&lt;br&gt;a particular item becomes effective.&lt;br&gt;&lt;br&gt;Should we have a list of standard types of actions&lt;br&gt;&amp;nbsp; Examples - add audit log entry&lt;br&gt;&amp;nbsp; Send event to a topic&lt;br&gt;&amp;nbsp; Issue a specific call - this I like because if implemented in a governance action then can be pluggable - suggests that there are packs&lt;br&gt;of governance actions for different ttpes of OMAS&lt;br&gt;&lt;br&gt;&lt;br&gt;Do like the idea of discoverying the schema&lt;br&gt;Also the deduplicating of assets&lt;br&gt;And the reporting of assets that go into a zone without specific values set - eg owner.&lt;br&gt;&lt;br&gt;Need an element called a governance action - this includes an optional assessor and an optional executor - these can be nested connectors.&lt;br&gt;&lt;br&gt;If no assessor then automatically go into triage to add an assessor or manually assess&lt;br&gt;If assessor then it can say go to triage&lt;br&gt;If assessor allows auto-execute then if no executor then go to triage to add executor&lt;br&gt;otherwise run executor and mark complete.&lt;br&gt;&lt;br&gt;Triage may close item or change assessor/executor.&amp;nbsp; Need to define the state machine ...&lt;br&gt;&lt;br&gt;Statuses in Request for Action&lt;br&gt;&lt;span style=&quot;white-space: normal&quot;&gt;REQUESTED = 0&lt;/span&gt;&lt;br style=&quot;white-space: normal&quot;&gt;&lt;span style=&quot;white-space: normal&quot;&gt;REVIEWED = 1&lt;/span&gt;&lt;br style=&quot;white-space: normal&quot;&gt;&lt;span style=&quot;white-space: normal&quot;&gt;APPROVED = 2&lt;/span&gt;&lt;br style=&quot;white-space: normal&quot;&gt;&lt;span style=&quot;white-space: normal&quot;&gt;ACTIONED = 3&lt;/span&gt;&lt;br style=&quot;white-space: normal&quot;&gt;&lt;span style=&quot;white-space: normal&quot;&gt;INVALID = 4&lt;/span&gt;&lt;br style=&quot;white-space: normal&quot;&gt;&lt;span style=&quot;white-space: normal&quot;&gt;IGNORED = 5&lt;br&gt;&lt;/span&gt;&lt;font color=&quot;#cc0000&quot;&gt;FAILED = 6&lt;/font&gt;&lt;br style=&quot;white-space: normal&quot;&gt;&lt;span style=&quot;white-space: normal&quot;&gt;OTHER = 99&lt;br&gt;&lt;/span&gt;" style="text;html=1;resizable=0;points=[];autosize=1;align=left;verticalAlign=top;spacingTop=-4;" parent="c0NXIl0gN4FmYMQ7CRsE-1" vertex="1">
          <mxGeometry x="90" y="90" width="780" height="740" as="geometry" />
        </mxCell>
        <mxCell id="c0NXIl0gN4FmYMQ7CRsE-34" style="edgeStyle=orthogonalEdgeStyle;rounded=0;orthogonalLoop=1;jettySize=auto;html=1;" parent="c0NXIl0gN4FmYMQ7CRsE-1" source="c0NXIl0gN4FmYMQ7CRsE-36" target="c0NXIl0gN4FmYMQ7CRsE-42" edge="1">
          <mxGeometry relative="1" as="geometry" />
        </mxCell>
        <mxCell id="c0NXIl0gN4FmYMQ7CRsE-64" style="edgeStyle=orthogonalEdgeStyle;rounded=0;orthogonalLoop=1;jettySize=auto;html=1;exitX=0.5;exitY=1;exitDx=0;exitDy=0;" parent="c0NXIl0gN4FmYMQ7CRsE-1" source="c0NXIl0gN4FmYMQ7CRsE-36" target="c0NXIl0gN4FmYMQ7CRsE-63" edge="1">
          <mxGeometry relative="1" as="geometry" />
        </mxCell>
        <mxCell id="c0NXIl0gN4FmYMQ7CRsE-36" value="Created" style="rounded=1;whiteSpace=wrap;html=1;" parent="c0NXIl0gN4FmYMQ7CRsE-1" vertex="1">
          <mxGeometry x="145" y="1090" width="120" height="60" as="geometry" />
        </mxCell>
        <mxCell id="c0NXIl0gN4FmYMQ7CRsE-37" style="edgeStyle=orthogonalEdgeStyle;rounded=0;orthogonalLoop=1;jettySize=auto;html=1;exitX=1;exitY=0.5;exitDx=0;exitDy=0;entryX=1;entryY=0.5;entryDx=0;entryDy=0;" parent="c0NXIl0gN4FmYMQ7CRsE-1" source="c0NXIl0gN4FmYMQ7CRsE-42" target="c0NXIl0gN4FmYMQ7CRsE-61" edge="1">
          <mxGeometry relative="1" as="geometry">
            <mxPoint x="679" y="1240" as="targetPoint" />
          </mxGeometry>
        </mxCell>
        <mxCell id="c0NXIl0gN4FmYMQ7CRsE-38" style="edgeStyle=orthogonalEdgeStyle;rounded=0;orthogonalLoop=1;jettySize=auto;html=1;exitX=0.25;exitY=1;exitDx=0;exitDy=0;entryX=0.75;entryY=0;entryDx=0;entryDy=0;" parent="c0NXIl0gN4FmYMQ7CRsE-1" source="c0NXIl0gN4FmYMQ7CRsE-42" target="c0NXIl0gN4FmYMQ7CRsE-63" edge="1">
          <mxGeometry relative="1" as="geometry" />
        </mxCell>
        <mxCell id="c0NXIl0gN4FmYMQ7CRsE-40" style="edgeStyle=orthogonalEdgeStyle;rounded=0;orthogonalLoop=1;jettySize=auto;html=1;exitX=0.5;exitY=1;exitDx=0;exitDy=0;entryX=0.75;entryY=0;entryDx=0;entryDy=0;" parent="c0NXIl0gN4FmYMQ7CRsE-1" source="c0NXIl0gN4FmYMQ7CRsE-42" target="c0NXIl0gN4FmYMQ7CRsE-49" edge="1">
          <mxGeometry relative="1" as="geometry">
            <Array as="points">
              <mxPoint x="425" y="1280" />
              <mxPoint x="235" y="1280" />
            </Array>
          </mxGeometry>
        </mxCell>
        <mxCell id="c0NXIl0gN4FmYMQ7CRsE-42" value="Awaiting Manual&lt;br&gt;Assessment" style="rounded=1;whiteSpace=wrap;html=1;" parent="c0NXIl0gN4FmYMQ7CRsE-1" vertex="1">
          <mxGeometry x="365" y="1090" width="120" height="60" as="geometry" />
        </mxCell>
        <mxCell id="c0NXIl0gN4FmYMQ7CRsE-48" style="edgeStyle=orthogonalEdgeStyle;rounded=0;orthogonalLoop=1;jettySize=auto;html=1;entryX=0;entryY=0.5;entryDx=0;entryDy=0;" parent="c0NXIl0gN4FmYMQ7CRsE-1" source="c0NXIl0gN4FmYMQ7CRsE-49" target="c0NXIl0gN4FmYMQ7CRsE-53" edge="1">
          <mxGeometry relative="1" as="geometry" />
        </mxCell>
        <mxCell id="c0NXIl0gN4FmYMQ7CRsE-73" style="edgeStyle=orthogonalEdgeStyle;rounded=0;orthogonalLoop=1;jettySize=auto;html=1;exitX=0.5;exitY=1;exitDx=0;exitDy=0;entryX=0.5;entryY=0;entryDx=0;entryDy=0;" parent="c0NXIl0gN4FmYMQ7CRsE-1" source="c0NXIl0gN4FmYMQ7CRsE-49" target="c0NXIl0gN4FmYMQ7CRsE-71" edge="1">
          <mxGeometry relative="1" as="geometry" />
        </mxCell>
        <mxCell id="c0NXIl0gN4FmYMQ7CRsE-49" value="Assessed" style="rounded=1;whiteSpace=wrap;html=1;" parent="c0NXIl0gN4FmYMQ7CRsE-1" vertex="1">
          <mxGeometry x="145" y="1309" width="120" height="60" as="geometry" />
        </mxCell>
        <mxCell id="c0NXIl0gN4FmYMQ7CRsE-54" value="Assign Assessor" style="text;html=1;resizable=0;points=[];autosize=1;align=left;verticalAlign=top;spacingTop=-4;" parent="c0NXIl0gN4FmYMQ7CRsE-1" vertex="1">
          <mxGeometry x="265" y="1155" width="100" height="20" as="geometry" />
        </mxCell>
        <mxCell id="c0NXIl0gN4FmYMQ7CRsE-55" value="No Assessor" style="text;html=1;resizable=0;points=[];autosize=1;align=left;verticalAlign=top;spacingTop=-4;" parent="c0NXIl0gN4FmYMQ7CRsE-1" vertex="1">
          <mxGeometry x="277" y="1095" width="80" height="20" as="geometry" />
        </mxCell>
        <mxCell id="c0NXIl0gN4FmYMQ7CRsE-56" style="edgeStyle=orthogonalEdgeStyle;rounded=0;orthogonalLoop=1;jettySize=auto;html=1;exitX=0.25;exitY=0;exitDx=0;exitDy=0;entryX=0.75;entryY=0;entryDx=0;entryDy=0;" parent="c0NXIl0gN4FmYMQ7CRsE-1" source="c0NXIl0gN4FmYMQ7CRsE-42" target="c0NXIl0gN4FmYMQ7CRsE-42" edge="1">
          <mxGeometry relative="1" as="geometry">
            <Array as="points">
              <mxPoint x="395" y="1070" />
              <mxPoint x="455" y="1070" />
            </Array>
          </mxGeometry>
        </mxCell>
        <mxCell id="c0NXIl0gN4FmYMQ7CRsE-57" value="Prioritise" style="text;html=1;resizable=0;points=[];autosize=1;align=left;verticalAlign=top;spacingTop=-4;" parent="c0NXIl0gN4FmYMQ7CRsE-1" vertex="1">
          <mxGeometry x="395" y="1050" width="60" height="20" as="geometry" />
        </mxCell>
        <mxCell id="c0NXIl0gN4FmYMQ7CRsE-58" value="Assign Executor" style="text;html=1;resizable=0;points=[];autosize=1;align=left;verticalAlign=top;spacingTop=-4;" parent="c0NXIl0gN4FmYMQ7CRsE-1" vertex="1">
          <mxGeometry x="265" y="1380" width="100" height="20" as="geometry" />
        </mxCell>
        <mxCell id="c0NXIl0gN4FmYMQ7CRsE-59" value="Assign Assessment" style="text;html=1;resizable=0;points=[];autosize=1;align=left;verticalAlign=top;spacingTop=-4;" parent="c0NXIl0gN4FmYMQ7CRsE-1" vertex="1">
          <mxGeometry x="299" y="1260" width="120" height="20" as="geometry" />
        </mxCell>
        <mxCell id="c0NXIl0gN4FmYMQ7CRsE-60" value="Manual Close" style="text;html=1;resizable=0;points=[];autosize=1;align=left;verticalAlign=top;spacingTop=-4;" parent="c0NXIl0gN4FmYMQ7CRsE-1" vertex="1">
          <mxGeometry x="410" y="1560" width="90" height="20" as="geometry" />
        </mxCell>
        <mxCell id="c0NXIl0gN4FmYMQ7CRsE-61" value="Closed" style="rounded=1;whiteSpace=wrap;html=1;" parent="c0NXIl0gN4FmYMQ7CRsE-1" vertex="1">
          <mxGeometry x="145" y="1550" width="120" height="60" as="geometry" />
        </mxCell>
        <mxCell id="c0NXIl0gN4FmYMQ7CRsE-62" value="Auto-triaged" style="text;html=1;resizable=0;points=[];autosize=1;align=left;verticalAlign=top;spacingTop=-4;" parent="c0NXIl0gN4FmYMQ7CRsE-1" vertex="1">
          <mxGeometry x="130" y="1165" width="80" height="20" as="geometry" />
        </mxCell>
        <mxCell id="c0NXIl0gN4FmYMQ7CRsE-65" style="edgeStyle=orthogonalEdgeStyle;rounded=0;orthogonalLoop=1;jettySize=auto;html=1;entryX=0.5;entryY=0;entryDx=0;entryDy=0;" parent="c0NXIl0gN4FmYMQ7CRsE-1" source="c0NXIl0gN4FmYMQ7CRsE-63" target="c0NXIl0gN4FmYMQ7CRsE-49" edge="1">
          <mxGeometry relative="1" as="geometry" />
        </mxCell>
        <mxCell id="c0NXIl0gN4FmYMQ7CRsE-63" value="Running&lt;br&gt;Assessor" style="rounded=1;whiteSpace=wrap;html=1;" parent="c0NXIl0gN4FmYMQ7CRsE-1" vertex="1">
          <mxGeometry x="145" y="1200" width="120" height="60" as="geometry" />
        </mxCell>
        <mxCell id="c0NXIl0gN4FmYMQ7CRsE-74" style="edgeStyle=orthogonalEdgeStyle;rounded=0;orthogonalLoop=1;jettySize=auto;html=1;exitX=0.25;exitY=1;exitDx=0;exitDy=0;" parent="c0NXIl0gN4FmYMQ7CRsE-1" source="c0NXIl0gN4FmYMQ7CRsE-53" target="c0NXIl0gN4FmYMQ7CRsE-71" edge="1">
          <mxGeometry relative="1" as="geometry" />
        </mxCell>
        <mxCell id="c0NXIl0gN4FmYMQ7CRsE-75" style="edgeStyle=orthogonalEdgeStyle;rounded=0;orthogonalLoop=1;jettySize=auto;html=1;exitX=0.75;exitY=1;exitDx=0;exitDy=0;entryX=0.75;entryY=0;entryDx=0;entryDy=0;" parent="c0NXIl0gN4FmYMQ7CRsE-1" source="c0NXIl0gN4FmYMQ7CRsE-53" target="c0NXIl0gN4FmYMQ7CRsE-61" edge="1">
          <mxGeometry relative="1" as="geometry">
            <Array as="points">
              <mxPoint x="435" y="1520" />
              <mxPoint x="235" y="1520" />
            </Array>
          </mxGeometry>
        </mxCell>
        <mxCell id="c0NXIl0gN4FmYMQ7CRsE-53" value="Awaiting Manual&lt;br&gt;Action" style="rounded=1;whiteSpace=wrap;html=1;" parent="c0NXIl0gN4FmYMQ7CRsE-1" vertex="1">
          <mxGeometry x="345" y="1309" width="120" height="60" as="geometry" />
        </mxCell>
        <mxCell id="c0NXIl0gN4FmYMQ7CRsE-69" value="Auto-triage" style="text;html=1;resizable=0;points=[];autosize=1;align=left;verticalAlign=top;spacingTop=-4;" parent="c0NXIl0gN4FmYMQ7CRsE-1" vertex="1">
          <mxGeometry x="133" y="1275" width="70" height="20" as="geometry" />
        </mxCell>
        <mxCell id="c0NXIl0gN4FmYMQ7CRsE-70" value="Auto-triage" style="text;html=1;resizable=0;points=[];autosize=1;align=left;verticalAlign=top;spacingTop=-4;" parent="c0NXIl0gN4FmYMQ7CRsE-1" vertex="1">
          <mxGeometry x="130" y="1380" width="70" height="20" as="geometry" />
        </mxCell>
        <mxCell id="c0NXIl0gN4FmYMQ7CRsE-77" style="edgeStyle=orthogonalEdgeStyle;rounded=0;orthogonalLoop=1;jettySize=auto;html=1;exitX=0.5;exitY=1;exitDx=0;exitDy=0;" parent="c0NXIl0gN4FmYMQ7CRsE-1" source="c0NXIl0gN4FmYMQ7CRsE-71" target="c0NXIl0gN4FmYMQ7CRsE-61" edge="1">
          <mxGeometry relative="1" as="geometry" />
        </mxCell>
        <mxCell id="c0NXIl0gN4FmYMQ7CRsE-71" value="Running Executor" style="rounded=1;whiteSpace=wrap;html=1;" parent="c0NXIl0gN4FmYMQ7CRsE-1" vertex="1">
          <mxGeometry x="145" y="1440" width="120" height="60" as="geometry" />
        </mxCell>
        <mxCell id="c0NXIl0gN4FmYMQ7CRsE-72" value="Process States for Goverance Action" style="text;html=1;resizable=0;points=[];autosize=1;align=left;verticalAlign=top;spacingTop=-4;" parent="c0NXIl0gN4FmYMQ7CRsE-1" vertex="1">
          <mxGeometry x="90" y="870" width="210" height="20" as="geometry" />
        </mxCell>
        <mxCell id="c0NXIl0gN4FmYMQ7CRsE-76" value="Assign Outcome" style="text;html=1;resizable=0;points=[];autosize=1;align=left;verticalAlign=top;spacingTop=-4;" parent="c0NXIl0gN4FmYMQ7CRsE-1" vertex="1">
          <mxGeometry x="326" y="1490" width="100" height="20" as="geometry" />
        </mxCell>
        <mxCell id="c0NXIl0gN4FmYMQ7CRsE-78" value="Priority 0-5&lt;br&gt;Where 0 is automatic&lt;br&gt;And positive numbers are execurited in order&lt;br&gt;Could have a default priority" style="text;html=1;resizable=0;points=[];autosize=1;align=left;verticalAlign=top;spacingTop=-4;" parent="c0NXIl0gN4FmYMQ7CRsE-1" vertex="1">
          <mxGeometry x="527" y="1037" width="250" height="60" as="geometry" />
        </mxCell>
      </root>
    </mxGraphModel>
  </diagram>
  <diagram id="3b2P5HnAbHrux-heSW5a" name="stewardship-use-cases">
    <mxGraphModel dx="1194" dy="775" grid="1" gridSize="10" guides="1" tooltips="1" connect="1" arrows="1" fold="1" page="1" pageScale="1" pageWidth="827" pageHeight="1169" math="0" shadow="0">
      <root>
        <mxCell id="PmFvXWPpxfXTY7dXssH2-0" />
        <mxCell id="PmFvXWPpxfXTY7dXssH2-1" parent="PmFvXWPpxfXTY7dXssH2-0" />
        <mxCell id="PmFvXWPpxfXTY7dXssH2-2" value="A discovery service has completed its assessment" style="text;html=1;resizable=0;points=[];autosize=1;align=left;verticalAlign=top;spacingTop=-4;" parent="PmFvXWPpxfXTY7dXssH2-1" vertex="1">
          <mxGeometry x="80" y="61" width="280" height="20" as="geometry" />
        </mxCell>
        <mxCell id="PmFvXWPpxfXTY7dXssH2-3" value="A discovery service detected exceptions" style="text;html=1;" parent="PmFvXWPpxfXTY7dXssH2-1" vertex="1">
          <mxGeometry x="80" y="100" width="290" height="30" as="geometry" />
        </mxCell>
        <mxCell id="PmFvXWPpxfXTY7dXssH2-4" value="Auto-validation of the Assets - deduplication and anomolies" style="text;html=1;resizable=0;points=[];autosize=1;align=left;verticalAlign=top;spacingTop=-4;" parent="PmFvXWPpxfXTY7dXssH2-1" vertex="1">
          <mxGeometry x="80" y="155" width="330" height="20" as="geometry" />
        </mxCell>
        <mxCell id="PmFvXWPpxfXTY7dXssH2-5" value="Action on effective date/time" style="text;html=1;resizable=0;points=[];autosize=1;align=left;verticalAlign=top;spacingTop=-4;" parent="PmFvXWPpxfXTY7dXssH2-1" vertex="1">
          <mxGeometry x="80" y="200" width="170" height="20" as="geometry" />
        </mxCell>
        <mxCell id="PmFvXWPpxfXTY7dXssH2-6" value="Steward needs to be able to control the triage process, monitor execution of governance actions,&lt;br&gt;schedule work, query the governance action templates and manually kick them off" style="text;html=1;resizable=0;points=[];autosize=1;align=left;verticalAlign=top;spacingTop=-4;" parent="PmFvXWPpxfXTY7dXssH2-1" vertex="1">
          <mxGeometry x="105" y="295" width="530" height="30" as="geometry" />
        </mxCell>
        <mxCell id="PmFvXWPpxfXTY7dXssH2-7" value="View available actions" style="text;html=1;resizable=0;points=[];autosize=1;align=left;verticalAlign=top;spacingTop=-4;" parent="PmFvXWPpxfXTY7dXssH2-1" vertex="1">
          <mxGeometry x="95" y="380" width="130" height="20" as="geometry" />
        </mxCell>
        <mxCell id="PmFvXWPpxfXTY7dXssH2-8" value="View schedule" style="text;html=1;resizable=0;points=[];autosize=1;align=left;verticalAlign=top;spacingTop=-4;" parent="PmFvXWPpxfXTY7dXssH2-1" vertex="1">
          <mxGeometry x="95" y="440" width="90" height="20" as="geometry" />
        </mxCell>
        <mxCell id="PmFvXWPpxfXTY7dXssH2-9" value="Maintain schedule" style="text;html=1;resizable=0;points=[];autosize=1;align=left;verticalAlign=top;spacingTop=-4;" parent="PmFvXWPpxfXTY7dXssH2-1" vertex="1">
          <mxGeometry x="95" y="460" width="110" height="20" as="geometry" />
        </mxCell>
        <mxCell id="PmFvXWPpxfXTY7dXssH2-10" value="Maintain actions" style="text;html=1;resizable=0;points=[];autosize=1;align=left;verticalAlign=top;spacingTop=-4;" parent="PmFvXWPpxfXTY7dXssH2-1" vertex="1">
          <mxGeometry x="95" y="400" width="100" height="20" as="geometry" />
        </mxCell>
        <mxCell id="PmFvXWPpxfXTY7dXssH2-11" value="View pending RfAs" style="text;html=1;resizable=0;points=[];autosize=1;align=left;verticalAlign=top;spacingTop=-4;" parent="PmFvXWPpxfXTY7dXssH2-1" vertex="1">
          <mxGeometry x="95" y="500" width="120" height="20" as="geometry" />
        </mxCell>
        <mxCell id="PmFvXWPpxfXTY7dXssH2-12" value="Triage pending RfAs" style="text;html=1;resizable=0;points=[];autosize=1;align=left;verticalAlign=top;spacingTop=-4;" parent="PmFvXWPpxfXTY7dXssH2-1" vertex="1">
          <mxGeometry x="95" y="520" width="120" height="20" as="geometry" />
        </mxCell>
        <mxCell id="PmFvXWPpxfXTY7dXssH2-13" value="View pending governance actions" style="text;html=1;resizable=0;points=[];autosize=1;align=left;verticalAlign=top;spacingTop=-4;" parent="PmFvXWPpxfXTY7dXssH2-1" vertex="1">
          <mxGeometry x="95" y="564" width="190" height="20" as="geometry" />
        </mxCell>
        <mxCell id="PmFvXWPpxfXTY7dXssH2-14" value="Triage pending governance actions" style="text;html=1;resizable=0;points=[];autosize=1;align=left;verticalAlign=top;spacingTop=-4;" parent="PmFvXWPpxfXTY7dXssH2-1" vertex="1">
          <mxGeometry x="95" y="590" width="200" height="20" as="geometry" />
        </mxCell>
        <mxCell id="mUtzVvZfbHkhHpeNElp7-0" value="Report on activity and status" style="text;html=1;resizable=0;points=[];autosize=1;align=left;verticalAlign=top;spacingTop=-4;" parent="PmFvXWPpxfXTY7dXssH2-1" vertex="1">
          <mxGeometry x="95" y="640" width="170" height="20" as="geometry" />
        </mxCell>
        <mxCell id="mUtzVvZfbHkhHpeNElp7-1" value="Discovery server/engine creates RFA" style="text;html=1;resizable=0;points=[];autosize=1;align=left;verticalAlign=top;spacingTop=-4;" parent="PmFvXWPpxfXTY7dXssH2-1" vertex="1">
          <mxGeometry x="390" y="61" width="210" height="20" as="geometry" />
        </mxCell>
        <mxCell id="mUtzVvZfbHkhHpeNElp7-2" value="Discovery server/engine creates RFA" style="text;html=1;resizable=0;points=[];autosize=1;align=left;verticalAlign=top;spacingTop=-4;" parent="PmFvXWPpxfXTY7dXssH2-1" vertex="1">
          <mxGeometry x="390" y="100" width="210" height="20" as="geometry" />
        </mxCell>
        <mxCell id="mUtzVvZfbHkhHpeNElp7-4" value="3 levels of Governance Action" style="text;html=1;resizable=0;points=[];autosize=1;align=left;verticalAlign=top;spacingTop=-4;" parent="PmFvXWPpxfXTY7dXssH2-1" vertex="1">
          <mxGeometry x="678" y="200" width="170" height="20" as="geometry" />
        </mxCell>
        <mxCell id="mUtzVvZfbHkhHpeNElp7-5" value="Discovery&lt;br&gt;Assessment&lt;br&gt;Action" style="text;html=1;resizable=0;points=[];autosize=1;align=left;verticalAlign=top;spacingTop=-4;" parent="PmFvXWPpxfXTY7dXssH2-1" vertex="1">
          <mxGeometry x="678" y="239" width="80" height="40" as="geometry" />
        </mxCell>
        <mxCell id="mUtzVvZfbHkhHpeNElp7-6" value="Suggests that the autotriage&lt;br&gt;should be in the discovery server" style="text;html=1;resizable=0;points=[];autosize=1;align=left;verticalAlign=top;spacingTop=-4;" parent="PmFvXWPpxfXTY7dXssH2-1" vertex="1">
          <mxGeometry x="677" y="310" width="190" height="30" as="geometry" />
        </mxCell>
        <mxCell id="mUtzVvZfbHkhHpeNElp7-7" value="Discovery server/engine creates RFA" style="text;html=1;resizable=0;points=[];autosize=1;align=left;verticalAlign=top;spacingTop=-4;" parent="PmFvXWPpxfXTY7dXssH2-1" vertex="1">
          <mxGeometry x="450" y="155" width="210" height="20" as="geometry" />
        </mxCell>
        <mxCell id="mUtzVvZfbHkhHpeNElp7-8" value="Scheduler process creates RfA" style="text;html=1;resizable=0;points=[];autosize=1;align=left;verticalAlign=top;spacingTop=-4;" parent="PmFvXWPpxfXTY7dXssH2-1" vertex="1">
          <mxGeometry x="302" y="202" width="180" height="20" as="geometry" />
        </mxCell>
        <mxCell id="DOZhjq4PSC7qiO8aZ0Zg-0" value="Could deduplication be a discovery service?&lt;br&gt;&lt;br&gt;Or could discovery server / discovery engine have an asset scan and then invoke&amp;nbsp;&amp;nbsp;" style="text;html=1;resizable=0;points=[];autosize=1;align=left;verticalAlign=top;spacingTop=-4;" parent="PmFvXWPpxfXTY7dXssH2-1" vertex="1">
          <mxGeometry x="543" y="423" width="450" height="40" as="geometry" />
        </mxCell>
        <mxCell id="DOZhjq4PSC7qiO8aZ0Zg-1" value="Text" style="text;html=1;resizable=0;points=[];autosize=1;align=left;verticalAlign=top;spacingTop=-4;" parent="PmFvXWPpxfXTY7dXssH2-1" vertex="1">
          <mxGeometry x="549" y="491" width="40" height="20" as="geometry" />
        </mxCell>
      </root>
    </mxGraphModel>
  </diagram>
</mxfile>
